<?xml version="1.0" encoding="UTF-8"?>
<svg version="1.1" xmlns="http://www.w3.org/2000/svg" width="32" height="32">
<path d="M0 0 C3.92061103 2.19278684 6.97809862 4.95619724 9 9 C10.18953896 20.60929793 10.18953896 20.60929793 7.80078125 25.41015625 C4.5340641 29.2857829 1.31897961 31.72223921 -3.8046875 32.3359375 C-10.03874265 32.41525118 -14.20318086 32.43705771 -19 28 C-23.73481522 23.02888162 -23.75838997 19.1217285 -23.59765625 12.46875 C-22.6914752 7.20934627 -20.12606514 4.23924119 -16 1 C-11.26503433 -1.36748284 -5.10642777 -0.70318022 0 0 Z " fill="#03327B" transform="translate(23,0)"/>
<path d="M0 0 C0.85722656 -0.00515625 1.71445312 -0.0103125 2.59765625 -0.015625 C4.9375 0.25 4.9375 0.25 7.9375 2.25 C7.9375 2.91 7.9375 3.57 7.9375 4.25 C8.5975 4.25 9.2575 4.25 9.9375 4.25 C9.9375 7.55 9.9375 10.85 9.9375 14.25 C8.9475 14.58 7.9575 14.91 6.9375 15.25 C6.22022222 16.89551962 5.55424772 18.56422289 4.9375 20.25 C2.9375 22.25 2.9375 22.25 -0.5 22.5625 C-4.0625 22.25 -4.0625 22.25 -5.73950195 20.98120117 C-7.28679454 18.95650072 -7.54682212 17.75655058 -7.79296875 15.23828125 C-7.87353516 14.48095703 -7.95410156 13.72363281 -8.03710938 12.94335938 C-8.10736328 12.15767578 -8.17761719 11.37199219 -8.25 10.5625 C-8.33185547 9.76521484 -8.41371094 8.96792969 -8.49804688 8.14648438 C-8.69800845 6.182156 -8.88182254 4.21619588 -9.0625 2.25 C-5.93061623 0.41882898 -3.61429405 -0.0218057 0 0 Z " fill="#A45C28" transform="translate(15.0625,4.75)"/>
<path d="M0 0 C3.63 0 7.26 0 11 0 C10.67 0.66 10.34 1.32 10 2 C9.01 2 8.02 2 7 2 C6.67 2.66 6.34 3.32 6 4 C7.65 4 9.3 4 11 4 C10.6875 7.375 10.6875 7.375 10 11 C7 13 7 13 3.875 12.6875 C1 12 1 12 0 11 C-0.07179964 9.48071962 -0.08392007 7.95832518 -0.0625 6.4375 C-0.05347656 5.61121094 -0.04445313 4.78492188 -0.03515625 3.93359375 C-0.02355469 3.29550781 -0.01195312 2.65742188 0 2 C0.99 2.33 1.98 2.66 3 3 C3 5.64 3 8.28 3 11 C3.99 10.34 4.98 9.68 6 9 C5.67 8.34 5.34 7.68 5 7 C5.66 7 6.32 7 7 7 C7 6.34 7 5.68 7 5 C6.01 5.33 5.02 5.66 4 6 C4 4.35 4 2.7 4 1 C2.68 0.67 1.36 0.34 0 0 Z " fill="#E18941" transform="translate(9,12)"/>
<path d="M0 0 C0.85722656 -0.00515625 1.71445312 -0.0103125 2.59765625 -0.015625 C4.9375 0.25 4.9375 0.25 7.9375 2.25 C7.9375 2.91 7.9375 3.57 7.9375 4.25 C6.9475 4.58 5.9575 4.91 4.9375 5.25 C4.6075 5.58 4.2775 5.91 3.9375 6.25 C-0.8840583 6.53362108 -4.56742881 6.00417412 -9.0625 4.25 C-9.0625 3.59 -9.0625 2.93 -9.0625 2.25 C-5.93061623 0.41882898 -3.61429405 -0.0218057 0 0 Z " fill="#B78125" transform="translate(15.0625,4.75)"/>
<path d="M0 0 C1.485 0.99 1.485 0.99 3 2 C3 2.66 3 3.32 3 4 C4.32 4 5.64 4 7 4 C7.33 5.32 7.66 6.64 8 8 C8.66 8 9.32 8 10 8 C10 12 10 12 9 14 C8.01 14 7.02 14 6 14 C4.875 8.25 4.875 8.25 6 6 C5.34 6 4.68 6 4 6 C4 8.64 4 11.28 4 14 C5.98 14.66 7.96 15.32 10 16 C9.01 16.66 8.02 17.32 7 18 C3.125 16.125 3.125 16.125 2 15 C1.60056824 12.47804033 1.24920152 9.97036344 0.9375 7.4375 C0.84662109 6.72658203 0.75574219 6.01566406 0.66210938 5.28320312 C0.43760497 3.52261597 0.21831603 1.76136522 0 0 Z " fill="#3A322A" transform="translate(6,9)"/>
<path d="M0 0 C2.97 0.495 2.97 0.495 6 1 C6 3.64 6 6.28 6 9 C5.01 9 4.02 9 3 9 C2 8 2 8 1.9375 5.4375 C1.958125 4.633125 1.97875 3.82875 2 3 C1.34 2.67 0.68 2.34 0 2 C0 1.34 0 0.68 0 0 Z " fill="#825220" transform="translate(19,8)"/>
<path d="M0 0 C1.32 0 2.64 0 4 0 C4.33 1.32 4.66 2.64 5 4 C5.66 4 6.32 4 7 4 C7 8 7 8 6 10 C5.01 10 4.02 10 3 10 C1.875 4.25 1.875 4.25 3 2 C2.01 1.67 1.02 1.34 0 1 C0 0.67 0 0.34 0 0 Z " fill="#815027" transform="translate(9,13)"/>
<path d="M0 0 C3.63 0 7.26 0 11 0 C10.67 0.66 10.34 1.32 10 2 C9.01 2 8.02 2 7 2 C6.67 2.66 6.34 3.32 6 4 C6.99 4.33 7.98 4.66 9 5 C7.35 5.33 5.7 5.66 4 6 C4 4.35 4 2.7 4 1 C2.68 0.67 1.36 0.34 0 0 Z " fill="#CC7839" transform="translate(9,12)"/>
<path d="M0 0 C-1.07401108 2.91517292 -1.77810176 4.77810176 -4 7 C-6.625 7.125 -6.625 7.125 -9 7 C-8.01 6.67 -7.02 6.34 -6 6 C-5.67 5.01 -5.34 4.02 -5 3 C-2.44444444 0 -2.44444444 0 0 0 Z " fill="#B75D27" transform="translate(22,20)"/>
<path d="M0 0 C0.66 0.66 1.32 1.32 2 2 C-0.64 2.33 -3.28 2.66 -6 3 C-6.33 2.01 -6.66 1.02 -7 0 C-3.85179059 -1.04940314 -3.00659136 -1.066855 0 0 Z " fill="#DE9F2C" transform="translate(13,7)"/>
<path d="M0 0 C0.99 0.33 1.98 0.66 3 1 C3 3.31 3 5.62 3 8 C2.01 8.33 1.02 8.66 0 9 C0 6.03 0 3.06 0 0 Z " fill="#CC8140" transform="translate(9,14)"/>
</svg>
