/* XPM */
static char *a696fa5a135b48738a28373178bdc7cdFgZqTcTl15wo06AL[] = {
/* columns rows colors chars-per-pixel */
"16 16 165 2 ",
"   c None",
".  c #3E2F1A",
"X  c #3B292F",
"o  c #3C3524",
"O  c #272D34",
"+  c #20283F",
"@  c #572A0E",
"#  c #4C2D18",
"$  c #4E341D",
"%  c #483A1F",
"&  c #5E3119",
"*  c #6C2219",
"=  c #633712",
"-  c #4E3026",
";  c #4F3926",
":  c #4F3432",
">  c #663925",
",  c #52421E",
"<  c #7B4715",
"1  c #7D581E",
"2  c #534A34",
"3  c #6D4D21",
"4  c #754823",
"5  c #794D27",
"6  c #785129",
"7  c #795D28",
"8  c #132445",
"9  c #11274F",
"0  c #1D2749",
"q  c #052256",
"w  c #01245E",
"e  c #01255E",
"r  c #04265E",
"t  c #08295C",
"y  c #122F5D",
"u  c #2C3645",
"i  c #032763",
"p  c #042763",
"a  c #002565",
"s  c #032767",
"d  c #0A2B60",
"f  c #0E2B60",
"g  c #0F2F60",
"h  c #002469",
"j  c #00266C",
"k  c #052968",
"l  c #042C6C",
"z  c #002373",
"x  c #002870",
"c  c #002974",
"v  c #002875",
"b  c #002876",
"n  c #022E78",
"m  c #002E7B",
"M  c #00287D",
"N  c #002D7F",
"B  c #00307D",
"V  c #BD0F11",
"C  c #A52117",
"Z  c #C30D15",
"A  c #ED010F",
"S  c #80471F",
"D  c #8F4518",
"F  c #8A4F1F",
"G  c #8A5416",
"H  c #8E561E",
"J  c #AC511B",
"K  c #AA511D",
"L  c #AC531F",
"P  c #AF561F",
"I  c #8D691F",
"U  c #A4601B",
"Y  c #B6721A",
"T  c #954724",
"R  c #82562B",
"E  c #95542B",
"W  c #9A5C2C",
"Q  c #895930",
"!  c #915F32",
"~  c #A6502A",
"^  c #8D6A27",
"/  c #81672F",
"(  c #896528",
")  c #9E6221",
"_  c #976A20",
"`  c #9B6E28",
"'  c #A6602B",
"]  c #B06429",
"[  c #B6632D",
"{  c #A17721",
"}  c #A37422",
"|  c #AC7323",
" . c #AD7727",
".. c #A57824",
"X. c #AB7B21",
"o. c #B07F23",
"O. c #AC6331",
"+. c #AE6D36",
"@. c #BB6630",
"#. c #B16F37",
"$. c #BA6B34",
"%. c #BF7036",
"&. c #BE7037",
"*. c #B87C3C",
"=. c #C0701D",
"-. c #CE6329",
";. c #DB6A2A",
":. c #DE6D2C",
">. c #C77438",
",. c #CB7E3E",
"<. c #D27F3D",
"1. c #E4722F",
"2. c #E67B37",
"3. c #F07E34",
"4. c #AC8627",
"5. c #B58827",
"6. c #BC8822",
"7. c #B98C27",
"8. c #BA8D28",
"9. c #BF803D",
"0. c #CF8821",
"q. c #C69629",
"w. c #CA9628",
"e. c #CF9B2B",
"r. c #D19B2A",
"t. c #C9803E",
"y. c #D8873E",
"u. c #E1A224",
"i. c #F1AD2A",
"p. c #FBBB32",
"a. c #D68540",
"s. c #D68940",
"d. c #DD8F45",
"f. c #E48B43",
"g. c #E38C43",
"h. c #E18B44",
"j. c #E28D45",
"k. c #EB8E40",
"l. c #EF8C41",
"z. c #F08D42",
"x. c #F39145",
"c. c #002F80",
"v. c #002C85",
"b. c #003183",
"n. c #003086",
"m. c #003187",
"M. c #003387",
"N. c #003484",
"B. c #003485",
"V. c #003486",
"C. c #003586",
"Z. c #003487",
"A. c #003587",
"S. c #00318B",
"D. c #00338A",
"F. c #003588",
"G. c #003489",
"H. c #003589",
"J. c #00348A",
"K. c #00358A",
"L. c #00348B",
"P. c #00358B",
"I. c #00368B",
"U. c #00358C",
"Y. c #00358D",
/* pixels */
"        N.N.F.F.F.N.N.N.        ",
"      F.S.M j p a b v.F.N.      ",
"    x z u 7 { 6.X.^ 2 t m.N.    ",
"  l I ..u.i.r.5.w.o.0.Y w U.N.  ",
"N.b / p.8.4.q.e.7.{ H U ; n N.N.",
"N.F.h , ( 3 1 _ | F & ) =.i F.N.",
"N.N.B o ! &.>.$.E &.[  .< a F.N.",
"N.N.n % R . 5 4 $ #.@.` G 8 F.N.",
"N.N.b.O *.C Z ~ t.j.2.S = + F.N.",
"N.N.F.g 9.V A * d.x.1.-.D f F.N.",
"N.N.F.y s.O.T +.,.l.:.L - c.N.N.",
"N.N.F.d y.a.6 W g.z.;.@ 9 U.N.N.",
"  N.N.b Q k.h.f.<.3.K q F.N.N.  ",
"    N.F.w # ] ' P J 0 F.N.N.    ",
"      N.U.k X > : r S.N.N.      ",
"        N.F.m.N m.F.N.N.        "
};
