<?xml version="1.0" encoding="UTF-8"?>
<svg version="1.1" xmlns="http://www.w3.org/2000/svg" width="128" height="128">
<path d="M0 0 C13.78225419 9.19134305 24.61342506 22.86041491 28.24121094 39.32177734 C31.15213845 57.73913423 29.27174417 75.63051549 18.56640625 91.19140625 C12.49554068 99.19224518 6.16071192 105.42224604 -2.375 110.75 C-3.23609375 111.30816406 -4.0971875 111.86632812 -4.984375 112.44140625 C-7.375 113.75 -7.375 113.75 -10.375 113.75 C-10.705 114.41 -11.035 115.07 -11.375 115.75 C-23.61127639 121.2957552 -42.09512726 120.76416313 -54.75 117.0625 C-56.64477261 116.34163539 -58.52290812 115.57435715 -60.375 114.75 C-61.22449219 114.399375 -62.07398438 114.04875 -62.94921875 113.6875 C-72.7118779 109.27361329 -81.69740478 102.90741165 -87.375 93.75 C-88.12317993 93.02055176 -88.12317993 93.02055176 -88.88647461 92.27636719 C-91.41200248 89.6866345 -92.54274648 86.28741905 -93.9375 83 C-94.24107422 82.3090625 -94.54464844 81.618125 -94.85742188 80.90625 C-100.99656187 66.67521523 -102.43625698 48.11806393 -97.25 33.25 C-90.21746123 15.90438062 -78.3259819 3.45400781 -61.66015625 -4.890625 C-41.41991072 -13.26589901 -18.54008261 -11.5509822 0 0 Z " fill="#003383" transform="translate(99.375,9.25)"/>
<path d="M0 0 C1.63671875 1.46484375 1.63671875 1.46484375 3.63671875 4.46484375 C3.76171875 7.15234375 3.76171875 7.15234375 3.63671875 9.46484375 C4.25546875 9.75359375 4.87421875 10.04234375 5.51171875 10.33984375 C7.63671875 11.46484375 7.63671875 11.46484375 9.63671875 13.46484375 C9.92382812 15.40429688 9.92382812 15.40429688 9.98046875 17.74609375 C10.01011719 18.58785156 10.03976563 19.42960937 10.0703125 20.296875 C10.11458333 22.07552083 10.15885417 23.85416667 10.203125 25.6328125 C10.23277344 26.47457031 10.26242188 27.31632812 10.29296875 28.18359375 C10.32100586 29.3427832 10.32100586 29.3427832 10.34960938 30.52539062 C10.47469373 32.70010864 10.47469373 32.70010864 12.63671875 34.46484375 C12.82421875 37.02734375 12.82421875 37.02734375 12.63671875 39.46484375 C12.30671875 39.79484375 11.97671875 40.12484375 11.63671875 40.46484375 C11.40984375 41.68171875 11.18296875 42.89859375 10.94921875 44.15234375 C10.00304054 48.57021343 8.4974559 52.67979027 6.76171875 56.83984375 C6.26929687 58.02320312 5.776875 59.2065625 5.26953125 60.42578125 C3.02965977 64.59472865 1.06446707 65.98892764 -3.36328125 67.46484375 C-4.73863464 69.43618361 -6.06539169 71.44166297 -7.36328125 73.46484375 C-12.93175555 80.89273829 -20.46112272 85.27299312 -29.59375 87.1171875 C-36.97537713 87.50870977 -42.77275106 85.320364 -48.36328125 80.46484375 C-49.06974287 79.15216169 -49.74512682 77.82134931 -50.36328125 76.46484375 C-50.98203125 76.17609375 -51.60078125 75.88734375 -52.23828125 75.58984375 C-55.76605701 73.72219776 -57.75068576 70.35164773 -58.97045898 66.59472656 C-59.4289723 64.1086668 -59.47563648 61.78994363 -59.4609375 59.26171875 C-59.45771484 58.28203125 -59.45449219 57.30234375 -59.45117188 56.29296875 C-59.44279297 55.2771875 -59.43441406 54.26140625 -59.42578125 53.21484375 C-59.42126953 52.18359375 -59.41675781 51.15234375 -59.41210938 50.08984375 C-59.40034213 47.54811802 -59.38390136 45.00651056 -59.36328125 42.46484375 C-60.00265625 42.15546875 -60.64203125 41.84609375 -61.30078125 41.52734375 C-63.36328125 40.46484375 -63.36328125 40.46484375 -64.36328125 39.46484375 C-64.45975381 37.95026193 -64.49526619 36.43168907 -64.50390625 34.9140625 C-64.53291016 33.52477539 -64.53291016 33.52477539 -64.5625 32.10742188 C-64.59614928 30.1492928 -64.61456754 28.1908383 -64.6171875 26.23242188 C-64.637839 20.49415113 -64.637839 20.49415113 -67.796875 15.9375 C-68.64378906 15.45152344 -69.49070312 14.96554688 -70.36328125 14.46484375 C-73.84355896 10.14449901 -73.79443859 6.81119472 -73.36328125 1.46484375 C-72.70328125 0.47484375 -72.04328125 -0.51515625 -71.36328125 -1.53515625 C-70.86828125 -1.37015625 -70.37328125 -1.20515625 -69.86328125 -1.03515625 C-61.71776562 0.59394688 -57.5655389 -1.25190751 -50.359375 -5.06640625 C-35.14259747 -12.52599993 -13.57297379 -9.74668785 0 0 Z " fill="#161410" transform="translate(92.36328125,24.53515625)"/>
<path d="M0 0 C-0.02320313 0.85722656 -0.04640625 1.71445312 -0.0703125 2.59765625 C-0.32660947 11.52744024 -0.32660947 11.52744024 2 20 C2.886875 20.825 3.77375 21.65 4.6875 22.5 C5.450625 23.325 6.21375 24.15 7 25 C6.8125 28.8125 6.8125 28.8125 6 32 C7.32 31.01 8.64 30.02 10 29 C10 29.66 10 30.32 10 31 C10.66 31 11.32 31 12 31 C11.505 29.8553125 11.505 29.8553125 11 28.6875 C10 26 10 26 10 23 C11.65 23 13.3 23 15 23 C14.34894614 33.30461116 14.34894614 33.30461116 11 37 C7.875 37.875 7.875 37.875 5 38 C4.67 37.67 4.34 37.34 4 37 C3.731875 38.0621875 3.46375 39.124375 3.1875 40.21875 C0.87499021 48.79460283 -1.20291861 55.90042618 -9 61 C-15.5367477 64.56309935 -21.53332156 67.01243098 -29 66 C-33.67466852 64.44177716 -36.77662597 62.73911387 -40 59 C-39.175 59.33 -38.35 59.66 -37.5 60 C-30.52221139 61.99365389 -24.38035819 61.43775397 -18 58 C-16.30396126 56.47168238 -16.30396126 56.47168238 -15 55 C-17.55109573 55.47242514 -19.04846371 56.03461694 -21.1875 57.5625 C-25.91560321 59.97908608 -30.77821271 59.64184966 -35.8125 58.1875 C-38.05819874 56.9684064 -40.02031948 55.61307302 -42 54 C-42 54.66 -42 55.32 -42 56 C-44.9560221 54.98068204 -45.93522451 54.10367014 -47.61621094 51.41333008 C-49.20247334 47.50056815 -49.40029009 44.1592393 -49.328125 40.01171875 C-49.32625183 39.26791458 -49.32437866 38.52411041 -49.32244873 37.75776672 C-49.31576264 36.19710763 -49.30191722 34.6364643 -49.28125 33.07592773 C-49.24986805 30.67741473 -49.24025236 28.27955812 -49.234375 25.88085938 C-49.2252132 24.36197108 -49.21484007 22.8430895 -49.203125 21.32421875 C-49.19887512 20.60449387 -49.19462524 19.88476898 -49.19024658 19.14323425 C-49.11722336 14.11722336 -49.11722336 14.11722336 -48 13 C-44.33655389 12.86431681 -41.49384279 12.83538574 -38 14 C-38 14.66 -38 15.32 -38 16 C-41.07617188 16.29296875 -41.07617188 16.29296875 -44.15234375 16.5859375 C-44.76207031 16.72257812 -45.37179688 16.85921875 -46 17 C-46.33 17.66 -46.66 18.32 -47 19 C-46.4225 18.814375 -45.845 18.62875 -45.25 18.4375 C-42.76301821 17.95392021 -41.41414122 18.37699581 -39 19 C-38.01 18.67 -37.02 18.34 -36 18 C-35.75 24.625 -35.75 24.625 -38 28 C-38.66158043 30.04584079 -38.66158043 30.04584079 -39.125 32.1875 C-39.558125 34.0746875 -39.558125 34.0746875 -40 36 C-39.48953125 35.68289062 -38.9790625 35.36578125 -38.453125 35.0390625 C-35.19785341 33.66023727 -32.27156868 33.5706427 -28.75 33.375 C-27.48671875 33.30023438 -26.2234375 33.22546875 -24.921875 33.1484375 C-23.95765625 33.09945312 -22.9934375 33.05046875 -22 33 C-20.68 34.98 -19.36 36.96 -18 39 C-19.5725983 34.67535468 -21.5388257 30.87821405 -24 27 C-24.99 26.67 -25.98 26.34 -27 26 C-27 26.66 -27 27.32 -27 28 C-26.34 28 -25.68 28 -25 28 C-25 29.32 -25 30.64 -25 32 C-28.3 32 -31.6 32 -35 32 C-36.16630787 27.3347685 -35.45238133 25.51002623 -34 21 C-33.61994956 19.68895351 -33.24472735 18.37649503 -32.875 17.0625 C-32.58625 16.051875 -32.2975 15.04125 -32 14 C-37.89738492 11.70657253 -42.66606918 10.65451286 -49 11 C-49 8.69 -49 6.38 -49 4 C-47.52575562 4.01571045 -47.52575562 4.01571045 -46.02172852 4.03173828 C-42.337196 4.06823769 -38.65267911 4.09100819 -34.96801758 4.10986328 C-33.38042504 4.11985321 -31.79285057 4.1334498 -30.20532227 4.15087891 C-16.68666085 4.64661784 -16.68666085 4.64661784 -3.89672852 0.93017578 C-2 0 -2 0 0 0 Z " fill="#E68E44" transform="translate(85,42)"/>
<path d="M0 0 C1.66015625 1.39453125 1.66015625 1.39453125 2.91015625 4.51953125 C2.66015625 7.39453125 2.66015625 7.39453125 1.53515625 9.14453125 C-3.18370013 12.2904355 -7.72068643 13.17905583 -13.33984375 12.39453125 C-20.37583285 10.42579662 -25.71796702 6.93877341 -31.33984375 2.39453125 C-34.24076877 0.46058124 -35.23659112 0.09321184 -38.52734375 -0.23046875 C-39.78546875 -0.35421875 -41.04359375 -0.47796875 -42.33984375 -0.60546875 C-41.24671875 -0.25484375 -40.15359375 0.09578125 -39.02734375 0.45703125 C-34.21675374 2.2428453 -30.16080079 4.94917451 -25.8828125 7.74609375 C-21.07194247 10.8646608 -17.05214708 12.71449514 -11.33984375 13.39453125 C-11.33984375 14.05453125 -11.33984375 14.71453125 -11.33984375 15.39453125 C-20.22874245 18.98483561 -31.9592299 19.07914229 -41.0703125 16.2265625 C-43.99519924 14.78450808 -46.65173465 13.2369431 -49.33984375 11.39453125 C-50.09136719 10.89566406 -50.84289062 10.39679687 -51.6171875 9.8828125 C-53.22720405 8.7701476 -54.7912328 7.59118516 -56.33984375 6.39453125 C-55.71335937 6.94882812 -55.086875 7.503125 -54.44140625 8.07421875 C-53.62414063 8.79867187 -52.806875 9.523125 -51.96484375 10.26953125 C-51.15273438 10.98882812 -50.340625 11.708125 -49.50390625 12.44921875 C-48.08189296 13.72749063 -46.69189789 15.04247711 -45.33984375 16.39453125 C-52.20325283 16.76889902 -58.70885475 16.34703976 -64.2421875 11.84765625 C-67.07139813 8.83870753 -68.25884896 7.13698352 -68.71484375 2.95703125 C-68.59109375 2.11140625 -68.46734375 1.26578125 -68.33984375 0.39453125 C-67.69660156 0.46414062 -67.05335937 0.53375 -66.390625 0.60546875 C-58.90393544 1.05402932 -53.90011627 -0.75780871 -47.28515625 -4.1953125 C-33.78618873 -10.65834602 -12.42480201 -7.46390103 0 0 Z " fill="#EDA92E" transform="translate(90.33984375,26.60546875)"/>
<path d="M0 0 C6.53694143 -0.11079562 10.33762212 1.54523866 15.5625 5.375 C24.75734007 12.07962572 30.59832692 13.45606692 42 13 C42.99 13 43.98 13 45 13 C47.15028304 12.05021103 47.15028304 12.05021103 49 11 C51.24606427 12.77444972 51.95081002 13.58352485 52.29296875 16.48046875 C52.25816406 17.37378906 52.22335938 18.26710938 52.1875 19.1875 C52.14689453 20.53908203 52.14689453 20.53908203 52.10546875 21.91796875 C52.07066406 22.60503906 52.03585938 23.29210937 52 24 C51.34 24 50.68 24 50 24 C50.99 26.97 50.99 26.97 52 30 C48.62496331 28.8141763 46.35277269 27.72426311 44 25 C46.74550929 29.91903748 49.45273218 32.218649 54.390625 34.921875 C55.18726562 35.45554687 55.18726562 35.45554687 56 36 C56 36.66 56 37.32 56 38 C55.01 38 54.02 38 53 38 C53 38.66 53 39.32 53 40 C51.35 40 49.7 40 48 40 C48.33 40.763125 48.66 41.52625 49 42.3125 C50 45 50 45 50 48 C48.02 48.33 46.04 48.66 44 49 C44.103125 47.948125 44.20625 46.89625 44.3125 45.8125 C43.91840725 41.00456846 42.40228224 40.2402688 39 37 C36.4389118 30.78021437 35.85808913 23.4257326 38 17 C37.12988281 17.41572266 37.12988281 17.41572266 36.2421875 17.83984375 C35.46101563 18.20207031 34.67984375 18.56429687 33.875 18.9375 C33.10929687 19.29714844 32.34359375 19.65679687 31.5546875 20.02734375 C18.8813462 24.85251498 2.28811845 21.74862639 -11 21 C-10.67 23.64 -10.34 26.28 -10 29 C-10.66 29 -11.32 29 -12 29 C-12.33 27.35 -12.66 25.7 -13 24 C-13.33 28.95 -13.66 33.9 -14 39 C-14.66 38.67 -15.32 38.34 -16 38 C-16.20819915 35.94114178 -16.40481309 33.8801894 -16.53125 31.81469727 C-16.81076802 24.32172918 -16.81076802 24.32172918 -19.61328125 17.578125 C-21.34740965 16.18507776 -23.08787205 15.1229242 -25 14 C-27.56687367 10.1496895 -26.83288724 8.41430237 -26 4 C-25.773125 4.53625 -25.54625 5.0725 -25.3125 5.625 C-21.90815107 11.78525045 -19.037096 14.48219194 -12.37890625 16.5546875 C-9.42044419 17.18399618 -9.42044419 17.18399618 -4 17 C-7.3 14.03 -10.6 11.06 -14 8 C-9.94515298 8 -8.54505696 9.77248406 -5.5234375 12.296875 C1.57016938 17.0845106 7.69016153 18.6019627 16.1875 18.3125 C17.48204102 18.29799805 17.48204102 18.29799805 18.80273438 18.28320312 C23.2944594 18.20415976 27.58212298 17.88935986 32 17 C32 16.34 32 15.68 32 15 C30.824375 15.04125 29.64875 15.0825 28.4375 15.125 C22.47476031 14.52117826 18.29263588 11.20972624 13.58178711 7.77001953 C9.21251475 4.61698431 5.11999086 2.70854943 0 1 C0 0.67 0 0.34 0 0 Z " fill="#19150E" transform="translate(47,25)"/>
<path d="M0 0 C-0.02320313 0.85722656 -0.04640625 1.71445312 -0.0703125 2.59765625 C-0.32660947 11.52744024 -0.32660947 11.52744024 2 20 C2.886875 20.825 3.77375 21.65 4.6875 22.5 C5.450625 23.325 6.21375 24.15 7 25 C6.8125 28.8125 6.8125 28.8125 6 32 C7.32 31.01 8.64 30.02 10 29 C10 29.66 10 30.32 10 31 C10.66 31 11.32 31 12 31 C11.505 29.8553125 11.505 29.8553125 11 28.6875 C10 26 10 26 10 23 C11.65 23 13.3 23 15 23 C14.34894614 33.30461116 14.34894614 33.30461116 11 37 C7.875 37.875 7.875 37.875 5 38 C4.67 37.67 4.34 37.34 4 37 C3.731875 38.0621875 3.46375 39.124375 3.1875 40.21875 C0.87499021 48.79460283 -1.20291861 55.90042618 -9 61 C-15.5367477 64.56309935 -21.53332156 67.01243098 -29 66 C-33.67466852 64.44177716 -36.77662597 62.73911387 -40 59 C-39.175 59.33 -38.35 59.66 -37.5 60 C-30.52221139 61.99365389 -24.38035819 61.43775397 -18 58 C-16.24140367 56.65857065 -16.24140367 56.65857065 -15 55 C-15 54.01 -15 53.02 -15 52 C-14.195625 51.731875 -13.39125 51.46375 -12.5625 51.1875 C-11.716875 50.795625 -10.87125 50.40375 -10 50 C-8.50489608 45.51468823 -8.68010423 40.85767388 -8.5703125 36.16015625 C-8.38910351 31.80359022 -8.12045486 29.93853602 -5 27 C-3.50915168 22.52745503 -3.50915168 18.47254497 -5 14 C-5.12960792 10.99828061 -5.04352969 8.00354886 -5 5 C-6.27875 5.32484375 -7.5575 5.6496875 -8.875 5.984375 C-13.96102971 7.11062415 -18.80694944 7.29793585 -24 7.25 C-24.83789062 7.25773437 -25.67578125 7.26546875 -26.5390625 7.2734375 C-32.30052877 7.25560014 -37.41577262 6.41857389 -43 5 C-43 4.67 -43 4.34 -43 4 C-42.19892822 4.01047363 -41.39785645 4.02094727 -40.57250977 4.03173828 C-36.90253911 4.07360812 -33.23261894 4.09942426 -29.5625 4.125 C-27.67241211 4.15013672 -27.67241211 4.15013672 -25.74414062 4.17578125 C-14.4949536 4.30790852 -14.4949536 4.30790852 -3.88500977 0.93017578 C-2 0 -2 0 0 0 Z " fill="#D5692B" transform="translate(85,42)"/>
<path d="M0 0 C1.63671875 1.46484375 1.63671875 1.46484375 3.63671875 4.46484375 C3.76171875 7.15234375 3.76171875 7.15234375 3.63671875 9.46484375 C4.25546875 9.75359375 4.87421875 10.04234375 5.51171875 10.33984375 C7.63671875 11.46484375 7.63671875 11.46484375 9.63671875 13.46484375 C9.83203125 16.50390625 9.83203125 16.50390625 9.76171875 20.08984375 C9.74367188 21.27835938 9.725625 22.466875 9.70703125 23.69140625 C9.68382813 24.60664062 9.660625 25.521875 9.63671875 26.46484375 C9.30671875 26.46484375 8.97671875 26.46484375 8.63671875 26.46484375 C8.14171875 22.99984375 8.14171875 22.99984375 7.63671875 19.46484375 C7.30671875 19.46484375 6.97671875 19.46484375 6.63671875 19.46484375 C5.64671875 16.49484375 5.64671875 16.49484375 4.63671875 13.46484375 C0.86984011 13.46484375 -0.2751843 13.70021692 -3.36328125 15.46484375 C-3.85828125 13.97984375 -3.85828125 13.97984375 -4.36328125 12.46484375 C-3.04328125 12.13484375 -1.72328125 11.80484375 -0.36328125 11.46484375 C-0.36328125 8.82484375 -0.36328125 6.18484375 -0.36328125 3.46484375 C-1.08644531 3.17738281 -1.80960937 2.88992187 -2.5546875 2.59375 C-4.31766971 1.88512433 -6.07627691 1.16540817 -7.828125 0.4296875 C-8.64410156 0.09066406 -9.46007812 -0.24835937 -10.30078125 -0.59765625 C-11.52087891 -1.11005859 -11.52087891 -1.11005859 -12.765625 -1.6328125 C-23.92300422 -5.5085337 -40.60048262 -5.50100349 -51.36328125 -0.53515625 C-52.74272664 0.18556522 -54.11785209 0.9146223 -55.48828125 1.65234375 C-59.63256863 3.85478451 -62.71000517 3.85918918 -67.36328125 3.46484375 C-68.35328125 3.13484375 -69.34328125 2.80484375 -70.36328125 2.46484375 C-71.35328125 5.92984375 -71.35328125 5.92984375 -72.36328125 9.46484375 C-72.69328125 9.46484375 -73.02328125 9.46484375 -73.36328125 9.46484375 C-73.61328125 1.83984375 -73.61328125 1.83984375 -71.36328125 -1.53515625 C-70.86828125 -1.37015625 -70.37328125 -1.20515625 -69.86328125 -1.03515625 C-61.71776562 0.59394688 -57.5655389 -1.25190751 -50.359375 -5.06640625 C-35.14259747 -12.52599993 -13.57297379 -9.74668785 0 0 Z " fill="#0E1215" transform="translate(92.36328125,24.53515625)"/>
<path d="M0 0 C1.75032844 0.14183696 3.50025534 0.28863429 5.25 0.4375 C6.71179687 0.55931641 6.71179687 0.55931641 8.203125 0.68359375 C11 1 11 1 12.89672852 1.51147461 C15.14938434 2.0346974 17.13850882 2.1293816 19.44921875 2.1328125 C20.72249023 2.13474609 20.72249023 2.13474609 22.02148438 2.13671875 C23.34116211 2.13091797 23.34116211 2.13091797 24.6875 2.125 C25.54794922 2.12886719 26.40839844 2.13273437 27.29492188 2.13671875 C32.93869124 2.12821269 38.40148067 1.7147046 44 1 C45.17293889 7.3778552 46.29530838 13.50321562 46 20 C45.67 20 45.34 20 45 20 C44.67 18.35 44.34 16.7 44 15 C43.01 15 42.02 15 41 15 C41.33 14.67 41.66 14.34 42 14 C41.319375 13.87625 40.63875 13.7525 39.9375 13.625 C36.5722588 12.90899123 33.29986575 11.97054875 30 11 C33.6441774 8.5705484 35.71241272 8.83820425 40 9 C38.89958081 7.31318262 38.89958081 7.31318262 37 6 C33.92087324 6.19654001 31.65285896 6.64389511 28.9375 8.125 C26.32756565 9.30368003 24.69933686 8.74981579 22 8 C21.34 10.31 20.68 12.62 20 15 C19.01 15 18.02 15 17 15 C17 14.01 17 13.02 17 12 C16.67 11.01 16.34 10.02 16 9 C15.236875 8.855625 14.47375 8.71125 13.6875 8.5625 C11 8 11 8 8 7 C6.60560336 6.93334624 5.20830125 6.91461801 3.8125 6.9375 C2.554375 6.958125 1.29625 6.97875 0 7 C0 4.69 0 2.38 0 0 Z " fill="#E48B42" transform="translate(36,46)"/>
<path d="M0 0 C1.875 1.5625 1.875 1.5625 3 3 C2.67 3.66 2.34 4.32 2 5 C1.67 4.67 1.34 4.34 1 4 C-1.33297433 3.95907063 -3.66705225 3.95758277 -6 4 C-2.70450534 5.72264494 0.33118845 7.29445932 4 8 C4 8.99 4 9.98 4 11 C2.68 11 1.36 11 0 11 C0 10.34 0 9.68 0 9 C-0.60328125 9.08378906 -1.2065625 9.16757812 -1.828125 9.25390625 C-2.62734375 9.35574219 -3.4265625 9.45757812 -4.25 9.5625 C-5.03890625 9.66691406 -5.8278125 9.77132812 -6.640625 9.87890625 C-9.00532874 10.00027349 -10.7511037 9.69633257 -13 9 C-13.66 11.31 -14.32 13.62 -15 16 C-15.66 16 -16.32 16 -17 16 C-17 16.66 -17 17.32 -17 18 C-16.34 18 -15.68 18 -15 18 C-15 19.32 -15 20.64 -15 22 C-18.3 22 -21.6 22 -25 22 C-26.27865831 16.88536675 -25.22271727 13.69740249 -23 9 C-21.69481525 7.96352976 -20.36538653 6.95577057 -19 6 C-18.19053578 2.89802603 -18.19053578 2.89802603 -18 0 C-17.34 0.66 -16.68 1.32 -16 2 C-13.23578067 1.70116548 -11.08782426 1.04053427 -8.5625 -0.125 C-5.28314832 -1.24477862 -3.3124235 -0.93611968 0 0 Z " fill="#E48941" transform="translate(75,52)"/>
<path d="M0 0 C3.875 1.875 3.875 1.875 5 3 C5.07205511 4.68608966 5.08386068 6.37500659 5.0625 8.0625 C5.05347656 8.98160156 5.04445313 9.90070312 5.03515625 10.84765625 C5.02355469 11.55792969 5.01195313 12.26820312 5 13 C4.34 13 3.68 13 3 13 C3.66 14.98 4.32 16.96 5 19 C1.62496331 17.8141763 -0.64722731 16.72426311 -3 14 C-0.03147875 19.22459741 2.62704618 21.31352309 8 24 C8 24.66 8 25.32 8 26 C3.545 25.01 3.545 25.01 -1 24 C-0.67 24.99 -0.34 25.98 0 27 C-0.99 27 -1.98 27 -3 27 C-6.60757584 22.97616541 -7.17098709 19.40569644 -7.25 14.125 C-7.28867188 12.58199219 -7.28867188 12.58199219 -7.328125 11.0078125 C-6.84769402 6.60386181 -5.1945388 3.98976072 -1.8125 1.1875 C-1.214375 0.795625 -0.61625 0.40375 0 0 Z " fill="#D17E29" transform="translate(94,36)"/>
<path d="M0 0 C5.66018559 0.14150464 8.22001048 2.63326328 12.0703125 6.40625 C14.12516869 8.336432 14.12516869 8.336432 18 9 C16.02 6.36 14.04 3.72 12 1 C14.91517292 2.07401108 16.77810176 2.77810176 19 5 C19.99 5 20.98 5 22 5 C21.67 4.34 21.34 3.68 21 3 C22.093125 3.33 23.18625 3.66 24.3125 4 C27.84578884 5.13086649 27.84578884 5.13086649 31 5 C31.6875 7.8125 31.6875 7.8125 32 11 C30.07727738 13.99090185 27.34349666 15.03410097 24 16 C19.65243922 16.4243635 15.75296695 16.50197797 12 14 C13.32 14 14.64 14 16 14 C11.06304584 8.90876603 5.9119981 3.94133206 0 0 Z " fill="#D78529" transform="translate(61,23)"/>
<path d="M0 0 C0.226875 0.53625 0.45375 1.0725 0.6875 1.625 C4.09184893 7.78525045 6.962904 10.48219194 13.62109375 12.5546875 C16.57955581 13.18399618 16.57955581 13.18399618 22 13 C18.7 10.03 15.4 7.06 12 4 C15.56216738 4 16.22928478 4.7021901 18.9375 6.875 C21.53297716 8.94538063 23.98023607 10.60834145 27 12 C26.67 12.99 26.34 13.98 26 15 C23.69 15 21.38 15 19 15 C19 15.66 19 16.32 19 17 C17.68 17 16.36 17 15 17 C15.33 19.64 15.66 22.28 16 25 C15.34 25 14.68 25 14 25 C13.67 23.35 13.34 21.7 13 20 C12.67 24.95 12.34 29.9 12 35 C11.34 34.67 10.68 34.34 10 34 C9.79180085 31.94114178 9.59518691 29.8801894 9.46875 27.81469727 C9.18923198 20.32172918 9.18923198 20.32172918 6.38671875 13.578125 C4.65259035 12.18507776 2.91212795 11.1229242 1 10 C-1.56687367 6.1496895 -0.83288724 4.41430237 0 0 Z " fill="#403419" transform="translate(21,29)"/>
<path d="M0 0 C11.63856023 -0.61858489 21.41826291 1.18222553 31 8 C30.67 8.66 30.34 9.32 30 10 C27.69 9.01 25.38 8.02 23 7 C23.33 7.66 23.66 8.32 24 9 C20.65626525 8.44271087 17.96687001 7.64826111 15 6 C15.99 6.928125 15.99 6.928125 17 7.875 C19 10 19 10 19 12 C15.23047093 11.77154369 13.36910507 10.60979002 10.6875 8.125 C7.06013029 4.80124273 3.66815393 3.47415387 -1 2 C-0.67 1.34 -0.34 0.68 0 0 Z " fill="#EDA72F" transform="translate(60,20)"/>
<path d="M0 0 C1.875 1.5625 1.875 1.5625 3 3 C2.67 3.66 2.34 4.32 2 5 C1.67 4.67 1.34 4.34 1 4 C-1.33297433 3.95907063 -3.66705225 3.95758277 -6 4 C-2.70450534 5.72264494 0.33118845 7.29445932 4 8 C4 8.99 4 9.98 4 11 C2.68 11 1.36 11 0 11 C0 10.34 0 9.68 0 9 C-0.60328125 9.08378906 -1.2065625 9.16757812 -1.828125 9.25390625 C-2.62734375 9.35574219 -3.4265625 9.45757812 -4.25 9.5625 C-5.03890625 9.66691406 -5.8278125 9.77132812 -6.640625 9.87890625 C-9.01296453 10.0006654 -10.72106426 9.57947298 -13 9 C-13.99 9.495 -13.99 9.495 -15 10 C-15 8.68 -15 7.36 -15 6 C-15.99 5.67 -16.98 5.34 -18 5 C-18 3.35 -18 1.7 -18 0 C-17.34 0.66 -16.68 1.32 -16 2 C-13.23578067 1.70116548 -11.08782426 1.04053427 -8.5625 -0.125 C-5.28314832 -1.24477862 -3.3124235 -0.93611968 0 0 Z " fill="#231B11" transform="translate(75,52)"/>
<path d="M0 0 C5.62855183 0.07471529 8.65568651 0.50814837 12.75 4.375 C13.08 5.035 13.41 5.695 13.75 6.375 C12.76 6.375 11.77 6.375 10.75 6.375 C10.75 7.035 10.75 7.695 10.75 8.375 C6 9.5 6 9.5 3.75 8.375 C2.20976004 8.30549459 0.66665012 8.29047643 -0.875 8.3125 C-1.69226562 8.32152344 -2.50953125 8.33054687 -3.3515625 8.33984375 C-3.97804688 8.35144531 -4.60453125 8.36304687 -5.25 8.375 C-5.25 6.725 -5.25 5.075 -5.25 3.375 C-7.725 4.86 -7.725 4.86 -10.25 6.375 C-7.70678069 0.92524434 -6.03714425 0.06891717 0 0 Z " fill="#7F5128" transform="translate(54.25,82.625)"/>
<path d="M0 0 C6 1 6 1 8 2 C7.67 2.66 7.34 3.32 7 4 C7.28112064 6.00800456 7.61067967 8.01014051 8 10 C5.61426621 11.89213369 3.92824652 13.02391783 1 14 C-0.68538601 15.99665314 -0.68538601 15.99665314 -2 18 C-2.66 17.67 -3.32 17.34 -4 17 C-2.68 11.39 -1.36 5.78 0 0 Z " fill="#131110" transform="translate(88,78)"/>
<path d="M0 0 C0.66 0 1.32 0 2 0 C2.11214844 0.58007812 2.22429687 1.16015625 2.33984375 1.7578125 C3.65851143 6.98077077 5.0700432 9.51165866 9.6875 12.4375 C10.49574219 12.88996094 11.30398437 13.34242187 12.13671875 13.80859375 C12.75160156 14.20175781 13.36648437 14.59492187 14 15 C14 15.66 14 16.32 14 17 C9.545 16.01 9.545 16.01 5 15 C5.33 15.99 5.66 16.98 6 18 C5.01 18 4.02 18 3 18 C-0.4160927 14.18974276 -1.13961816 10.88902872 -1.125 5.875 C-1.12757812 4.98554687 -1.13015625 4.09609375 -1.1328125 3.1796875 C-1 1 -1 1 0 0 Z " fill="#EEAB39" transform="translate(88,45)"/>
<path d="M0 0 C0.66 0.99 1.32 1.98 2 3 C3.31387169 4.35251497 4.64426252 5.68945377 6 7 C5.67 5.68 5.34 4.36 5 3 C6.64767247 3.28109113 8.29313145 3.57518526 9.9375 3.875 C10.85402344 4.03742187 11.77054688 4.19984375 12.71484375 4.3671875 C13.84599609 4.68042969 13.84599609 4.68042969 15 5 C15.33 5.66 15.66 6.32 16 7 C15.01 7 14.02 7 13 7 C13 7.66 13 8.32 13 9 C11.35 9 9.7 9 8 9 C8.33 9.763125 8.66 10.52625 9 11.3125 C10 14 10 14 10 17 C8.02 17.33 6.04 17.66 4 18 C4.103125 16.948125 4.20625 15.89625 4.3125 14.8125 C3.92252741 10.05483446 2.40236315 9.14718591 -1 6 C-1 2 -1 2 0 0 Z " fill="#271B10" transform="translate(87,56)"/>
<path d="M0 0 C1.79296875 0.1953125 1.79296875 0.1953125 4 1 C5.73828125 3.1796875 5.73828125 3.1796875 7.3125 5.875 C7.84488281 6.75929688 8.37726563 7.64359375 8.92578125 8.5546875 C10 11 10 11 9 14 C8.50628906 13.01 8.01257813 12.02 7.50390625 11 C5.24003428 7.58722432 5.24003428 7.58722432 1.21484375 7.5625 C-0.21384545 7.67637143 -1.64021007 7.82333392 -3.0625 8 C-3.78244141 8.05800781 -4.50238281 8.11601563 -5.24414062 8.17578125 C-8.87319036 8.51947955 -10.92291421 8.94860947 -14 11 C-13.34 8.03 -12.68 5.06 -12 2 C-11.01 2 -10.02 2 -9 2 C-8.67 2.99 -8.34 3.98 -8 5 C-4.7 5.33 -1.4 5.66 2 6 C2 4.68 2 3.36 2 2 C1.34 2 0.68 2 0 2 C0 1.34 0 0.68 0 0 Z " fill="#2C2012" transform="translate(58,68)"/>
<path d="M0 0 C0.33 0 0.66 0 1 0 C1.042721 1.66611905 1.04063832 3.33382885 1 5 C0.67 5.33 0.34 5.66 0 6 C-0.2475 7.258125 -0.495 8.51625 -0.75 9.8125 C-2.0188569 15.86397137 -4.50324107 21.36799799 -7 27 C-9 26 -9 26 -9.7734375 24.234375 C-10.07850653 21.22576317 -9.12395347 19.85039443 -7.625 17.25 C-5.17375095 12.67342976 -4.28660157 9.15882822 -4 4 C-3.01 4 -2.02 4 -1 4 C-0.67 2.68 -0.34 1.36 0 0 Z " fill="#060D13" transform="translate(104,59)"/>
<path d="M0 0 C0 0.33 0 0.66 0 1 C-4.62 1.33 -9.24 1.66 -14 2 C-7.07 2.495 -7.07 2.495 0 3 C0 3.33 0 3.66 0 4 C-1.93552734 4.09087891 -1.93552734 4.09087891 -3.91015625 4.18359375 C-5.62761255 4.26805881 -7.34506002 4.35270377 -9.0625 4.4375 C-9.91005859 4.47681641 -10.75761719 4.51613281 -11.63085938 4.55664062 C-16.48000209 4.80003389 -21.20628212 5.22598042 -26 6 C-26 5.34 -26 4.68 -26 4 C-26.66 3.67 -27.32 3.34 -28 3 C-18.41076859 0.28332061 -9.88140184 -0.36901501 0 0 Z " fill="#161D23" transform="translate(70,16)"/>
<path d="M0 0 C2.375 0.25 2.375 0.25 4 1 C-1.05804429 5.57632579 -5.13434268 8.02992375 -12.125 8.25 C-15.49918372 8.03231073 -17.24820096 7.83453269 -20 6 C-20 5.34 -20 4.68 -20 4 C-19.05898438 4.04640625 -18.11796875 4.0928125 -17.1484375 4.140625 C-7.77736777 4.46432445 -7.77736777 4.46432445 0 0 Z " fill="#231910" transform="translate(67,96)"/>
<path d="M0 0 C0.99 0.33 1.98 0.66 3 1 C3.74926071 4.66305234 4.2380014 7.42355152 3 11 C2.34 11 1.68 11 1 11 C1 11.66 1 12.32 1 13 C1.66 13 2.32 13 3 13 C3 14.32 3 15.64 3 17 C1.35 17 -0.3 17 -2 17 C-1.85978195 14.35375716 -1.71310224 11.70815422 -1.5625 9.0625 C-1.52318359 8.30775391 -1.48386719 7.55300781 -1.44335938 6.77539062 C-1.11328125 1.11328125 -1.11328125 1.11328125 0 0 Z " fill="#CE662A" transform="translate(57,57)"/>
<path d="M0 0 C7.33290794 -0.12428658 11.51241678 2.37541816 17.24169922 6.61865234 C21.39441745 9.67447254 25.07758568 11.55223108 30 13 C28.2265625 14.08984375 28.2265625 14.08984375 26 15 C21.14256845 13.07377714 17.22260054 10.49076501 13 7.4375 C8.7842209 4.39639619 4.9465014 2.55723192 0 1 C0 0.67 0 0.34 0 0 Z " fill="#382C15" transform="translate(47,25)"/>
<path d="M0 0 C10.56 0 21.12 0 32 0 C29 3 29 3 26.96630859 3.37231445 C26.20141113 3.3693335 25.43651367 3.36635254 24.6484375 3.36328125 C23.79636719 3.36263672 22.94429687 3.36199219 22.06640625 3.36132812 C20.73416016 3.3371582 20.73416016 3.3371582 19.375 3.3125 C18.51003906 3.31572266 17.64507812 3.31894531 16.75390625 3.32226562 C10.90005085 3.27399545 5.67190335 2.44386181 0 1 C0 0.67 0 0.34 0 0 Z " fill="#C56329" transform="translate(42,46)"/>
<path d="M0 0 C0.61875 0.721875 1.2375 1.44375 1.875 2.1875 C7.23152933 7.54402933 14.75694639 10.26796544 22 12 C22 12.33 22 12.66 22 13 C14.34802276 13.41738058 8.1063103 12.40897534 1.9375 7.625 C-0.19455238 4.73641291 -0.49990235 3.49931647 0 0 Z " fill="#E9AE40" transform="translate(23,30)"/>
<path d="M0 0 C1.79702595 0.48381468 3.59397946 0.96789956 5.390625 1.453125 C10.52077248 2.52830561 15.77655373 2.69742232 21 3 C21 3.33 21 3.66 21 4 C17.30584744 4.87562914 14.04880677 5.06117252 10.26171875 4.87890625 C8.66166992 4.80639648 8.66166992 4.80639648 7.02929688 4.73242188 C5.37510742 4.64831055 5.37510742 4.64831055 3.6875 4.5625 C2.00430664 4.48418945 2.00430664 4.48418945 0.28710938 4.40429688 C-2.47556709 4.2749801 -5.23784918 4.14002857 -8 4 C-8 3.34 -8 2.68 -8 2 C-6.865625 1.855625 -5.73125 1.71125 -4.5625 1.5625 C-1.19222799 1.38828522 -1.19222799 1.38828522 0 0 Z " fill="#0A0C0B" transform="translate(48,42)"/>
<path d="M0 0 C5.75 0.875 5.75 0.875 8 2 C6.52307692 7.66153846 6.52307692 7.66153846 3.875 9.375 C3.25625 9.58125 2.6375 9.7875 2 10 C1.67 9.34 1.34 8.68 1 8 C0.01 8.495 0.01 8.495 -1 9 C-0.67 6.03 -0.34 3.06 0 0 Z " fill="#532E17" transform="translate(88,78)"/>
<path d="M0 0 C0.7425 1.0828125 0.7425 1.0828125 1.5 2.1875 C4.21657189 5.24364338 6.85890394 6.90818159 10.390625 8.88671875 C10.92171875 9.25410156 11.4528125 9.62148438 12 10 C12 10.66 12 11.32 12 12 C8.37 11.34 4.74 10.68 1 10 C0.67 6.7 0.34 3.4 0 0 Z " fill="#D58129" transform="translate(90,50)"/>
<path d="M0 0 C0.33 0 0.66 0 1 0 C2.0712828 6.02596573 2.09945415 11.88909517 2 18 C1.34 18 0.68 18 0 18 C-0.33 18.66 -0.66 19.32 -1 20 C-1.02888514 16.85418577 -1.04675923 13.70840531 -1.0625 10.5625 C-1.07087891 9.66466797 -1.07925781 8.76683594 -1.08789062 7.84179688 C-1.09111328 6.98779297 -1.09433594 6.13378906 -1.09765625 5.25390625 C-1.10551147 4.06776733 -1.10551147 4.06776733 -1.11352539 2.85766602 C-1 1 -1 1 0 0 Z " fill="#060C12" transform="translate(29,44)"/>
<path d="M0 0 C5.19474749 0.43416511 7.56824585 1.94890565 11.375 5.4375 C15.94191549 9.37341896 19.04904868 11.2140253 25 12 C25 12.33 25 12.66 25 13 C18.08118305 13.56480138 14.03832971 11.52164518 8.88671875 7.24609375 C7.51034893 6.04082657 6.14594491 4.82168554 4.796875 3.5859375 C2.88181701 1.82392097 2.88181701 1.82392097 0 0 Z " fill="#342614" transform="translate(61,23)"/>
<path d="M0 0 C6.27 0 12.54 0 19 0 C19.33 0.99 19.66 1.98 20 3 C13.07 2.67 6.14 2.34 -1 2 C-0.67 1.34 -0.34 0.68 0 0 Z " fill="#040A0F" transform="translate(56,17)"/>
<path d="M0 0 C1.79296875 0.1953125 1.79296875 0.1953125 4 1 C5.73828125 3.1796875 5.73828125 3.1796875 7.3125 5.875 C7.84488281 6.75929688 8.37726563 7.64359375 8.92578125 8.5546875 C10 11 10 11 9 14 C8.401875 13.030625 7.80375 12.06125 7.1875 11.0625 C5.28872491 7.76947958 5.28872491 7.76947958 2 7 C2 5.35 2 3.7 2 2 C1.34 2 0.68 2 0 2 C0 1.34 0 0.68 0 0 Z " fill="#2E2013" transform="translate(58,68)"/>
<path d="M0 0 C4.95998472 0.61632946 8.93671966 2.79835629 13.3125 5.0625 C14.05306641 5.43955078 14.79363281 5.81660156 15.55664062 6.20507812 C17.37387522 7.13128157 19.18732404 8.06490629 21 9 C16.43284252 10.46189367 13.16290893 9.04149635 9 7 C5.89323428 5.14557395 2.86394152 3.21425108 0 1 C0 0.67 0 0.34 0 0 Z " fill="#3A2D15" transform="translate(40,31)"/>
<path d="M0 0 C3.06788096 1.44988895 5.82126323 3.15427113 8.625 5.0625 C11.72717946 7.17726651 11.72717946 7.17726651 15 9 C14.67 9.99 14.34 10.98 14 12 C10.31597871 10.7719929 8.09779717 8.58763092 5.3125 6 C4.80138672 5.5359375 4.29027344 5.071875 3.76367188 4.59375 C2.48619129 3.42030989 1.24017374 2.21280148 0 1 C0 0.67 0 0.34 0 0 Z " fill="#362B14" transform="translate(33,32)"/>
<path d="M0 0 C0.33 0 0.66 0 1 0 C1 2.64 1 5.28 1 8 C1.99 7.67 2.98 7.34 4 7 C3.690625 7.53625 3.38125 8.0725 3.0625 8.625 C1.82172561 11.3984957 1.4090325 14.00042837 1 17 C-1.24666134 13.63000798 -1.2457371 12.43894538 -1.1875 8.5 C-1.18105469 7.5409375 -1.17460938 6.581875 -1.16796875 5.59375 C-1 3 -1 3 0 0 Z " fill="#05090A" transform="translate(34,46)"/>
<path d="M0 0 C4.29 0 8.58 0 13 0 C13 0.66 13 1.32 13 2 C11.1746875 2.2165625 11.1746875 2.2165625 9.3125 2.4375 C6.86165638 2.73194764 4.59180816 3.09978023 2.1875 3.6875 C0 4 0 4 -3 2 C-2.01 2 -1.02 2 0 2 C0 1.34 0 0.68 0 0 Z " fill="#BF8C2A" transform="translate(53,40)"/>
<path d="M0 0 C2.97 0 5.94 0 9 0 C9.66 1.32 10.32 2.64 11 4 C7.04 4 3.08 4 -1 4 C-0.67 2.68 -0.34 1.36 0 0 Z " fill="#2C1E11" transform="translate(50,87)"/>
<path d="M0 0 C3.625 0.125 3.625 0.125 6.625 1.125 C6.625 1.785 6.625 2.445 6.625 3.125 C5.34625 3.24875 4.0675 3.3725 2.75 3.5 C-0.72290936 3.81542399 -0.72290936 3.81542399 -3.375 6.125 C-3.75718767 4.46885343 -4.08895102 2.80042976 -4.375 1.125 C-3.375 0.125 -3.375 0.125 0 0 Z " fill="#CF803C" transform="translate(40.375,54.875)"/>
<path d="M0 0 C2.31 0.33 4.62 0.66 7 1 C7 1.66 7 2.32 7 3 C2.82262526 4.59138085 -0.53160785 5.21278058 -5 5 C-3.625 3.5 -3.625 3.5 -2 2 C-1.34 2 -0.68 2 0 2 C0 1.34 0 0.68 0 0 Z " fill="#C47A29" transform="translate(72,39)"/>
<path d="M0 0 C7.75 1.875 7.75 1.875 10 3 C11.32860925 3.35169068 12.66158328 3.68770276 14 4 C14 4.99 14 5.98 14 7 C12.68 7 11.36 7 10 7 C10 6.34 10 5.68 10 5 C8.35 5 6.7 5 5 5 C5 4.01 5 3.02 5 2 C3.35 2 1.7 2 0 2 C0 1.34 0 0.68 0 0 Z " fill="#7A4E24" transform="translate(65,56)"/>
<path d="M0 0 C2.475 0.99 2.475 0.99 5 2 C4.67 2.66 4.34 3.32 4 4 C4.66 4.66 5.32 5.32 6 6 C4.02 6 2.04 6 0 6 C-0.66 4.68 -1.32 3.36 -2 2 C-1.34 1.34 -0.68 0.68 0 0 Z " fill="#BC7437" transform="translate(40,60)"/>
<path d="M0 0 C4.455 0.99 4.455 0.99 9 2 C8.67 2.66 8.34 3.32 8 4 C-0.57142857 4.28571429 -0.57142857 4.28571429 -4 2 C-2.68 2 -1.36 2 0 2 C0 1.34 0 0.68 0 0 Z " fill="#D5822A" transform="translate(77,35)"/>
<path d="M0 0 C5.43453678 1.75823249 8.99890517 4.99890517 13 9 C8.428755 8.88850622 6.27065025 7.63283701 3.125 4.5 C0 1.1991342 0 1.1991342 0 0 Z " fill="#463218" transform="translate(73,24)"/>
<path d="M0 0 C3.3 0.99 6.6 1.98 10 3 C9.67 3.99 9.34 4.98 9 6 C5.06326356 4.68775452 2.77280706 3.08089673 0 0 Z " fill="#B95D26" transform="translate(45,101)"/>
<path d="M0 0 C5.62917348 0.40208382 8.00386479 2.28930302 12 6 C11.34 6.66 10.68 7.32 10 8 C9.52949219 7.59007812 9.05898437 7.18015625 8.57421875 6.7578125 C7.95160156 6.21898437 7.32898438 5.68015625 6.6875 5.125 C6.07261719 4.59132813 5.45773438 4.05765625 4.82421875 3.5078125 C2.86501788 1.8359553 2.86501788 1.8359553 0 0 Z " fill="#513F1A" transform="translate(61,23)"/>
<path d="M0 0 C2.97 0.33 5.94 0.66 9 1 C8.01 1.33 7.02 1.66 6 2 C6 2.66 6 3.32 6 4 C4.35 4.33 2.7 4.66 1 5 C0.67 3.35 0.34 1.7 0 0 Z " fill="#CD6E2F" transform="translate(59,87)"/>
<path d="M0 0 C0.33 0.66 0.66 1.32 1 2 C1.99 2 2.98 2 4 2 C4 3.32 4 4.64 4 6 C2.35 6 0.7 6 -1 6 C-1.042721 4.33388095 -1.04063832 2.66617115 -1 1 C-0.67 0.67 -0.34 0.34 0 0 Z " fill="#C06128" transform="translate(56,68)"/>
<path d="M0 0 C1.54571278 2.31856917 2.79618552 4.50638429 4 7 C2.68 7.33 1.36 7.66 0 8 C-1.125 5.6875 -1.125 5.6875 -2 3 C-1.34 2.01 -0.68 1.02 0 0 Z " fill="#312413" transform="translate(87,56)"/>
<path d="M0 0 C0.33 0.66 0.66 1.32 1 2 C-2.3 2.33 -5.6 2.66 -9 3 C-9 2.34 -9 1.68 -9 1 C-5.8035914 -0.06546953 -3.34252724 -0.07427838 0 0 Z " fill="#0D0D0C" transform="translate(60,74)"/>
<path d="M0 0 C0.75 1.75 0.75 1.75 1 4 C-0.9375 6.25 -0.9375 6.25 -3 8 C-4 6 -4 6 -3.1875 3.4375 C-2 1 -2 1 0 0 Z " fill="#14110E" transform="translate(101,70)"/>
<path d="M0 0 C0.66 0 1.32 0 2 0 C2 1.98 2 3.96 2 6 C1.34 6 0.68 6 0 6 C-0.33 6.66 -0.66 7.32 -1 8 C-1.04241723 5.66705225 -1.04092937 3.33297433 -1 1 C-0.67 0.67 -0.34 0.34 0 0 Z " fill="#151715" transform="translate(29,56)"/>
<path d="M0 0 C1.11375 0.3403125 1.11375 0.3403125 2.25 0.6875 C2.25 1.6775 2.25 2.6675 2.25 3.6875 C-0.72 3.3575 -3.69 3.0275 -6.75 2.6875 C-4.29511132 0.41445492 -3.41240272 -0.38777304 0 0 Z " fill="#1F1D15" transform="translate(77.75,18.3125)"/>
<path d="M0 0 C-0.33 0.99 -0.66 1.98 -1 3 C-4.3 2.67 -7.6 2.34 -11 2 C-11 1.67 -11 1.34 -11 1 C-3.375 0 -3.375 0 0 0 Z " fill="#17130E" transform="translate(64,100)"/>
<path d="M0 0 C0.33 0.66 0.66 1.32 1 2 C-2.625 6.875 -2.625 6.875 -6 8 C-4.55746343 4.63408134 -2.66735273 2.48952921 0 0 Z " fill="#050E17" transform="translate(83,97)"/>
<path d="M0 0 C1.65 0 3.3 0 5 0 C4.67 1.32 4.34 2.64 4 4 C2.68 3.67 1.36 3.34 0 3 C0 2.01 0 1.02 0 0 Z " fill="#0A0C0B" transform="translate(65,58)"/>
</svg>
