<?xml version="1.0" encoding="UTF-8"?>
<svg version="1.1" xmlns="http://www.w3.org/2000/svg" width="256" height="256">
<path d="M0 0 C0.79153473 0.00304138 1.58306946 0.00608276 2.39859009 0.00921631 C14.10329635 0.0757178 25.00941466 0.71336102 36.1875 4.4375 C37.62499597 4.87761732 39.0624961 5.31772107 40.5 5.7578125 C54.71174408 10.29317269 67.51806287 17.10519631 79.1875 26.4375 C79.7326123 26.87046387 80.27772461 27.30342773 80.83935547 27.74951172 C106.63076599 48.41861142 123.45799386 77.59289135 128.1875 110.4375 C128.31272429 113.05529212 128.39739084 115.64727887 128.42578125 118.265625 C128.44054001 119.37880852 128.44054001 119.37880852 128.45559692 120.51448059 C128.77601237 150.92397106 128.77601237 150.92397106 124.1875 164.4375 C123.94612305 165.19691895 123.70474609 165.95633789 123.45605469 166.73876953 C112.50797868 200.88437264 89.19513386 227.45697611 57.50390625 243.9543457 C49.32909297 248.03767147 40.9888219 251.02360043 32.1875 253.4375 C31.01316406 253.77652344 29.83882812 254.11554688 28.62890625 254.46484375 C-4.41688969 262.31910193 -40.21639395 254.99279199 -68.8125 237.4375 C-83.87245222 227.64623264 -97.04804484 215.1789563 -107.0625 200.25 C-107.76890625 199.20457031 -108.4753125 198.15914062 -109.203125 197.08203125 C-110.8125 194.4375 -110.8125 194.4375 -110.8125 192.4375 C-111.4725 192.1075 -112.1325 191.7775 -112.8125 191.4375 C-114.17314 188.76728155 -115.42425169 186.11664321 -116.625 183.375 C-116.98029785 182.56732178 -117.3355957 181.75964355 -117.70166016 180.92749023 C-125.07249895 163.81195421 -128.23924801 147.54570219 -128.1875 128.9375 C-128.1862915 128.13658936 -128.18508301 127.33567871 -128.18383789 126.51049805 C-128.05070787 94.03002114 -116.69984741 67.18932728 -95.9375 42.25 C-95.46094971 41.67266113 -94.98439941 41.09532227 -94.4934082 40.50048828 C-93.31210093 39.10615144 -92.06722479 37.76615639 -90.8125 36.4375 C-90.1525 36.4375 -89.4925 36.4375 -88.8125 36.4375 C-88.8125 35.7775 -88.8125 35.1175 -88.8125 34.4375 C-64.94644306 11.41494195 -32.79410354 -0.26795313 0 0 Z " fill="#003383" transform="translate(127.8125,-0.4375)"/>
<path d="M0 0 C2.27734375 2.1328125 2.27734375 2.1328125 3.9375 4.125 C4.50339844 4.78757812 5.06929687 5.45015625 5.65234375 6.1328125 C8.39636973 9.93468038 8.08543771 13.47180156 8 18 C9.11375 18.37125 9.11375 18.37125 10.25 18.75 C14.64747985 20.74885448 17.17674683 23.56929874 19 28 C19.28710938 30.55859375 19.28710938 30.55859375 19.34375 33.4375 C19.37339844 34.49839844 19.40304688 35.55929688 19.43359375 36.65234375 C19.45550781 37.75707031 19.47742188 38.86179688 19.5 40 C18.90584591 54.14636661 18.90584591 54.14636661 23.50976562 66.6484375 C24.00154297 67.09445313 24.49332031 67.54046875 25 68 C25.87109162 70.61327485 26.18879799 72.30711171 26.25 75 C26.27578125 75.680625 26.3015625 76.36125 26.328125 77.0625 C26 79 26 79 24.5078125 80.4453125 C22.43954814 82.57787523 22.66849102 83.9437054 22.625 86.875 C22.12250031 94.58683202 19.79202398 102.53457506 14.89453125 108.61328125 C12.96049711 111.0497655 12.44059576 112.2999265 12 115.3125 C10.8742917 121.18576068 8.88889646 125.94919813 4.8125 130.375 C1.52931715 132.27195009 -1.27067304 132.72736425 -5.01171875 133.1171875 C-5.66785156 133.40851563 -6.32398438 133.69984375 -7 134 C-7.74304036 135.97290027 -8.39839672 137.97947583 -9 140 C-18.68236806 155.46257485 -33.29748877 167.1449369 -50.87890625 172.375 C-64.73117864 175.14892188 -78.89538741 172.40233135 -90.734375 164.71875 C-94.50945187 161.85489858 -98.02066144 158.69504558 -101 155 C-101 154.34 -101 153.68 -101 153 C-101.804375 152.6596875 -101.804375 152.6596875 -102.625 152.3125 C-110.69843273 147.85086612 -114.11143905 141.93471921 -116.86889648 133.26953125 C-119.51369429 122.87232548 -119.42387912 112.69539848 -119.36035156 102.04394531 C-119.35178753 99.6640968 -119.37340628 97.285948 -119.3984375 94.90625 C-119.38509369 94.18538208 -119.37174988 93.46451416 -119.35800171 92.72180176 C-119.41609124 88.76513517 -119.83943861 87.18727101 -122.45239258 84.13964844 C-123.29310303 83.43356445 -124.13381348 82.72748047 -125 82 C-128.60869884 76.33361902 -129.8586729 70.65823413 -129 64 C-128.67 63.34 -128.34 62.68 -128 62 C-127.72276712 57.93816813 -127.81998407 53.88138644 -127.875 49.8125 C-127.85179688 48.68779297 -127.82859375 47.56308594 -127.8046875 46.40429688 C-127.8493475 40.06718121 -127.8493475 40.06718121 -130.95825195 34.78540039 C-133.29945097 32.94257235 -133.29945097 32.94257235 -135.73510742 31.48974609 C-140.38645028 28.43029863 -143.89595633 23.12742173 -146 18 C-147.18833428 9.46901072 -145.48742434 3.24398501 -141 -4 C-139 -4 -139 -4 -137.5 -2.5625 C-137.005 -2.046875 -136.51 -1.53125 -136 -1 C-130.68992246 1.65503877 -122.70754672 0.54072313 -117.25 -1.1875 C-115.47509889 -2.1773487 -113.70136913 -3.16935588 -111.93359375 -4.171875 C-79.86764991 -22.24033727 -30.58680831 -22.16014045 0 0 Z " fill="#0E0E0E" transform="translate(184,49)"/>
<path d="M0 0 C-0.15984375 0.79019531 -0.3196875 1.58039063 -0.484375 2.39453125 C-2.46457129 16.24090376 -2.41063866 31.43329558 5.66796875 43.34375 C8.01828378 46.26613585 10.66299899 48.33149949 14 50 C14.35050464 55.841744 14.16727335 59.8531808 11 65 C15.03384128 62.92856799 16.92856799 61.03384128 19 57 C21 60 21 60 21 62 C21.66 62 22.32 62 23 62 C22.54359687 57.2534075 21.83954308 54.74303406 19 51 C19.24796367 48.83031791 19.44233607 47.55766393 21 46 C22.51928038 45.92820036 24.04167482 45.91607993 25.5625 45.9375 C26.38878906 45.94652344 27.21507812 45.95554688 28.06640625 45.96484375 C28.70449219 45.97644531 29.34257812 45.98804688 30 46 C30.94918502 55.34419917 28.50988284 64.11098834 23.01171875 71.76953125 C20.55131066 74.49747886 18.44292589 75.73525171 15 77 C11.56604793 76.7658669 10.44988842 76.44988842 8 74 C8 73.01 8 72.02 8 71 C7.34 71 6.68 71 6 71 C6.03609375 71.98226562 6.0721875 72.96453125 6.109375 73.9765625 C6.10505569 78.27211676 5.26838725 82.2173254 4.25 86.375 C4.06735596 87.12523437 3.88471191 87.87546875 3.6965332 88.6484375 C0.15946062 102.66893683 -7.3984947 114.4232901 -19.91894531 122.19042969 C-22.09200508 123.46063367 -24.28542503 124.67871467 -26.5 125.875 C-27.1997998 126.2565625 -27.89959961 126.638125 -28.62060547 127.03125 C-38.27140578 132.02621856 -49.27609402 133.79341352 -59.9609375 131.3125 C-67.53646813 128.76610315 -74.47042114 124.82333774 -80 119 C-79.67 118.34 -79.34 117.68 -79 117 C-78.34773438 117.34933594 -77.69546875 117.69867188 -77.0234375 118.05859375 C-70.34247843 121.57181183 -70.34247843 121.57181183 -63 123 C-62.35933594 123.05027344 -61.71867187 123.10054688 -61.05859375 123.15234375 C-49.06390313 123.68877893 -40.01438266 119.72449566 -31 112 C-29.64966919 110.68388365 -28.31038942 109.35588905 -27 108 C-33.43618407 109.02161652 -37.62092866 110.68216938 -42.859375 114.5625 C-49.97403575 119.34022839 -58.7370794 118.85041131 -67 118 C-72.6819441 116.46769729 -76.61956088 112.76921505 -81 109 C-82.485 108.505 -82.485 108.505 -84 108 C-83.67 109.32 -83.34 110.64 -83 112 C-85.77815847 111.91828946 -87.50735135 111.45693162 -89.5625 109.55078125 C-91.12332387 107.75193174 -92.57652507 105.90893748 -94 104 C-94.5775 103.2575 -95.155 102.515 -95.75 101.75 C-99.6321901 93.20918178 -99.33080943 83.32238411 -99.37109375 74.125 C-99.38012222 72.83811279 -99.3891507 71.55122559 -99.39845276 70.2253418 C-99.41479204 67.52601626 -99.42261766 64.82681275 -99.42553711 62.12744141 C-99.43097271 58.669271 -99.46892406 55.21224011 -99.51428127 51.75439453 C-99.55109149 48.44043278 -99.55255373 45.12665939 -99.55859375 41.8125 C-99.57812607 40.57193848 -99.59765839 39.33137695 -99.61778259 38.05322266 C-99.61170486 36.90772949 -99.60562714 35.76223633 -99.59936523 34.58203125 C-99.60443588 33.57374268 -99.60950653 32.5654541 -99.61473083 31.52661133 C-99 29 -99 29 -96.64393616 27.17602539 C-91.56211541 24.91562655 -85.17684368 24.97824251 -79.88671875 26.6796875 C-78.25 27.5 -78.25 27.5 -76 29 C-76 29.66 -76 30.32 -76 31 C-77.06927734 31.05607422 -77.06927734 31.05607422 -78.16015625 31.11328125 C-84.0993423 31.52095082 -88.69121747 32.28662226 -94 35 C-93.67 35.99 -93.34 36.98 -93 38 C-92.34 38 -91.68 38 -91 38 C-90.67 37.34 -90.34 36.68 -90 36 C-89.01 36 -88.02 36 -87 36 C-86.34 36.99 -85.68 37.98 -85 39 C-82.04253508 39.58345476 -82.04253508 39.58345476 -79 39 C-77.08743288 37.11922127 -77.08743288 37.11922127 -76 35 C-74.68 35.33 -73.36 35.66 -72 36 C-71.72981258 43.46017494 -71.73570415 49.60355623 -76 56 C-76.29861649 57.30229968 -76.54351249 58.61745486 -76.75 59.9375 C-77.81415444 65.2495496 -80.19852077 69.6594619 -82.7578125 74.3984375 C-84.21544003 76.97071997 -84.21544003 76.97071997 -84 80 C-83.62875 79.154375 -83.2575 78.30875 -82.875 77.4375 C-80.7017243 73.45316122 -78.04761595 70.33363816 -75 67 C-74.360625 67.33 -73.72125 67.66 -73.0625 68 C-67.04420927 69.96515616 -61.13868821 69.06759795 -55 68 C-52.66666667 68 -50.33333333 68 -48 68 C-47.01 67.67 -46.02 67.34 -45 67 C-40.45924219 71.14010271 -37.28157862 75.82390176 -34 81 C-35.95813032 74.45726517 -38.50825537 68.50617718 -41.75 62.5 C-42.15476563 61.69046875 -42.55953125 60.8809375 -42.9765625 60.046875 C-44.18341515 57.8130732 -45.30321242 55.88986247 -47 54 C-50.59184183 52.81526065 -50.59184183 52.81526065 -54 53 C-54.66 53 -55.32 53 -56 53 C-56 53.66 -56 54.32 -56 55 C-54.02 55.66 -52.04 56.32 -50 57 C-49.505 59.97 -49.505 59.97 -49 63 C-50.28197266 63.09087891 -50.28197266 63.09087891 -51.58984375 63.18359375 C-52.69457031 63.26738281 -53.79929688 63.35117188 -54.9375 63.4375 C-56.03964844 63.51871094 -57.14179687 63.59992188 -58.27734375 63.68359375 C-60.91109903 63.70418084 -60.91109903 63.70418084 -62 65 C-65.62516277 65.40279586 -67.39766602 65.41700045 -70.4375 63.3125 C-72 61 -72 61 -71.875 58.4375 C-71 56 -71 56 -69 53 C-68.30984099 49.45164318 -67.74812747 45.91231005 -67.23242188 42.3359375 C-66.51772058 37.81870944 -65.38039095 34.94714545 -63 31 C-62.84872584 28.32164765 -62.84872584 28.32164765 -63.3125 25.6875 C-63.43238281 24.80449219 -63.55226562 23.92148438 -63.67578125 23.01171875 C-63.78277344 22.34785156 -63.88976562 21.68398437 -64 21 C-65.93798263 23.77260299 -65.93798263 23.77260299 -67 26 C-71.30224596 25.65116925 -74.50235171 24.33187148 -78.3125 22.4375 C-83.30344204 20.09162125 -87.51272126 18.90254425 -93 20 C-95.40083438 21.35885116 -95.40083438 21.35885116 -97 23 C-97.66 23 -98.32 23 -99 23 C-99.05525226 21.64631959 -99.09334369 20.29193765 -99.125 18.9375 C-99.15980469 17.80634766 -99.15980469 17.80634766 -99.1953125 16.65234375 C-98.94610672 13.26812921 -97.96163957 10.24594947 -97 7 C-92.07022981 7.11825365 -87.14066104 7.24250242 -82.21118164 7.37231445 C-80.53414013 7.41563167 -78.85705542 7.45730907 -77.17993164 7.49731445 C-74.76956159 7.55509485 -72.3594083 7.6187668 -69.94921875 7.68359375 C-69.19912033 7.70030624 -68.44902191 7.71701874 -67.67619324 7.73423767 C-64.54322008 7.82344233 -61.9929064 8.00236453 -59 9 C-40.23493323 10.13125174 -22.59762501 9.89132323 -5.609375 1.20703125 C-3 0 -3 0 0 0 Z " fill="#E88E44" transform="translate(170,84)"/>
<path d="M0 0 C3.56016415 3.1464831 4.95738671 5.67788134 5.90625 10.3359375 C5.01761871 15.02144794 3.23521774 16.57979127 -0.453125 19.44921875 C-8.88293141 24.92293533 -18.19878107 24.94095769 -27.9296875 23.4921875 C-38.70494284 21.16539714 -46.32333655 15.37867865 -54.80419922 8.65429688 C-63.70074872 1.74731546 -72.2718199 -2.23991089 -83.53125 -2.1015625 C-84.22863281 -2.09705078 -84.92601562 -2.09253906 -85.64453125 -2.08789062 C-87.35680803 -2.0761627 -89.06904033 -2.05822903 -90.78125 -2.0390625 C-76.9733462 -2.50712704 -65.58956455 5.3448369 -54.94799805 13.30053711 C-45.04713992 20.60254397 -34.06632552 25.69006762 -21.78125 26.9609375 C-21.78125 27.6209375 -21.78125 28.2809375 -21.78125 28.9609375 C-42.22424142 35.95637975 -64.67070257 38.7341567 -84.70092773 29.29443359 C-95.27670278 24.10397576 -105.04254019 17.90521915 -113.78125 9.9609375 C-107.1914051 20.76828314 -98.0190474 26.46273113 -86.78125 31.9609375 C-86.78125 32.2909375 -86.78125 32.6209375 -86.78125 32.9609375 C-103.01097352 32.43269734 -118.23973501 31.90975687 -130.7265625 20.125 C-134.7062415 15.72235995 -136.82078831 11.83017619 -137.09375 5.8359375 C-136.78125 1.9609375 -136.78125 1.9609375 -135.28125 -0.0390625 C-134.78625 -0.3690625 -134.29125 -0.6990625 -133.78125 -1.0390625 C-132.9975 -0.5440625 -132.21375 -0.0490625 -131.40625 0.4609375 C-126.51648165 2.48428992 -122.99935327 3.02213208 -117.78125 1.9609375 C-113.7346763 0.2025015 -109.88110449 -1.80854577 -105.984375 -3.87109375 C-75.38308853 -19.95584197 -28.8845561 -21.17659871 0 0 Z " fill="#F1AB2F" transform="translate(180.78125,54.0390625)"/>
<path d="M0 0 C-0.15984375 0.79019531 -0.3196875 1.58039063 -0.484375 2.39453125 C-2.46457129 16.24090376 -2.41063866 31.43329558 5.66796875 43.34375 C8.01828378 46.26613585 10.66299899 48.33149949 14 50 C14.35050464 55.841744 14.16727335 59.8531808 11 65 C15.03384128 62.92856799 16.92856799 61.03384128 19 57 C21 60 21 60 21 62 C21.66 62 22.32 62 23 62 C22.54359687 57.2534075 21.83954308 54.74303406 19 51 C19.24796367 48.83031791 19.44233607 47.55766393 21 46 C22.51928038 45.92820036 24.04167482 45.91607993 25.5625 45.9375 C26.38878906 45.94652344 27.21507812 45.95554688 28.06640625 45.96484375 C28.70449219 45.97644531 29.34257812 45.98804688 30 46 C30.94918502 55.34419917 28.50988284 64.11098834 23.01171875 71.76953125 C20.55131066 74.49747886 18.44292589 75.73525171 15 77 C11.56604793 76.7658669 10.44988842 76.44988842 8 74 C8 73.01 8 72.02 8 71 C7.34 71 6.68 71 6 71 C6.03609375 71.98226562 6.0721875 72.96453125 6.109375 73.9765625 C6.10505569 78.27211676 5.26838725 82.2173254 4.25 86.375 C4.06735596 87.12523437 3.88471191 87.87546875 3.6965332 88.6484375 C0.15946062 102.66893683 -7.3984947 114.4232901 -19.91894531 122.19042969 C-22.09200508 123.46063367 -24.28542503 124.67871467 -26.5 125.875 C-27.1997998 126.2565625 -27.89959961 126.638125 -28.62060547 127.03125 C-38.27140578 132.02621856 -49.27609402 133.79341352 -59.9609375 131.3125 C-67.53646813 128.76610315 -74.47042114 124.82333774 -80 119 C-79.505 118.01 -79.505 118.01 -79 117 C-78.02160156 117.52400391 -78.02160156 117.52400391 -77.0234375 118.05859375 C-70.34247843 121.57181183 -70.34247843 121.57181183 -63 123 C-62.35933594 123.05027344 -61.71867187 123.10054688 -61.05859375 123.15234375 C-49.06390313 123.68877893 -40.01438266 119.72449566 -31 112 C-29.64966919 110.68388365 -28.31038942 109.35588905 -27 108 C-29.64 108.33 -32.28 108.66 -35 109 C-31.23550244 104.60363641 -28.10686088 104.22994894 -22.55859375 103.4921875 C-19.57903775 101.75449225 -19.29801023 101.0568902 -18.17578125 97.890625 C-16.19983016 90.04454348 -16.6388679 81.76767931 -16.79052734 73.72607422 C-17.00362457 60.21447493 -17.00362457 60.21447493 -12.515625 55.1328125 C-11.35612374 54.07481939 -10.18677359 53.02730767 -9 52 C-7.49780118 48.99560236 -7.82911006 46.2169449 -7.8125 42.875 C-7.79832031 41.59367187 -7.78414063 40.31234375 -7.76953125 38.9921875 C-7.9429438 35.98832941 -8.21500375 33.90826179 -9.00390625 31.1015625 C-10.25404352 26.54498739 -10.22445557 22.19736315 -10.125 17.5 C-10.11597656 16.67757812 -10.10695313 15.85515625 -10.09765625 15.0078125 C-10.07436865 13.00507917 -10.03850959 11.00249846 -10 9 C-10.88558594 9.26554687 -11.77117187 9.53109375 -12.68359375 9.8046875 C-38.22774857 17.08782842 -62.4427137 15.46961825 -88 9 C-88 8.67 -88 8.34 -88 8 C-83.72918086 7.97102565 -79.45838691 7.95321004 -75.1875 7.9375 C-73.36508789 7.92493164 -73.36508789 7.92493164 -71.50585938 7.91210938 C-69.76079102 7.90727539 -69.76079102 7.90727539 -67.98046875 7.90234375 C-66.90692139 7.89710693 -65.83337402 7.89187012 -64.72729492 7.88647461 C-62 8 -62 8 -59 9 C-40.23493323 10.13125174 -22.59762501 9.89132323 -5.609375 1.20703125 C-3 0 -3 0 0 0 Z " fill="#D86B2B" transform="translate(170,84)"/>
<path d="M0 0 C3.9463524 1.27989808 5.84702995 2.43909419 8 6 C8.34057617 8.38183594 8.34057617 8.38183594 8.29296875 10.984375 C8.28330078 11.91894531 8.27363281 12.85351562 8.26367188 13.81640625 C8.23853516 14.78449219 8.21339844 15.75257812 8.1875 16.75 C8.16719727 18.22533203 8.16719727 18.22533203 8.14648438 19.73046875 C8.11118726 22.15420415 8.06188054 24.57682145 8 27 C5.02873292 24.28922757 4.11756266 21.86848614 3 18 C2.26191128 24.7904162 4.76480038 29.14722978 8 35 C8.67298249 36.33015668 9.34195714 37.66238951 10 39 C1.83753908 36.66786831 -2.46238414 32.93988308 -7 26 C-5.35013431 33.5790705 -2.3399484 37.60020304 4 42 C6.63797776 43.54705612 9.27835715 45.04287743 11.99609375 46.4453125 C14 48 14 48 14.78515625 50.6796875 C14.85605469 51.44539063 14.92695313 52.21109375 15 53 C8.13523882 51.91081033 2.22529789 50.09761199 -4 47 C-3.2265625 47.86625 -3.2265625 47.86625 -2.4375 48.75 C-1 51 -1 51 -1.3125 53.25 C-1.539375 53.8275 -1.76625 54.405 -2 55 C-6 55 -6 55 -8.5 53.25 C-14.76524366 46.20887477 -15.38280665 36.80314183 -15.5 27.8125 C-15.51844971 26.98161865 -15.53689941 26.1507373 -15.5559082 25.29467773 C-15.47964083 17.67775723 -13.60207854 11.64932299 -8.203125 6.15234375 C-7.22859375 5.42144531 -6.2540625 4.69054687 -5.25 3.9375 C-4.26515625 3.18339844 -3.2803125 2.42929688 -2.265625 1.65234375 C-1.51796875 1.10707031 -0.7703125 0.56179687 0 0 Z " fill="#DD8429" transform="translate(189,72)"/>
<path d="M0 0 C7.399748 0.61664567 12.99553154 3.03341745 18.5 8.0625 C20.97749118 10.32406305 23.07872699 11.58797104 26.25 12.6875 C30 14 30 14 31.53515625 15.5390625 C33.72139863 17.7194749 36.01757353 17.66861928 39 18 C38.319375 17.505 37.63875 17.01 36.9375 16.5 C31.62193136 11.9761118 27.28857136 6.48937134 23 1 C26.75991653 2.05747652 29.01789505 3.82479242 31.8125 6.4375 C36.903001 11.05736977 42.19168573 12.9362009 49 14 C49 13.34 49 12.68 49 12 C48.29875 11.773125 47.5975 11.54625 46.875 11.3125 C43.30656387 9.68343133 40.93485489 7.59359269 38 5 C40 4 40 4 43.30078125 5.07421875 C44.64129829 5.60375633 45.97843226 6.14191844 47.3125 6.6875 C48.30926758 7.07325195 48.30926758 7.07325195 49.32617188 7.46679688 C54.19579773 9.42717049 58.74507053 11.41304642 61.14453125 16.359375 C61.36496094 17.14828125 61.58539063 17.9371875 61.8125 18.75 C62.04582031 19.54921875 62.27914062 20.3484375 62.51953125 21.171875 C62.67808594 21.77515625 62.83664063 22.3784375 63 23 C56.20814191 29.74818054 50.0716507 32.12285191 40.5 32.3125 C35.07663366 32.19141427 30.22719815 31.41754526 25 30 C25.66 29.67 26.32 29.34 27 29 C27.33 28.34 27.66 27.68 28 27 C28.99 27 29.98 27 31 27 C31.33 26.01 31.66 25.02 32 24 C30.948125 23.443125 29.89625 22.88625 28.8125 22.3125 C23.70687482 19.1670702 19.76225589 14.95195962 15.6574707 10.6340332 C10.93233137 5.71359864 6.59988835 2.99531508 0 1 C0 0.67 0 0.34 0 0 Z " fill="#DE8629" transform="translate(122,46)"/>
<path d="M0 0 C1.4606285 2.64738916 2 3.89448334 2 7 C6.95490482 5.95184706 11.20578331 4.49517078 15.8125 2.375 C21.60354688 -0.07449584 26.75831697 -1.39139559 33 0 C37.04560134 2.16242762 39.50830474 4.49213452 40.9375 8.875 C40.958125 9.57625 40.97875 10.2775 41 11 C40.27296875 10.566875 40.27296875 10.566875 39.53125 10.125 C34.58236138 7.38407707 30.65184872 6.04891521 25 7 C22.25910822 7.86114194 19.66614283 8.91546733 17 10 C16.01 10 15.02 10 14 10 C14 10.66 14 11.32 14 12 C14.85722656 11.95359375 15.71445313 11.9071875 16.59765625 11.859375 C27.08595125 11.52829015 27.08595125 11.52829015 30.75 14 C34.97522225 16.60013677 38.17382565 16.39397342 43 16 C41.35 17.32 39.7 18.64 38 20 C40.475 20.99 40.475 20.99 43 22 C39.99353048 23.30230734 38.90644333 22.96485975 35.765625 21.78515625 C34.60546875 21.21667969 33.4453125 20.64820312 32.25 20.0625 C31.07953125 19.49660156 29.9090625 18.93070313 28.703125 18.34765625 C27.81109375 17.90292969 26.9190625 17.45820312 26 17 C26 17.66 26 18.32 26 19 C22.5647952 21.29013653 21.014669 21.17842973 17 21 C16.34 19.68 15.68 18.36 15 17 C10.00724943 18.27721526 7.42388092 20.17330957 4 24 C3.92572162 20.65747276 3.93453047 18.1964086 5 15 C4.195625 14.38125 3.39125 13.7625 2.5625 13.125 C0 11 0 11 -1 9 C-1.18704404 6.30986661 -1.08581391 3.70313823 -1 1 C-0.67 0.67 -0.34 0.34 0 0 Z " fill="#14110D" transform="translate(115,103)"/>
<path d="M0 0 C0.66 0 1.32 0 2 0 C2.185625 1.7015625 2.185625 1.7015625 2.375 3.4375 C3.98007655 9.76801172 8.88414494 13.32671755 14 17 C23.12581368 22.2337272 33.74460882 25.59274936 44.0625 27.5078125 C46.23358509 28.05933815 48.03402914 28.93802467 50 30 C50 30.33 50 30.66 50 31 C33.77027648 30.47175984 18.54151499 29.94881937 6.0546875 18.1640625 C0.79321148 12.34339579 -0.26156415 7.71614232 0 0 Z " fill="#EEB344" transform="translate(44,56)"/>
<path d="M0 0 C9.17117454 -0.44021638 16.75821143 -0.46140663 25 4 C25.79535156 4.42410156 26.59070313 4.84820312 27.41015625 5.28515625 C32.2321429 8.02856862 36.60639327 11.18020939 41 14.5625 C48.9215929 20.58737347 56.19469273 24.26034871 66 26 C65.01 26.66 64.02 27.32 63 28 C63.99 28.99 63.99 28.99 65 30 C51.52991214 29.08158492 40.04978387 20.84283538 29.625 12.9375 C20.05395801 5.93961155 10.9321492 2.04299874 -1 2 C-0.67 1.34 -0.34 0.68 0 0 Z " fill="#1A160E" transform="translate(90,51)"/>
<path d="M0 0 C2.49361571 1.20381448 4.68143083 2.45428722 7 4 C6.70703125 6.01822917 6.4140625 8.03645833 6.12109375 10.0546875 C5.8315703 12.08140667 5.8315703 12.08140667 7 14 C6.83219837 16.69565202 6.38844355 19.32405554 6 22 C4.02 22.33 2.04 22.66 0 23 C0 23.66 0 24.32 0 25 C1.98 25.66 3.96 26.32 6 27 C6.33 28.98 6.66 30.96 7 33 C3.7 33 0.4 33 -3 33 C-4.08175509 25.64406537 -3.90203041 18.80387432 -3.1875 11.4375 C-3.0639917 10.09800293 -3.0639917 10.09800293 -2.93798828 8.73144531 C-2.84888184 7.8906543 -2.75977539 7.04986328 -2.66796875 6.18359375 C-2.58828857 5.42618896 -2.5086084 4.66878418 -2.42651367 3.88842773 C-2 2 -2 2 0 0 Z " fill="#D86B2B" transform="translate(114,114)"/>
<path d="M0 0 C0.99 0 1.98 0 3 0 C4.05627991 8.23489294 4.15371113 16.39357284 4.125 24.6875 C4.12411377 25.3594339 4.12322754 26.0313678 4.12231445 26.72366333 C4.10314163 39.1666432 3.68952351 51.57626383 3 64 C0.29910179 59.94865268 -0.12379722 58.18469473 -0.11352539 53.35693359 C-0.11344986 52.17586029 -0.11337433 50.99478699 -0.11329651 49.77792358 C-0.10813522 48.49769318 -0.10297394 47.21746277 -0.09765625 45.8984375 C-0.0962413 44.59170074 -0.09482635 43.28496399 -0.09336853 41.93862915 C-0.08954894 38.46323742 -0.07972342 34.98788743 -0.06866455 31.51251221 C-0.05843843 27.96668055 -0.05386833 24.42084215 -0.04882812 20.875 C-0.03810066 13.91664951 -0.02103092 6.95832676 0 0 Z " fill="#DDA45B" transform="translate(71,113)"/>
<path d="M0 0 C0.33 0 0.66 0 1 0 C1.70292632 3.29240437 2.20318949 6.51839376 2.5 9.87109375 C2.5825 10.77537109 2.665 11.67964844 2.75 12.61132812 C2.8325 13.54396484 2.915 14.47660156 3 15.4375 C3.61473447 23.77660115 3.61473447 23.77660115 5 32 C6.96672915 33.1500831 6.96672915 33.1500831 9 34 C9.75 36.125 9.75 36.125 10 38 C8.68 38.66 7.36 39.32 6 40 C0.51869762 35.27998962 -2.70364771 29.14919034 -4 22 C-4.06831987 19.5842094 -4.08487642 17.16665287 -4.0625 14.75 C-4.05347656 13.48671875 -4.04445312 12.2234375 -4.03515625 10.921875 C-4.02355469 9.95765625 -4.01195312 8.9934375 -4 8 C-3.34 8 -2.68 8 -2 8 C-1.34 5.36 -0.68 2.72 0 0 Z " fill="#EEB243" transform="translate(178,88)"/>
<path d="M0 0 C5.93281493 2.04878986 9.68283271 5.57706692 14 10 C13.67 10.66 13.34 11.32 13 12 C12.19175781 11.57847656 11.38351563 11.15695313 10.55078125 10.72265625 C9.48214844 10.17480469 8.41351563 9.62695312 7.3125 9.0625 C6.25675781 8.51722656 5.20101562 7.97195312 4.11328125 7.41015625 C-3.58818859 3.9217866 -13.69305695 3.61320803 -22 5 C-25.46428963 6.83293267 -27.56715758 8.98066878 -30 12 C-30.99 12.495 -30.99 12.495 -32 13 C-31.51696726 8.68986172 -30.3982201 6.9764837 -27.0625 4.25 C-26.35222656 3.65703125 -25.64195313 3.0640625 -24.91015625 2.453125 C-18.60019278 -2.34709261 -7.53369796 -0.85714504 0 0 Z " fill="#18140E" transform="translate(120,165)"/>
<path d="M0 0 C9.76254286 0.81354524 15.30278917 5.10158357 22.34765625 11.6796875 C29.23975187 17.70900238 36.63815521 22.29680724 45.8125 23.5 C46.864375 23.665 47.91625 23.83 49 24 C49.495 24.99 49.495 24.99 50 26 C39.71895295 26.51885658 32.39702066 25.13628433 24 19 C21.72302541 16.89664344 19.577926 14.67877057 17.4375 12.4375 C12.08042749 6.82980421 7.57253211 3.28937017 0 1 C0 0.67 0 0.34 0 0 Z " fill="#1C170F" transform="translate(122,46)"/>
<path d="M0 0 C5.86019164 0.49149994 10.19711155 2.97439954 15.25 5.75 C16.95820567 6.66430106 18.66653755 7.57836636 20.375 8.4921875 C22.90412454 9.85860048 25.42487803 11.23616891 27.9375 12.6328125 C34.92937196 16.38858156 42.325637 18.16838536 50 20 C50 20.33 50 20.66 50 21 C33.54370933 22.18722738 20.25472825 15.04482741 7.2890625 5.61328125 C4.96096085 3.92619271 4.96096085 3.92619271 2.2109375 2.35546875 C1.48132813 1.90816406 0.75171875 1.46085937 0 1 C0 0.67 0 0.34 0 0 Z " fill="#18150E" transform="translate(80,62)"/>
<path d="M0 0 C1.98 0.495 1.98 0.495 4 1 C4 13.54 4 26.08 4 39 C3.34 39 2.68 39 2 39 C-0.41889075 34.06143138 -1.44999897 30.62498715 -1 25 C-0.67 24.67 -0.34 24.34 0 24 C0.08726223 22.21928754 0.10699041 20.4351686 0.09765625 18.65234375 C0.09443359 17.57275391 0.09121094 16.49316406 0.08789062 15.38085938 C0.07951172 14.24455078 0.07113281 13.10824219 0.0625 11.9375 C0.05798828 10.79732422 0.05347656 9.65714844 0.04882812 8.48242188 C0.03699747 5.65489649 0.0205141 2.8274736 0 0 Z " fill="#C79532" transform="translate(62,89)"/>
<path d="M0 0 C6.27 0 12.54 0 19 0 C19 0.66 19 1.32 19 2 C18.34 2 17.68 2 17 2 C17 2.66 17 3.32 17 4 C17.928125 4.37125 17.928125 4.37125 18.875 4.75 C21.35068687 6.20628639 21.95125002 7.37812506 23 10 C22.113125 9.505 21.22625 9.01 20.3125 8.5 C14.21308308 5.86814526 6.32476552 5.83050701 0.1015625 8.01953125 C-0.59195313 8.34308594 -1.28546875 8.66664063 -2 9 C-1.67 8.401875 -1.34 7.80375 -1 7.1875 C0.20787988 4.94613529 0.20787988 4.94613529 0 2 C0 1.34 0 0.68 0 0 Z " fill="#18140E" transform="translate(100,174)"/>
<path d="M0 0 C0.33 0 0.66 0 1 0 C1.70292632 3.29240437 2.20318949 6.51839376 2.5 9.87109375 C2.5825 10.77537109 2.665 11.67964844 2.75 12.61132812 C2.8325 13.54396484 2.915 14.47660156 3 15.4375 C3.61659657 23.77614856 3.61659657 23.77614856 5 32 C6.93383287 33.30065921 6.93383287 33.30065921 9 34 C9.33 34.66 9.66 35.32 10 36 C7.12889107 35.69238119 6.03731715 35.03618633 3.9375 33 C-1.32396663 24.85321296 -2.22124025 15.57654205 -2 6 C-1.01171875 2.54296875 -1.01171875 2.54296875 0 0 Z " fill="#F2A72D" transform="translate(178,88)"/>
<path d="M0 0 C3.66171838 1.02985829 5.98433363 2.74430627 8.75 5.25 C14.26536181 10.24406107 19.99958789 14.38863786 27 17 C27 17.33 27 17.66 27 18 C22.33306514 18.47621784 18.37010934 18.72104258 14.375 16 C8.81817439 11.46171087 4.39529939 5.62598321 0 0 Z " fill="#231D10" transform="translate(145,47)"/>
<path d="M0 0 C0 0.66 0 1.32 0 2 C-8.026086 4.74341572 -15.50569131 6.65954675 -24 7 C-22.6100869 4.22017379 -20.81341647 4.12536659 -18 3 C-17.67 2.34 -17.34 1.68 -17 1 C-11.1146687 -1.37917648 -6.20227881 -0.92347813 0 0 Z " fill="#DC852A" transform="translate(159,81)"/>
<path d="M0 0 C-0.07596166 3.19038983 -0.38788755 5.31714088 -2.5546875 7.734375 C-7.45 12 -7.45 12 -10 12 C-9.67 8.7 -9.34 5.4 -9 2 C-3.375 0 -3.375 0 0 0 Z " fill="#CA6529" transform="translate(189,165)"/>
<path d="M0 0 C15.74487472 -0.55353075 15.74487472 -0.55353075 23 3 C22.01 3.99 21.02 4.98 20 6 C19.48953125 5.79503906 18.9790625 5.59007812 18.453125 5.37890625 C12.00732185 2.99030189 5.8402909 2.33564879 -1 2 C-0.67 1.34 -0.34 0.68 0 0 Z " fill="#392D15" transform="translate(90,51)"/>
<path d="M0 0 C1.27445454 0.42683632 2.54445882 0.86697202 3.8125 1.3125 C4.52019531 1.55613281 5.22789063 1.79976562 5.95703125 2.05078125 C8.17601216 3.08178003 9.45892356 4.10889989 11 6 C11 6.66 11 7.32 11 8 C3.78287462 8.48929664 3.78287462 8.48929664 0 6.125 C-2 4 -2 4 -2 2 C-1.34 2 -0.68 2 0 2 C0 1.34 0 0.68 0 0 Z " fill="#D46A2B" transform="translate(119,174)"/>
<path d="M0 0 C1.32 0.33 2.64 0.66 4 1 C3.50873071 7.36559573 3.00344253 13.69264693 2 20 C0 18 0 18 -0.22705078 16.12060547 C-0.21657715 15.37697754 -0.20610352 14.63334961 -0.1953125 13.8671875 C-0.18886719 13.06152344 -0.18242188 12.25585938 -0.17578125 11.42578125 C-0.15064453 10.16314453 -0.15064453 10.16314453 -0.125 8.875 C-0.11597656 8.02550781 -0.10695312 7.17601563 -0.09765625 6.30078125 C-0.07405647 4.20040116 -0.03818483 2.10016556 0 0 Z " fill="#E6AD40" transform="translate(62,89)"/>
<path d="M0 0 C0.99 0 1.98 0 3 0 C4.58919293 9.85729131 4.58919293 9.85729131 2 14 C1.01 14.33 0.02 14.66 -1 15 C-1.10251672 9.87416389 -1.03590199 5.05002222 0 0 Z " fill="#DEA359" transform="translate(72,92)"/>
<path d="M0 0 C6.9113364 0.47122748 12.72204161 3.20636006 19 6 C18.67 6.66 18.34 7.32 18 8 C11.02013687 7.68978386 5.92708478 4.5048042 0 1 C0 0.67 0 0.34 0 0 Z " fill="#E8AF42" transform="translate(84,76)"/>
<path d="M0 0 C8.36061771 0.69671814 14.42625486 3.72953671 20 10 C19.01 10.66 18.02 11.32 17 12 C16.443125 11.45730469 15.88625 10.91460937 15.3125 10.35546875 C10.40249264 5.75233685 6.47465602 2.8835363 0 1 C0 0.67 0 0.34 0 0 Z " fill="#1A160E" transform="translate(122,46)"/>
<path d="M0 0 C2.97 0 5.94 0 9 0 C7.35 1.32 5.7 2.64 4 4 C6.475 4.99 6.475 4.99 9 6 C6.83032311 6.95465783 5.43671207 7.14401212 3.17578125 6.3984375 C1.4315257 5.64129615 -0.28627131 4.82390802 -2 4 C-1.34 3.67 -0.68 3.34 0 3 C0 2.01 0 1.02 0 0 Z " fill="#794D25" transform="translate(149,119)"/>
<path d="M0 0 C0.66 0.33 1.32 0.66 2 1 C0.86180149 4.41459553 -0.24005518 5.3324158 -2.9375 7.625 C-3.64777344 8.23601562 -4.35804687 8.84703125 -5.08984375 9.4765625 C-7 11 -7 11 -9 12 C-8.52379711 7.62346871 -7.33100111 5.93461995 -3.9375 3.1875 C-3.20402344 2.58292969 -2.47054687 1.97835937 -1.71484375 1.35546875 C-1.14894531 0.90816406 -0.58304688 0.46085938 0 0 Z " fill="#2D2112" transform="translate(97,166)"/>
<path d="M0 0 C-1.38783992 4.16351975 -3.54818961 5.33922949 -7 8 C-7.33 8 -7.66 8 -8 8 C-8 6.35 -8 4.7 -8 3 C-8.99 2.67 -9.98 2.34 -11 2 C-9.5422647 1.664061 -8.08378894 1.33133376 -6.625 1 C-5.40683594 0.7215625 -5.40683594 0.7215625 -4.1640625 0.4375 C-2 0 -2 0 0 0 Z " fill="#C9682B" transform="translate(113,152)"/>
<path d="M0 0 C2.35171131 0.59861742 4.6859378 1.26924352 7 2 C7.33 2.66 7.66 3.32 8 4 C2.06 3.67 -3.88 3.34 -10 3 C-10 2.67 -10 2.34 -10 2 C-6.7 2 -3.4 2 0 2 C0 1.34 0 0.68 0 0 Z " fill="#BA8B30" transform="translate(86,83)"/>
<path d="M0 0 C3.72433382 1.2125738 7.37802806 2.50859979 11 4 C11 4.33 11 4.66 11 5 C9.5629191 5.05422947 8.12524538 5.09289723 6.6875 5.125 C5.88699219 5.14820312 5.08648437 5.17140625 4.26171875 5.1953125 C2 5 2 5 -1 3 C-0.67 2.01 -0.34 1.02 0 0 Z " fill="#19150E" transform="translate(161,60)"/>
<path d="M0 0 C0.66 0.99 1.32 1.98 2 3 C0.1875 5.5 0.1875 5.5 -2 8 C-2.99 8 -3.98 8 -5 8 C-4.45773019 4.20411134 -2.79872437 2.52788007 0 0 Z " fill="#1A130E" transform="translate(186,141)"/>
<path d="M0 0 C0.99 0 1.98 0 3 0 C2.32116957 3.11547441 1.25893098 5.85137721 -0.0625 8.75 C-0.60583984 9.94882813 -0.60583984 9.94882813 -1.16015625 11.171875 C-1.43730469 11.77515625 -1.71445313 12.3784375 -2 13 C-2.33 13 -2.66 13 -3 13 C-2.88490339 11.58249437 -2.75746342 10.16598831 -2.625 8.75 C-2.55539063 7.96109375 -2.48578125 7.1721875 -2.4140625 6.359375 C-1.98492887 3.914123 -1.21399362 2.15163097 0 0 Z " fill="#422E17" transform="translate(88,154)"/>
<path d="M0 0 C2.22825644 2.22825644 2.69239369 3.65761628 3.625 6.625 C4.01558594 7.85089844 4.01558594 7.85089844 4.4140625 9.1015625 C4.60742188 9.72804688 4.80078125 10.35453125 5 11 C3.68 11 2.36 11 1 11 C-0.20272819 8.59454362 -0.10071472 7.05003047 -0.0625 4.375 C-0.05347656 3.55773437 -0.04445312 2.74046875 -0.03515625 1.8984375 C-0.02355469 1.27195312 -0.01195312 0.64546875 0 0 Z " fill="#20190F" transform="translate(191,88)"/>
<path d="M0 0 C2 0.125 2 0.125 4 1 C5.25 3.0625 5.25 3.0625 6 5 C2.62537285 4.45276317 0.91765 3.9451 -2 2 C-1.34 1.34 -0.68 0.68 0 0 Z " fill="#21190F" transform="translate(143,117)"/>
<path d="M0 0 C0.66 0 1.32 0 2 0 C2.33 3.3 2.66 6.6 3 10 C2.34 10 1.68 10 1 10 C-0.60725635 6.78548731 -0.05748185 3.56387464 0 0 Z " fill="#FABC48" transform="translate(174,96)"/>
<path d="M0 0 C1.98 0.66 3.96 1.32 6 2 C5.67 3.32 5.34 4.64 5 6 C2.69 5.67 0.38 5.34 -2 5 C-1.67 4.360625 -1.34 3.72125 -1 3.0625 C0.07271225 1.23205433 0.07271225 1.23205433 0 0 Z " fill="#2B2112" transform="translate(118,165)"/>
<path d="M0 0 C2.3828125 -0.29296875 2.3828125 -0.29296875 5.125 -0.1875 C6.03507812 -0.16042969 6.94515625 -0.13335937 7.8828125 -0.10546875 C8.58148438 -0.07066406 9.28015625 -0.03585938 10 0 C5.96707255 2.2344598 2.55032566 2.54496743 -2 3 C-1.34 2.01 -0.68 1.02 0 0 Z " fill="#05080A" transform="translate(99,166)"/>
<path d="M0 0 C0 1.65 0 3.3 0 5 C-1.32 5 -2.64 5 -4 5 C-4 3.68 -4 2.36 -4 1 C-2 0 -2 0 0 0 Z " fill="#231A10" transform="translate(80,117)"/>
<path d="M0 0 C3.71888239 0.50712033 6.73454239 1.11608215 10 3 C9.67 3.99 9.34 4.98 9 6 C6.03 4.35 3.06 2.7 0 1 C0 0.67 0 0.34 0 0 Z " fill="#2B2212" transform="translate(80,62)"/>
<path d="M0 0 C-2.97 2.475 -2.97 2.475 -6 5 C-6.33 3.35 -6.66 1.7 -7 0 C-3.98968256 -0.93423645 -3.13349732 -1.04449911 0 0 Z " fill="#2B1C11" transform="translate(144,192)"/>
<path d="M0 0 C1 3 1 3 0.0625 5.1875 C-0.4634375 6.0846875 -0.4634375 6.0846875 -1 7 C-1.66 7 -2.32 7 -3 7 C-3 5.02 -3 3.04 -3 1 C-2.01 0.67 -1.02 0.34 0 0 Z " fill="#DA9833" transform="translate(177,89)"/>
<path d="M0 0 C4.3177458 0.50797009 8.03302114 1.19682779 12 3 C11.01 3.66 10.02 4.32 9 5 C6.73828125 4.3203125 6.73828125 4.3203125 4.3125 3.125 C3.50425781 2.73570313 2.69601563 2.34640625 1.86328125 1.9453125 C1.24839844 1.63335937 0.63351563 1.32140625 0 1 C0 0.67 0 0.34 0 0 Z " fill="#453418" transform="translate(122,46)"/>
<path d="M0 0 C2.83374881 3.20336822 3.5205537 5.78087253 4 10 C1.2027092 7.93243723 0.97307727 6.85559629 0.3125 3.3125 C0.209375 2.219375 0.10625 1.12625 0 0 Z " fill="#352714" transform="translate(133,156)"/>
<path d="M0 0 C2 2 2 2 2.125 5.125 C2.08375 6.07375 2.0425 7.0225 2 8 C1.34 7.34 0.68 6.68 0 6 C-0.99 6.495 -0.99 6.495 -2 7 C-1.34 4.69 -0.68 2.38 0 0 Z " fill="#473117" transform="translate(105,103)"/>
<path d="M0 0 C2.31 0 4.62 0 7 0 C6.67 0.99 6.34 1.98 6 3 C3.03 2.505 3.03 2.505 0 2 C0 1.34 0 0.68 0 0 Z " fill="#F1B544" transform="translate(152,44)"/>
</svg>
