<?xml version="1.0" encoding="UTF-8"?>
<svg version="1.1" xmlns="http://www.w3.org/2000/svg" width="128" height="128">
<path d="M0 0 C2.11399923 -0.01182218 4.22500011 -0.06101886 6.33837891 -0.11157227 C23.63053355 -0.31827563 39.00013233 7.62659659 51.51416016 19.42553711 C52.20478171 20.74662155 52.87600671 22.07832428 53.51416016 23.42553711 C54.17416016 23.75553711 54.83416016 24.08553711 55.51416016 24.42553711 C55.51416016 25.41553711 55.51416016 26.40553711 55.51416016 27.42553711 C56.17416016 27.42553711 56.83416016 27.42553711 57.51416016 27.42553711 C57.51416016 28.41553711 57.51416016 29.40553711 57.51416016 30.42553711 C58.17416016 30.42553711 58.83416016 30.42553711 59.51416016 30.42553711 C60.30972672 32.13205776 61.10042395 33.84084881 61.88916016 35.55053711 C62.55044922 36.9775293 62.55044922 36.9775293 63.22509766 38.43334961 C66.58789803 46.2391226 66.91904855 53.25032202 66.93969727 61.63549805 C66.95148587 63.89217286 67.00062362 66.14600946 67.05126953 68.40209961 C67.15963031 78.40590098 65.56391392 86.23497073 61.51416016 95.42553711 C60.85416016 95.42553711 60.19416016 95.42553711 59.51416016 95.42553711 C59.18416016 97.07553711 58.85416016 98.72553711 58.51416016 100.42553711 C57.85416016 100.42553711 57.19416016 100.42553711 56.51416016 100.42553711 C56.51416016 101.41553711 56.51416016 102.40553711 56.51416016 103.42553711 C55.52416016 103.92053711 55.52416016 103.92053711 54.51416016 104.42553711 C54.01916016 105.91053711 54.01916016 105.91053711 53.51416016 107.42553711 C51.92041016 108.96069336 51.92041016 108.96069336 50.01416016 110.48803711 C47.33309614 112.60275478 47.33309614 112.60275478 45.51416016 115.42553711 C44.02916016 115.92053711 44.02916016 115.92053711 42.51416016 116.42553711 C42.18416016 117.08553711 41.85416016 117.74553711 41.51416016 118.42553711 C40.52416016 118.42553711 39.53416016 118.42553711 38.51416016 118.42553711 C38.51416016 119.08553711 38.51416016 119.74553711 38.51416016 120.42553711 C36.09951335 121.57579797 33.68262698 122.72085916 31.26416016 123.86303711 C30.58224609 124.18852539 29.90033203 124.51401367 29.19775391 124.84936523 C28.53388672 125.16196289 27.87001953 125.47456055 27.18603516 125.79663086 C26.2748291 126.22866821 26.2748291 126.22866821 25.34521484 126.66943359 C19.09311864 129.25113252 12.37015549 128.68535902 5.7175293 128.72070312 C4.21938589 128.73216398 2.7212814 128.75252145 1.22338867 128.78222656 C-8.04247565 128.96567858 -15.95088628 128.46781097 -24.48583984 124.42553711 C-25.50677734 123.97952148 -26.52771484 123.53350586 -27.57958984 123.07397461 C-34.04347118 119.65315429 -39.03195464 115.52833367 -44.27099609 110.49975586 C-46.3055071 108.39696587 -46.3055071 108.39696587 -48.48583984 107.42553711 C-48.81583984 106.43553711 -49.14583984 105.44553711 -49.48583984 104.42553711 C-50.14583984 104.09553711 -50.80583984 103.76553711 -51.48583984 103.42553711 C-51.48583984 102.43553711 -51.48583984 101.44553711 -51.48583984 100.42553711 C-52.14583984 100.42553711 -52.80583984 100.42553711 -53.48583984 100.42553711 C-54.6361007 98.0108903 -55.78116189 95.59400393 -56.92333984 93.17553711 C-57.24882813 92.49362305 -57.57431641 91.81170898 -57.90966797 91.10913086 C-58.37856445 90.11333008 -58.37856445 90.11333008 -58.85693359 89.09741211 C-59.28897095 88.18620605 -59.28897095 88.18620605 -59.72973633 87.2565918 C-62.34032876 80.93452423 -61.7832009 74.09535957 -61.8359375 67.36645508 C-61.85234824 65.84025668 -61.87943678 64.31413024 -61.91796875 62.78833008 C-62.19033452 51.91501493 -60.91444029 43.43741603 -56.48583984 33.42553711 C-55.82583984 33.42553711 -55.16583984 33.42553711 -54.48583984 33.42553711 C-54.15583984 31.77553711 -53.82583984 30.12553711 -53.48583984 28.42553711 C-52.82583984 28.42553711 -52.16583984 28.42553711 -51.48583984 28.42553711 C-51.48583984 27.43553711 -51.48583984 26.44553711 -51.48583984 25.42553711 C-50.82583984 25.09553711 -50.16583984 24.76553711 -49.48583984 24.42553711 C-49.15583984 23.43553711 -48.82583984 22.44553711 -48.48583984 21.42553711 C-35.20439236 7.41586405 -19.10233201 0.05034995 0 0 Z " fill="#003383" transform="translate(61.48583984375,-0.425537109375)"/>
<path d="M0 0 C0.99837891 -0.00773437 1.99675781 -0.01546875 3.02539062 -0.0234375 C11.32488196 -0.00161109 18.09629816 1.45368144 25.8125 4.625 C26.80765625 5.02460938 27.8028125 5.42421875 28.828125 5.8359375 C31.69564054 7.31885268 33.49095535 8.78732454 35.5625 11.25 C36.125 13.75 36.125 13.75 35.5625 16.25 C30.11793956 21.40800463 26.17537892 21.60758407 18.875 21.51953125 C10.89338485 20.87008379 5.35739996 15.79601588 -0.82421875 11.0546875 C-4.86011843 8.26756395 -7.50598812 7.25 -12.4375 7.25 C-11.90382813 7.45753906 -11.37015625 7.66507813 -10.8203125 7.87890625 C-6.29792905 9.74888833 -2.39808137 11.86336938 1.5625 14.75 C7.32628267 18.92717375 13.40000102 22.32580658 20.5625 23.25 C16.83175601 26.98074399 12.55902653 27.01470651 7.5625 27.25 C5.79519531 27.34667969 5.79519531 27.34667969 3.9921875 27.4453125 C-8.3206774 27.81842962 -15.60658723 24.97948776 -25.40625 17.73828125 C-27.36274124 16.21742713 -27.36274124 16.21742713 -29.4375 15.25 C-28.02260266 16.52280294 -26.60550334 17.7931583 -25.1875 19.0625 C-24.39859375 19.77019531 -23.6096875 20.47789063 -22.796875 21.20703125 C-20.7516444 22.97798424 -18.60182791 24.62675406 -16.4375 26.25 C-21.3875 26.745 -21.3875 26.745 -26.4375 27.25 C-13.63812664 31.51645779 6.70282243 30.80080649 19.5625 27.25 C20.2740625 27.05921875 20.985625 26.8684375 21.71875 26.671875 C23.34007205 26.22150776 24.95269447 25.73994081 26.5625 25.25 C26.52769531 26.15621094 26.49289063 27.06242187 26.45703125 27.99609375 C26.13324086 38.49796001 26.13324086 38.49796001 29.5625 48.25 C31.21783995 49.59736973 32.88262773 50.93334336 34.5625 52.25 C34.94422649 55.43105412 34.99985246 57.37529507 33.5625 60.25 C34.01625 59.755 34.47 59.26 34.9375 58.75 C36.5625 57.25 36.5625 57.25 38.5625 57.25 C38.376875 56.280625 38.19125 55.31125 38 54.3125 C37.7834375 52.7965625 37.7834375 52.7965625 37.5625 51.25 C38.5625 50.25 38.5625 50.25 41.125 50.1875 C41.929375 50.208125 42.73375 50.22875 43.5625 50.25 C43.31561546 56.49617874 43.06836649 61.50057316 38.5625 66.25 C35.74008157 67.04027716 33.46661566 67.25 30.5625 67.25 C30.3665625 68.22839844 30.170625 69.20679687 29.96875 70.21484375 C28.0635918 78.89106713 25.88350716 85.60303957 18.5625 91.25 C10.39295586 96.12687616 3.15243768 99.28559978 -6.4375 98.25 C-11.15725419 96.72162323 -14.91330609 94.66733934 -17.4375 90.25 C-16.75171875 90.5696875 -16.0659375 90.889375 -15.359375 91.21875 C-9.12223712 93.42009278 -1.60044095 93.67035552 4.4765625 90.94140625 C6.66613307 89.49211906 8.66406561 88.06305506 10.5625 86.25 C10.5625 85.92 10.5625 85.59 10.5625 85.25 C7.83094845 86.29441677 5.38492908 87.35736847 2.875 88.875 C-2.79875859 91.23014508 -8.18573506 91.15070598 -13.875 88.875 C-15.74401854 87.68976873 -17.59605343 86.47763105 -19.4375 85.25 C-19.4375 85.91 -19.4375 86.57 -19.4375 87.25 C-23.71025197 85.72401715 -25.31630403 83.16590624 -27.4375 79.25 C-27.9678511 76.21066451 -27.92908691 73.24614825 -27.86328125 70.16796875 C-27.85999313 69.31318436 -27.85670502 68.45839996 -27.85331726 67.57771301 C-27.84293801 65.78162961 -27.82305903 63.98557863 -27.79418945 62.18969727 C-27.74986374 59.42901354 -27.73271279 56.66919972 -27.72070312 53.90820312 C-27.70728877 52.16144566 -27.69236849 50.41469897 -27.67578125 48.66796875 C-27.66839432 47.83887497 -27.66100739 47.00978119 -27.65339661 46.15556335 C-27.55583475 40.36833475 -27.55583475 40.36833475 -26.4375 39.25 C-19.07116337 38.77475248 -19.07116337 38.77475248 -16.4375 40.75 C-15.9425 41.4925 -15.9425 41.4925 -15.4375 42.25 C-17.45572917 42.41276042 -19.47395833 42.57552083 -21.4921875 42.73828125 C-23.83269216 43.12393036 -23.83269216 43.12393036 -25.4375 46.25 C-24.86 46.064375 -24.2825 45.87875 -23.6875 45.6875 C-21.4375 45.25 -21.4375 45.25 -19.4375 45.8125 C-16.81276794 46.38666014 -15.68027438 45.61168444 -13.4375 44.25 C-14.77082095 48.24996286 -16.9332827 49.08782337 -20.4375 51.25 C-20.29545259 52.83367747 -20.14869847 54.41693318 -20 56 C-19.91878906 56.88171875 -19.83757813 57.7634375 -19.75390625 58.671875 C-19.47511535 60.94350452 -19.04959423 63.04851823 -18.4375 65.25 C-18.1075 64.92 -17.7775 64.59 -17.4375 64.25 C-15.9525 64.745 -15.9525 64.745 -14.4375 65.25 C-8.26880212 65.75356717 -3.20424726 64.19932302 2.5625 62.25 C3.8825 63.9 5.2025 65.55 6.5625 67.25 C5.51376717 64.84728358 4.44938269 62.45372441 3.375 60.0625 C3.08302734 59.38896484 2.79105469 58.71542969 2.49023438 58.02148438 C0.48138433 53.59337406 -1.67929879 50.47131532 -5.4375 47.25 C-7.61096568 46.38880866 -7.61096568 46.38880866 -9.4375 46.25 C-9.251875 45.30125 -9.06625 44.3525 -8.875 43.375 C-8.15063368 40.35131207 -8.15063368 40.35131207 -9.4375 38.25 C-9.97375 38.476875 -10.51 38.70375 -11.0625 38.9375 C-14.46610512 39.38534278 -16.40641876 37.76554062 -19.4375 36.25 C-22.92492555 35.97647643 -25.11541338 36.14263779 -28.4375 37.25 C-28.7675 34.61 -29.0975 31.97 -29.4375 29.25 C-30.0975 35.52 -30.7575 41.79 -31.4375 48.25 C-33.4375 46.25 -33.4375 46.25 -33.66455078 44.32641602 C-33.65407715 43.55998779 -33.64360352 42.79355957 -33.6328125 42.00390625 C-33.62636719 41.16666016 -33.61992188 40.32941406 -33.61328125 39.46679688 C-33.59652344 38.59087891 -33.57976563 37.71496094 -33.5625 36.8125 C-33.55347656 35.94044922 -33.54445313 35.06839844 -33.53515625 34.16992188 C-33.51769801 32.54755256 -33.49614223 30.92521868 -33.46923828 29.30297852 C-33.44320183 27.61882036 -33.4375 25.9343594 -33.4375 24.25 C-34.87957044 22.96358099 -34.87957044 22.96358099 -36.75 21.875 C-39.96283042 19.70276243 -41.88420085 17.90482153 -43.4375 14.25 C-43.625 11.4375 -43.625 11.4375 -43.4375 9.25 C-40.56937867 8.39852648 -38.39718591 8.27662125 -35.4375 8.5625 C-29.98647377 8.66144602 -26.09603888 6.37552181 -21.4296875 3.7578125 C-14.31847961 0.17435787 -7.79637779 -0.06016497 0 0 Z " fill="#E98F45" transform="translate(60.4375,17.75)"/>
<path d="M0 0 C2.48356157 3.05123278 3.67554859 6.07196403 5.1875 9.6875 C5.86554688 10.24695313 6.54359375 10.80640625 7.2421875 11.3828125 C10.01759745 14.67094879 9.74644517 17.88705645 9.75 22 C9.78726307 28.0632346 10.57030241 32.19275532 13.1875 37.6875 C13.5 40.5 13.5 40.5 13.1875 42.6875 C12.1975 43.6775 12.1975 43.6775 11.1875 44.6875 C10.65305261 46.88174129 10.65305261 46.88174129 10.3125 49.375 C9.56025177 53.50940368 8.4525763 56.404592 6.17578125 59.8984375 C5.00987824 62.00904452 4.52671497 64.04094845 3.9375 66.375 C2.71750928 70.34163648 2.71750928 70.34163648 0.43359375 71.83203125 C-0.96169959 72.41185903 -2.36166283 72.980552 -3.765625 73.5390625 C-7.04690994 75.38008878 -8.40948185 78.30525714 -10.33984375 81.4453125 C-15.10350316 88.69820508 -22.6225346 92.37977594 -30.8125 94.6875 C-40.44888346 95.96715831 -46.77576412 94.31863517 -54.5 88.75 C-61.27292782 82.70928059 -66.8256143 76.99393824 -67.8125 67.6875 C-67.92172274 64.06108811 -67.90695047 60.44010699 -67.875 56.8125 C-67.87048828 55.83796875 -67.86597656 54.8634375 -67.86132812 53.859375 C-67.84960906 51.46868566 -67.83320219 49.0781256 -67.8125 46.6875 C-68.8025 46.3575 -69.7925 46.0275 -70.8125 45.6875 C-74.25565881 39.81758395 -74.04064503 34.89562779 -73.5 28.25 C-73.43876953 27.32767578 -73.37753906 26.40535156 -73.31445312 25.45507812 C-73.16240065 23.19768373 -72.9947611 20.94262206 -72.8125 18.6875 C-73.41707031 18.4090625 -74.02164063 18.130625 -74.64453125 17.84375 C-78.1388759 15.98009952 -81.03456596 13.24336807 -82.8125 9.6875 C-83.16762837 4.2717924 -83.17949949 1.17683265 -79.8125 -3.3125 C-79.0390625 -2.8175 -79.0390625 -2.8175 -78.25 -2.3125 C-73.61417647 -0.41062368 -69.78107517 -0.9208815 -65.19921875 -2.7734375 C-63.96146508 -3.40232959 -62.72848306 -4.04068566 -61.5 -4.6875 C-42.97725018 -13.76692478 -16.57850901 -13.63121852 0 0 Z M-63.3125 -0.0625 C-67.82242672 2.19246336 -71.36977158 1.95844411 -76.3359375 1.73046875 C-77.15320313 1.71628906 -77.97046875 1.70210937 -78.8125 1.6875 C-79.1425 2.0175 -79.4725 2.3475 -79.8125 2.6875 C-79.65048845 6.89980029 -79.30067993 9.10439619 -76.5625 12.375 C-74.00915792 14.52212857 -71.45408663 16.6497046 -68.8125 18.6875 C-69.1425 19.3475 -69.4725 20.0075 -69.8125 20.6875 C-70.0492715 23.84869798 -69.99768001 27.01839738 -70 30.1875 C-70.01224609 31.06792969 -70.02449219 31.94835938 -70.03710938 32.85546875 C-70.03904297 33.69722656 -70.04097656 34.53898437 -70.04296875 35.40625 C-70.04913208 36.56543945 -70.04913208 36.56543945 -70.05541992 37.74804688 C-69.98426616 39.92489713 -69.98426616 39.92489713 -67.8125 41.6875 C-67.1525 35.4175 -66.4925 29.1475 -65.8125 22.6875 C-65.4825 25.3275 -65.1525 27.9675 -64.8125 30.6875 C-64.23242188 30.58050781 -63.65234375 30.47351562 -63.0546875 30.36328125 C-57.52143483 29.51411871 -54.80736089 29.89967066 -49.8125 32.6875 C-47.51362992 32.49219849 -47.51362992 32.49219849 -45.8125 31.6875 C-44.83129536 34.74013664 -44.83129536 36.63486336 -45.8125 39.6875 C-44.24822266 40.13029297 -44.24822266 40.13029297 -42.65234375 40.58203125 C-37.39203463 42.83644945 -35.71963243 47.43645989 -33.375 52.375 C-32.92962891 53.26767578 -32.48425781 54.16035156 -32.02539062 55.08007812 C-30.9344598 57.27367021 -29.86471375 59.47514497 -28.8125 61.6875 C-30.4625 59.7075 -32.1125 57.7275 -33.8125 55.6875 C-34.45316406 55.9040625 -35.09382813 56.120625 -35.75390625 56.34375 C-41.98746943 58.35038137 -47.38465924 59.83011359 -53.8125 57.6875 C-54.1425 58.0175 -54.4725 58.3475 -54.8125 58.6875 C-55.4725 54.0675 -56.1325 49.4475 -56.8125 44.6875 C-54.98958333 43.45052083 -53.16666667 42.21354167 -51.34375 40.9765625 C-50.8384375 40.55117187 -50.333125 40.12578125 -49.8125 39.6875 C-49.8125 39.0275 -49.8125 38.3675 -49.8125 37.6875 C-50.34875 38.038125 -50.885 38.38875 -51.4375 38.75 C-54.54353527 39.97606655 -56.58545161 39.31887903 -59.8125 38.6875 C-60.8025 39.1825 -60.8025 39.1825 -61.8125 39.6875 C-59.8125 36.6875 -59.8125 36.6875 -57.8671875 36.17578125 C-57.14789063 36.11777344 -56.42859375 36.05976562 -55.6875 36 C-53.769375 35.8453125 -53.769375 35.8453125 -51.8125 35.6875 C-52.803255 34.02108994 -52.803255 34.02108994 -54.8125 32.6875 C-57.56729755 32.35559668 -60.01667366 32.50712411 -62.8125 32.6875 C-64.89485634 34.76985634 -64.02519196 39.23338029 -64.05078125 42.10546875 C-64.058853 42.95546951 -64.06692474 43.80547028 -64.07524109 44.68122864 C-64.08910184 46.48611399 -64.09981505 48.29102577 -64.10766602 50.09594727 C-64.12482148 52.84637949 -64.16868138 55.59559187 -64.21289062 58.34570312 C-64.22302233 60.09894949 -64.23153694 61.85220609 -64.23828125 63.60546875 C-64.25578934 64.42444138 -64.27329742 65.243414 -64.29133606 66.08720398 C-64.27124434 71.42423556 -63.36421675 74.45653126 -59.8125 78.6875 C-57.71210669 80.07618516 -57.71210669 80.07618516 -55.8125 80.6875 C-55.8125 80.0275 -55.8125 79.3675 -55.8125 78.6875 C-54.4203125 79.6465625 -54.4203125 79.6465625 -53 80.625 C-47.67099186 84.07318174 -43.00607772 84.24879298 -36.8125 83.6875 C-33.52808321 82.42111924 -33.52808321 82.42111924 -30.8125 80.6875 C-29.15339996 80.00221955 -27.48917436 79.32858137 -25.8125 78.6875 C-32.24709944 85.47957719 -32.24709944 85.47957719 -38.08984375 85.953125 C-39.29769531 85.94796875 -40.50554688 85.9428125 -41.75 85.9375 C-42.95527344 85.94265625 -44.16054688 85.9478125 -45.40234375 85.953125 C-48.65373725 85.6998664 -50.89216971 85.08393877 -53.8125 83.6875 C-49.15484668 88.75612273 -45.17013027 91.77412829 -38.1875 92.1875 C-28.46286498 91.83653573 -20.64586831 87.20956831 -13.65234375 80.75 C-9.81991112 76.4537698 -8.3140221 72.48038992 -7.125 66.875 C-6.87363281 65.71355469 -6.62226562 64.55210938 -6.36328125 63.35546875 C-6.18152344 62.47503906 -5.99976562 61.59460938 -5.8125 60.6875 C-5.1525 60.6875 -4.4925 60.6875 -3.8125 60.6875 C0.16677856 60.51448789 1.71639042 60.18407496 4.5 57.25 C6.64536275 52.72090087 6.9914691 48.64708167 7.1875 43.6875 C5.5375 43.6875 3.8875 43.6875 2.1875 43.6875 C1.14300089 46.82099732 1.25326355 47.67718256 2.1875 50.6875 C1.5275 50.6875 0.8675 50.6875 0.1875 50.6875 C-1.43764468 52.14583358 -1.43764468 52.14583358 -2.8125 53.6875 C-2.3175 52.6975 -2.3175 52.6975 -1.8125 51.6875 C-1.31207854 48.77211971 -1.31207854 48.77211971 -1.8125 45.6875 C-2.575625 45.089375 -3.33875 44.49125 -4.125 43.875 C-8.00289642 40.71857268 -8.95646037 37.54518523 -9.8125 32.6875 C-10.03980095 28.00806529 -9.99225599 23.36781347 -9.8125 18.6875 C-10.45316406 18.89246094 -11.09382813 19.09742187 -11.75390625 19.30859375 C-12.61886719 19.57800781 -13.48382813 19.84742187 -14.375 20.125 C-15.64537109 20.52525391 -15.64537109 20.52525391 -16.94140625 20.93359375 C-22.85075354 22.48529991 -28.66552696 22.85304419 -34.75 22.8125 C-35.84175537 22.80851196 -35.84175537 22.80851196 -36.95556641 22.80444336 C-56.97254919 22.63415027 -56.97254919 22.63415027 -62.8125 20.6875 C-59.5125 20.3575 -56.2125 20.0275 -52.8125 19.6875 C-53.4725 19.171875 -54.1325 18.65625 -54.8125 18.125 C-58.56583644 15.07541415 -62.18852035 11.8888319 -65.8125 8.6875 C-65.25046875 9.120625 -64.6884375 9.55375 -64.109375 10 C-50.63601311 19.89879649 -40.26875919 21.67012696 -23.625 20.375 C-19.86626637 19.69719557 -18.64005395 19.02603131 -15.8125 16.6875 C-16.41835937 16.54054688 -17.02421875 16.39359375 -17.6484375 16.2421875 C-25.9962275 14.00754833 -32.66324167 10.06266333 -39.5625 4.9375 C-42.65159442 2.79889617 -45.20675185 1.65489584 -48.8125 0.6875 C-40.32551435 1.53619856 -34.38181976 5.74828894 -27.98828125 11.1015625 C-21.85194828 15.57436534 -15.14656196 15.46967725 -7.8125 14.6875 C-4.90673722 13.51778493 -3.03217228 11.90717228 -0.8125 9.6875 C-0.66800159 6.27105657 -0.66800159 6.27105657 -1.8125 2.6875 C-4.26043834 0.86456719 -6.05898307 -0.15940266 -8.8125 -1.3125 C-9.62976563 -1.6734375 -10.44703125 -2.034375 -11.2890625 -2.40625 C-26.8451679 -8.98587162 -48.84717829 -9.61507094 -63.3125 -0.0625 Z " fill="#0D0F0F" transform="translate(96.8125,24.3125)"/>
<path d="M0 0 C0.99837891 -0.00773437 1.99675781 -0.01546875 3.02539062 -0.0234375 C11.32488196 -0.00161109 18.09629816 1.45368144 25.8125 4.625 C26.80765625 5.02460938 27.8028125 5.42421875 28.828125 5.8359375 C31.69564054 7.31885268 33.49095535 8.78732454 35.5625 11.25 C36.125 13.75 36.125 13.75 35.5625 16.25 C30.11793956 21.40800463 26.17537892 21.60758407 18.875 21.51953125 C10.89338485 20.87008379 5.35739996 15.79601588 -0.82421875 11.0546875 C-4.86011843 8.26756395 -7.50598812 7.25 -12.4375 7.25 C-11.90382813 7.45753906 -11.37015625 7.66507813 -10.8203125 7.87890625 C-6.29792905 9.74888833 -2.39808137 11.86336938 1.5625 14.75 C7.32628267 18.92717375 13.40000102 22.32580658 20.5625 23.25 C16.83175601 26.98074399 12.55902653 27.01470651 7.5625 27.25 C5.79519531 27.34667969 5.79519531 27.34667969 3.9921875 27.4453125 C-8.3206774 27.81842962 -15.60658723 24.97948776 -25.40625 17.73828125 C-27.36274124 16.21742713 -27.36274124 16.21742713 -29.4375 15.25 C-28.02260266 16.52280294 -26.60550334 17.7931583 -25.1875 19.0625 C-24.39859375 19.77019531 -23.6096875 20.47789063 -22.796875 21.20703125 C-20.7516444 22.97798424 -18.60182791 24.62675406 -16.4375 26.25 C-21.3875 26.745 -21.3875 26.745 -26.4375 27.25 C-12.8822909 32.22024334 1.26406642 34.1302267 15.44140625 30.6875 C17.5625 30.25 17.5625 30.25 21.5625 30.25 C21.5625 33.55 21.5625 36.85 21.5625 40.25 C20.5725 40.25 19.5825 40.25 18.5625 40.25 C18.02625 39.569375 17.49 38.88875 16.9375 38.1875 C14.14987579 35.91338551 13.56657989 36.02684681 10.125 36.375 C6.70395206 36.91989598 3.73856047 37.84879685 0.5625 39.25 C-0.4275 39.25 -1.4175 39.25 -2.4375 39.25 C-2.7675 38.59 -3.0975 37.93 -3.4375 37.25 C-4.0975 39.89 -4.7575 42.53 -5.4375 45.25 C-6.7575 45.25 -8.0775 45.25 -9.4375 45.25 C-9.251875 44.46625 -9.06625 43.6825 -8.875 42.875 C-8.17787734 40.27910225 -8.17787734 40.27910225 -9.4375 38.25 C-9.97375 38.476875 -10.51 38.70375 -11.0625 38.9375 C-14.46610512 39.38534278 -16.40641876 37.76554062 -19.4375 36.25 C-22.92492555 35.97647643 -25.11541338 36.14263779 -28.4375 37.25 C-28.7675 34.61 -29.0975 31.97 -29.4375 29.25 C-30.0975 35.52 -30.7575 41.79 -31.4375 48.25 C-33.4375 46.25 -33.4375 46.25 -33.66455078 44.32641602 C-33.65407715 43.55998779 -33.64360352 42.79355957 -33.6328125 42.00390625 C-33.62636719 41.16666016 -33.61992188 40.32941406 -33.61328125 39.46679688 C-33.59652344 38.59087891 -33.57976563 37.71496094 -33.5625 36.8125 C-33.55347656 35.94044922 -33.54445313 35.06839844 -33.53515625 34.16992188 C-33.51769801 32.54755256 -33.49614223 30.92521868 -33.46923828 29.30297852 C-33.44320183 27.61882036 -33.4375 25.9343594 -33.4375 24.25 C-34.87957044 22.96358099 -34.87957044 22.96358099 -36.75 21.875 C-39.96283042 19.70276243 -41.88420085 17.90482153 -43.4375 14.25 C-43.625 11.4375 -43.625 11.4375 -43.4375 9.25 C-40.56937867 8.39852648 -38.39718591 8.27662125 -35.4375 8.5625 C-29.98647377 8.66144602 -26.09603888 6.37552181 -21.4296875 3.7578125 C-14.31847961 0.17435787 -7.79637779 -0.06016497 0 0 Z " fill="#EFAC2E" transform="translate(60.4375,17.75)"/>
<path d="M0 0 C8.69245388 -0.94483194 15.1931622 3.42286861 21.8125 8.6875 C22.49957031 9.26886719 23.18664062 9.85023437 23.89453125 10.44921875 C29.97774349 14.92980365 36.72067654 14.75902493 44 14 C47.81862302 12.56448061 49.7321268 10.40180979 52 7 C51.67 8.65 51.34 10.3 51 12 C51.33 12 51.66 12 52 12 C53.9375 12.3125 53.9375 12.3125 56 13 C58.10827055 16.16240582 58.33817465 17.50657469 58.625 21.1875 C58.73714844 22.53908203 58.73714844 22.53908203 58.8515625 23.91796875 C58.90054688 24.60503906 58.94953125 25.29210937 59 26 C59.66 24.68 60.32 23.36 61 22 C61.12117188 22.90363281 61.24234375 23.80726562 61.3671875 24.73828125 C61.53476563 25.91777344 61.70234375 27.09726562 61.875 28.3125 C62.03742188 29.48425781 62.19984375 30.65601563 62.3671875 31.86328125 C62.82300621 35.14530895 62.82300621 35.14530895 65 38 C65.25 40.5625 65.25 40.5625 65 43 C64.01 43.99 64.01 43.99 63 45 C62.39320493 47.32776875 62.39320493 47.32776875 62 49.9375 C61.42540289 53.42099497 61.00936183 54.98595726 59 58 C57.46491972 55.56661348 56.96911696 54.32875493 57.2421875 51.421875 C57.55542969 50.09929687 57.55542969 50.09929687 57.875 48.75 C58.07867187 47.85796875 58.28234375 46.9659375 58.4921875 46.046875 C58.65976563 45.37140625 58.82734375 44.6959375 59 44 C57.35 44.33 55.7 44.66 54 45 C54.495 48.96 54.495 48.96 55 53 C54.67 52.34 54.34 51.68 54 51 C53.34 51 52.68 51 52 51 C51.67 51.99 51.34 52.98 51 54 C50.34 54 49.68 54 49 54 C49.33 51.36 49.66 48.72 50 46 C49.4225 45.79375 48.845 45.5875 48.25 45.375 C44.58017376 43.13232841 42.48005067 39.83348385 41.39453125 35.6875 C40.95538455 32.69608489 40.8674894 29.83551843 40.875 26.8125 C40.87113281 25.24435547 40.87113281 25.24435547 40.8671875 23.64453125 C41 21 41 21 42 19 C41.03900391 19.41572266 41.03900391 19.41572266 40.05859375 19.83984375 C39.19363281 20.20207031 38.32867187 20.56429687 37.4375 20.9375 C36.59058594 21.29714844 35.74367187 21.65679687 34.87109375 22.02734375 C29.04615802 24.00068932 23.16129078 24.16634773 17.0625 24.125 C16.33393799 24.12161621 15.60537598 24.11823242 14.85473633 24.11474609 C-7.3042965 23.90968026 -7.3042965 23.90968026 -12 21 C-9.95301586 18.95301586 -5.69588759 19.29954307 -3 19 C-3.51949219 18.63648437 -4.03898437 18.27296875 -4.57421875 17.8984375 C-9.09730013 14.63780582 -12.62064189 11.43540752 -16 7 C-12.82166979 8.46580526 -10.17656437 10.28523374 -7.375 12.375 C5.12215929 21.08844876 17.16811251 21.26249131 32 19 C32.66 18.67 33.32 18.34 34 18 C33.24976563 17.72027344 32.49953125 17.44054687 31.7265625 17.15234375 C25.28354922 14.62869497 19.93885938 11.75705696 14.390625 7.640625 C11.38283524 5.57645555 8.28603707 4.17824717 4.91015625 2.82421875 C3 2 3 2 0 0 Z " fill="#14100D" transform="translate(45,24)"/>
<path d="M0 0 C-0.03480469 0.90621094 -0.06960937 1.81242187 -0.10546875 2.74609375 C-0.42925914 13.24796001 -0.42925914 13.24796001 3 23 C4.65533995 24.34736973 6.32012773 25.68334336 8 27 C8.38172649 30.18105412 8.43735246 32.12529507 7 35 C7.45375 34.505 7.9075 34.01 8.375 33.5 C10 32 10 32 12 32 C11.814375 31.030625 11.62875 30.06125 11.4375 29.0625 C11.293125 28.051875 11.14875 27.04125 11 26 C12 25 12 25 14.5625 24.9375 C15.7690625 24.9684375 15.7690625 24.9684375 17 25 C16.75311546 31.24617874 16.50586649 36.25057316 12 41 C9.17758157 41.79027716 6.90411566 42 4 42 C3.70609375 43.46759766 3.70609375 43.46759766 3.40625 44.96484375 C1.5010918 53.64106713 -0.67899284 60.35303957 -8 66 C-16.16954414 70.87687616 -23.41006232 74.03559978 -33 73 C-37.71975419 71.47162323 -41.47580609 69.41733934 -44 65 C-42.97132812 65.47953125 -42.97132812 65.47953125 -41.921875 65.96875 C-35.68810485 68.16890417 -28.13738888 68.4467316 -22.0859375 65.65625 C-19.93253667 64.20697706 -17.93885712 62.72342855 -16 61 C-16.66 60.34 -17.32 59.68 -18 59 C-16.2421875 58.12109375 -14.484375 57.2421875 -12.7265625 56.36328125 C-10.28957103 54.43905043 -9.82311467 53.00737994 -9 50 C-8.62982505 46.14769431 -8.58604523 42.28547136 -8.52148438 38.41796875 C-8.49505859 37.63808594 -8.46863281 36.85820313 -8.44140625 36.0546875 C-8.42795166 35.34812012 -8.41449707 34.64155273 -8.40063477 33.91357422 C-8 32 -8 32 -6.49072266 30.59301758 C-4.32592076 28.27966475 -4.65753733 26.57514816 -4.70703125 23.45703125 C-4.71669922 22.38388672 -4.72636719 21.31074219 -4.73632812 20.20507812 C-4.76146484 19.08552734 -4.78660156 17.96597656 -4.8125 16.8125 C-4.82603516 15.68134766 -4.83957031 14.55019531 -4.85351562 13.38476562 C-4.88890042 10.58936683 -4.93827052 7.79492108 -5 5 C-5.85980469 5.2165625 -6.71960938 5.433125 -7.60546875 5.65625 C-20.2537988 8.63557311 -31.30431044 8.55780804 -44 6 C-44.9384375 5.81308594 -45.876875 5.62617187 -46.84375 5.43359375 C-47.5553125 5.29050781 -48.266875 5.14742187 -49 5 C-49 4.67 -49 4.34 -49 4 C-47.62448975 4.01571045 -47.62448975 4.01571045 -46.22119141 4.03173828 C-42.77324844 4.06610894 -39.32549126 4.09103794 -35.87744141 4.10986328 C-34.39368796 4.11983431 -32.90995371 4.13341605 -31.42626953 4.15087891 C-20.65086374 4.27440008 -10.03146488 0 0 0 Z " fill="#D76A2B" transform="translate(87,43)"/>
<path d="M0 0 C0.33 0 0.66 0 1 0 C1.0093457 1.11971191 1.01869141 2.23942383 1.02832031 3.39306641 C1.06832161 7.56436316 1.13410805 11.73493022 1.20751953 15.90576172 C1.23567053 17.70774939 1.25691422 19.50985919 1.27099609 21.31201172 C1.29250755 23.90916198 1.33919757 26.50485295 1.390625 29.1015625 C1.39185364 29.9017984 1.39308228 30.7020343 1.39434814 31.52651978 C1.53064925 36.78218732 2.51582664 39.83593003 6 44 C6.99 44.66 7.98 45.32 9 46 C9 45.34 9 44.68 9 44 C9.8353125 44.433125 9.8353125 44.433125 10.6875 44.875 C11.450625 45.24625 12.21375 45.6175 13 46 C13.70125 46.37125 14.4025 46.7425 15.125 47.125 C20.58178491 48.78576063 25.98256179 48.85353155 31.25 46.625 C32.1575 46.08875 33.065 45.5525 34 45 C35.98867713 44.30028027 37.98608051 43.62335603 40 43 C38.26224801 46.9866075 36.31961031 48.80765569 32.62890625 51.0234375 C26.63485849 53.25005257 19.03387995 53.01129332 13 51 C19.53203391 55.49984558 24.13968965 56.92536807 32 56 C40.73923674 53.49826728 48.26865912 49.2737516 53.578125 41.76953125 C55.32797683 38.36116601 56.27805681 34.88543046 57.1875 31.1875 C57.36474609 30.49462891 57.54199219 29.80175781 57.72460938 29.08789062 C58.15690974 27.39374056 58.57945894 25.69710732 59 24 C59.92039063 24.21527344 60.84078125 24.43054688 61.7890625 24.65234375 C64.878583 25.28855989 64.878583 25.28855989 66.8984375 24.00390625 C67.38570313 23.52824219 67.87296875 23.05257812 68.375 22.5625 C69.24125 21.716875 70.1075 20.87125 71 20 C71.625 21.8125 71.625 21.8125 72 24 C71.01 25.485 71.01 25.485 70 27 C69.60377709 28.47362357 69.23036094 29.95349271 68.875 31.4375 C67.5459757 35.64045503 67.5459757 35.64045503 65.23828125 37.16015625 C63.84405872 37.73112357 62.44677766 38.29466691 61.046875 38.8515625 C57.76559006 40.69258878 56.40301815 43.61775714 54.47265625 46.7578125 C49.70899684 54.01070508 42.1899654 57.69227594 34 60 C24.36361654 61.27965831 18.03673588 59.63113517 10.3125 54.0625 C-1.53134699 43.4990689 -1.53134699 43.4990689 -2.3125 36 C-2.209375 35.34 -2.10625 34.68 -2 34 C-1.34 34 -0.68 34 0 34 C0 22.78 0 11.56 0 0 Z " fill="#0A0C0D" transform="translate(32,59)"/>
<path d="M0 0 C2.02323613 0.95211112 4.02699884 1.94773272 6 3 C6.99 3 7.98 3 9 3 C9.66 2.34 10.32 1.68 11 1 C12.23076923 6.41538462 12.23076923 6.41538462 11.0625 9.375 C10.5365625 10.179375 10.5365625 10.179375 10 11 C10.9075 11.061875 11.815 11.12375 12.75 11.1875 C16.92108902 12.23027225 17.55852889 13.50163497 20 17 C21.54587769 19.67829057 22.94086726 22.41665141 24.3125 25.1875 C24.8703418 26.27321289 24.8703418 26.27321289 25.43945312 27.38085938 C26.35928878 29.2222436 27.18765752 31.10873238 28 33 C27.505 33.99 27.505 33.99 27 35 C25.35 32.69 23.7 30.38 22 28 C21.35933594 28.2165625 20.71867187 28.433125 20.05859375 28.65625 C14.91781934 30.31110436 10.46610017 31.55776532 5 31 C4.01 30.34 3.02 29.68 2 29 C1.34 30.98 0.68 32.96 0 35 C-1.10470134 31.68589597 -0.69905409 30.32050692 0 27 C-0.33 26.67 -0.66 26.34 -1 26 C-1.07205511 24.31391034 -1.08386068 22.62499341 -1.0625 20.9375 C-1.05347656 20.01839844 -1.04445313 19.09929687 -1.03515625 18.15234375 C-1.01775391 17.08693359 -1.01775391 17.08693359 -1 16 C-1.66 15.67 -2.32 15.34 -3 15 C-2.2575 14.7525 -1.515 14.505 -0.75 14.25 C2.20124062 12.90852699 3.84814974 11.39094474 6 9 C5.505 9.515625 5.01 10.03125 4.5 10.5625 C0.75285548 12.7171081 -1.80844613 11.76845154 -6 11 C-5.4375 9.0625 -5.4375 9.0625 -4 7 C-0.375 6.25 -0.375 6.25 3 6 C0.59454362 4.79727181 -0.94996953 4.89928528 -3.625 4.9375 C-4.44226562 4.94652344 -5.25953125 4.95554687 -6.1015625 4.96484375 C-6.72804687 4.97644531 -7.35453125 4.98804688 -8 5 C-8.33 4.01 -8.66 3.02 -9 2 C-5.47089647 -0.35273568 -4.15685632 -0.40753493 0 0 Z " fill="#110D0D" transform="translate(41,53)"/>
<path d="M0 0 C5.33055609 0.4481441 10.55311609 1.07505242 15.8125 2.0625 C24.97493876 3.62681881 33.83015064 3.63483694 42.87890625 1.4375 C45 1 45 1 49 1 C49 4.3 49 7.6 49 11 C48.01 11 47.02 11 46 11 C45.46375 10.319375 44.9275 9.63875 44.375 8.9375 C41.58737579 6.66338551 41.00407989 6.77684681 37.5625 7.125 C34.14145206 7.66989598 31.17606047 8.59879685 28 10 C27.01 10 26.02 10 25 10 C24.67 9.34 24.34 8.68 24 8 C23.34 10.64 22.68 13.28 22 16 C20.68 16 19.36 16 18 16 C18.185625 15.21625 18.37125 14.4325 18.5625 13.625 C19.25962266 11.02910225 19.25962266 11.02910225 18 9 C17.46375 9.226875 16.9275 9.45375 16.375 9.6875 C14 10 14 10 11.25 8.5625 C7.12732828 6.58044629 4.52380048 6.76601032 0 7 C0 4.69 0 2.38 0 0 Z " fill="#E98E44" transform="translate(33,47)"/>
<path d="M0 0 C3.53571429 0.53571429 3.53571429 0.53571429 5 2 C5.07244053 4.01964199 5.08377188 6.04167124 5.0625 8.0625 C5.05347656 9.16722656 5.04445313 10.27195312 5.03515625 11.41015625 C5.02355469 12.26480469 5.01195313 13.11945312 5 14 C4.34 13.34 3.68 12.68 3 12 C4.00193437 15.79303725 4.81024227 18.71536341 7 22 C1.98886765 20.5682479 0.05530451 18.01554307 -3 14 C-2.46585393 17.64999818 -1.52938193 19.57666975 1.359375 21.88671875 C3.18164303 23.11443323 5.02280477 24.3146251 6.8828125 25.484375 C7.58148438 25.98453125 8.28015625 26.4846875 9 27 C9 27.66 9 28.32 9 29 C5.7 28.34 2.4 27.68 -1 27 C-0.67 28.32 -0.34 29.64 0 31 C-2.95339974 29.9815863 -3.93197924 29.10939592 -5.60546875 26.41796875 C-7.20132076 22.50656677 -7.51553242 19.09630415 -7.5 14.9375 C-7.52835937 14.24333984 -7.55671875 13.54917969 -7.5859375 12.83398438 C-7.60101908 8.86375744 -7.17115084 7.20421407 -4.59375 4.12890625 C-3.7378125 3.42636719 -2.881875 2.72382812 -2 2 C-1.34 1.34 -0.68 0.68 0 0 Z " fill="#DD8529" transform="translate(97,36)"/>
<path d="M0 0 C5.34743805 0.2673719 8.17619779 2.34970075 12.16796875 5.625 C14.05934951 7.19564501 14.05934951 7.19564501 17 8 C16.38722388 5.03824877 15.74627478 3.61941217 14 1 C16.23490519 2.00185405 17.82569289 2.8111673 19.5 4.625 C21.152294 6.45048309 21.152294 6.45048309 25 6 C23.68 4.68 22.36 3.36 21 2 C26.75 3.875 26.75 3.875 29 5 C29 4.34 29 3.68 29 3 C32.65316671 4.24976756 33.78065836 4.67098753 36 8 C36.4375 10.4375 36.4375 10.4375 36 13 C31.36632898 17.3897936 28.64725391 18.12399269 22.375 18.0625 C21.18648437 18.05347656 19.99796875 18.04445313 18.7734375 18.03515625 C17.85820313 18.02355469 16.94296875 18.01195313 16 18 C17.32 16.68 18.64 15.36 20 14 C19.319375 13.814375 18.63875 13.62875 17.9375 13.4375 C15.06997971 12.03424539 13.82137733 10.91059797 11.6875 8.625 C8.15715192 4.90024949 4.68080155 3.05298314 0 1 C0 0.67 0 0.34 0 0 Z " fill="#DD8929" transform="translate(60,21)"/>
<path d="M0 0 C3.80470451 0.7133821 5.41196019 1.67868421 8 4.5625 C9.27176524 8.67703459 9.50686067 10.59101705 7.5 14.4375 C4.25293011 17.1975094 2.23692038 17.5625 -2 17.5625 C-4.94755732 16.21687601 -6.54277272 15.47695456 -8 12.5625 C-8.49512681 8.18887986 -8.49223866 6.24294756 -5.875 2.625 C-3 0.5625 -3 0.5625 0 0 Z " fill="#F10A13" transform="translate(50,64.4375)"/>
<path d="M0 0 C0.33 0 0.66 0 1 0 C1.0093457 1.11971191 1.01869141 2.23942383 1.02832031 3.39306641 C1.06832161 7.56436316 1.13410805 11.73493022 1.20751953 15.90576172 C1.23567053 17.70774939 1.25691422 19.50985919 1.27099609 21.31201172 C1.29250755 23.90916198 1.33919757 26.50485295 1.390625 29.1015625 C1.39185364 29.9017984 1.39308228 30.7020343 1.39434814 31.52651978 C1.53064925 36.78218732 2.51582664 39.83593003 6 44 C6.99 44.66 7.98 45.32 9 46 C9 45.34 9 44.68 9 44 C9.8353125 44.433125 9.8353125 44.433125 10.6875 44.875 C11.450625 45.24625 12.21375 45.6175 13 46 C13.70125 46.37125 14.4025 46.7425 15.125 47.125 C20.58178491 48.78576063 25.98256179 48.85353155 31.25 46.625 C32.1575 46.08875 33.065 45.5525 34 45 C35.98867713 44.30028027 37.98608051 43.62335603 40 43 C38.26224801 46.9866075 36.31961031 48.80765569 32.62890625 51.0234375 C26.63485849 53.25005257 19.03387995 53.01129332 13 51 C13.99 51.99 14.98 52.98 16 54 C15.01 54.66 14.02 55.32 13 56 C6.76274938 51.18840667 1.46499402 46.16098764 -2 39 C-2.3125 36 -2.3125 36 -2 34 C-1.34 34 -0.68 34 0 34 C0 22.78 0 11.56 0 0 Z " fill="#262018" transform="translate(32,59)"/>
<path d="M0 0 C3.17833021 1.46580526 5.82343563 3.28523374 8.625 5.375 C20.35375685 13.49881427 31.05736531 13.7767947 45 14 C45 14.66 45 15.32 45 16 C41.13468104 17.25523245 37.26725664 17.15127731 33.25 17.125 C32.50790283 17.12161621 31.76580566 17.11823242 31.0012207 17.11474609 C8.69948667 16.91202449 8.69948667 16.91202449 4 14 C6.04698414 11.95301586 10.30411241 12.29954307 13 12 C12.48050781 11.63648438 11.96101563 11.27296875 11.42578125 10.8984375 C6.90269987 7.63780582 3.37935811 4.43540752 0 0 Z " fill="#0A0A0B" transform="translate(29,31)"/>
<path d="M0 0 C11.86136088 -0.29986586 20.2888734 0.89237945 31 6 C31 6.66 31 7.32 31 8 C28.525 7.505 28.525 7.505 26 7 C26.99 8.485 26.99 8.485 28 10 C24.39703406 10.41176754 23.21597933 10.1535853 20.1875 8 C19.465625 7.34 18.74375 6.68 18 6 C18.99 7.485 18.99 7.485 20 9 C19.67 9.66 19.34 10.32 19 11 C15.54886992 10.37109247 13.29089877 9.00848374 10.4375 7 C7.87124752 5.19972845 5.99469411 3.99823137 3 3 C3 2.34 3 1.68 3 1 C2.01 0.67 1.02 0.34 0 0 Z " fill="#F0AC30" transform="translate(58,18)"/>
<path d="M0 0 C2.375 1.375 2.375 1.375 4 3 C4 3.66 4 4.32 4 5 C3.22914062 4.98839844 2.45828125 4.97679687 1.6640625 4.96484375 C0.66117188 4.95582031 -0.34171875 4.94679688 -1.375 4.9375 C-2.87160156 4.92009766 -2.87160156 4.92009766 -4.3984375 4.90234375 C-6.98432453 4.81993398 -6.98432453 4.81993398 -9 6 C-7.989375 6.12375 -6.97875 6.2475 -5.9375 6.375 C-2.12062388 6.98085335 1.31500112 7.87193912 5 9 C1.81235914 10.88897236 -0.33701169 11.08934118 -4 11 C-4.845625 11.185625 -5.69125 11.37125 -6.5625 11.5625 C-9 12 -9 12 -11.125 11.4375 C-12.053125 11.2209375 -12.053125 11.2209375 -13 11 C-13.99 11.66 -14.98 12.32 -16 13 C-15.67 11.35 -15.34 9.7 -15 8 C-15.99 7.67 -16.98 7.34 -18 7 C-18.33 5.02 -18.66 3.04 -19 1 C-18.01 1.495 -18.01 1.495 -17 2 C-17 2.66 -17 3.32 -17 4 C-16.27554688 3.71125 -15.55109375 3.4225 -14.8046875 3.125 C-4.61484348 -0.78790011 -4.61484348 -0.78790011 0 0 Z " fill="#1D1510" transform="translate(75,53)"/>
<path d="M0 0 C0.08636719 0.59167969 0.17273438 1.18335938 0.26171875 1.79296875 C1.25374892 7.37200081 2.41262228 10.35094954 7 14 C8.093125 14.721875 9.18625 15.44375 10.3125 16.1875 C11.199375 16.785625 12.08625 17.38375 13 18 C13 18.66 13 19.32 13 20 C9.7 19.34 6.4 18.68 3 18 C3.33 19.32 3.66 20.64 4 22 C1.22400762 21.04276125 0.03522248 20.04654399 -1.75 17.6875 C-3.62097416 12.16812623 -3.23132884 6.77465339 -3 1 C-1 0 -1 0 0 0 Z " fill="#E08629" transform="translate(93,45)"/>
<path d="M0 0 C1.32 0.33 2.64 0.66 4 1 C4.09796875 1.69867188 4.1959375 2.39734375 4.296875 3.1171875 C4.44640625 4.02726562 4.5959375 4.93734375 4.75 5.875 C4.88921875 6.77992187 5.0284375 7.68484375 5.171875 8.6171875 C5.78296647 11.11451262 5.78296647 11.11451262 7.85546875 12.328125 C11.18809012 13.37222496 13.65554402 12.85131607 17 12 C18.00642948 10.67151309 19.00692179 9.33849671 20 8 C23.1875 7.75 23.1875 7.75 26 8 C26.86375896 9.61992165 27.71575854 11.24611861 28.5625 12.875 C29.03816406 13.77992187 29.51382813 14.68484375 30.00390625 15.6171875 C30.33261719 16.40351562 30.66132812 17.18984375 31 18 C30.67 18.66 30.34 19.32 30 20 C28.35 17.69 26.7 15.38 25 13 C24.03900391 13.32484375 24.03900391 13.32484375 23.05859375 13.65625 C17.91781934 15.31110436 13.46610017 16.55776532 8 16 C7.01 15.34 6.02 14.68 5 14 C4.34 15.98 3.68 17.96 3 20 C1.89529866 16.68589597 2.30094591 15.32050692 3 12 C2.67 11.67 2.34 11.34 2 11 C1.92794489 9.31391034 1.91613932 7.62499341 1.9375 5.9375 C1.94652344 5.01839844 1.95554688 4.09929687 1.96484375 3.15234375 C1.97644531 2.44207031 1.98804688 1.73179688 2 1 C1.34 0.67 0.68 0.34 0 0 Z " fill="#0C080C" transform="translate(38,68)"/>
<path d="M0 0 C6.16939111 0.48040341 12.09953626 1.06893914 18 3 C18.33 3.99 18.66 4.98 19 6 C16.875 7.625 16.875 7.625 14 9 C11.1875 8.1875 11.1875 8.1875 8 7 C5.305646 6.81972677 2.70464953 6.90673622 0 7 C0 4.69 0 2.38 0 0 Z " fill="#EE964A" transform="translate(33,47)"/>
<path d="M0 0 C0.66 0.33 1.32 0.66 2 1 C3.96709421 10.61292885 2.92287655 21.00032549 2.5625 30.75 C2.50912811 32.33331197 2.4563895 33.91664542 2.40429688 35.5 C2.27681522 39.33361958 2.14082139 43.16684821 2 47 C1.34 47 0.68 47 0 47 C0.00523682 46.23856689 0.01047363 45.47713379 0.01586914 44.69262695 C0.03669525 41.23259308 0.04967813 37.77257241 0.0625 34.3125 C0.07087891 33.11431641 0.07925781 31.91613281 0.08789062 30.68164062 C0.09111328 29.52470703 0.09433594 28.36777344 0.09765625 27.17578125 C0.10289307 26.11270752 0.10812988 25.04963379 0.11352539 23.9543457 C0.00690121 21.17959476 -0.44209378 18.71111054 -1 16 C-0.91524079 13.20841451 -0.7786517 10.46765808 -0.5625 7.6875 C-0.51029297 6.94693359 -0.45808594 6.20636719 -0.40429688 5.44335938 C-0.27549848 3.62847291 -0.13856738 1.81416675 0 0 Z " fill="#030407" transform="translate(30,46)"/>
<path d="M0 0 C3.81014932 1.27004977 4.17627457 2.51113397 6 6 C6.309375 6.845625 6.61875 7.69125 6.9375 8.5625 C7.84882921 11.13912797 7.84882921 11.13912797 10.125 12.8125 C12.45651628 15.53260232 12.44429408 17.51164097 12.2734375 21.02734375 C11.92146788 23.56655314 11.14364397 25.71271206 10 28 C9.67 28 9.34 28 9 28 C8.95101562 27.24074219 8.90203125 26.48148438 8.8515625 25.69921875 C8.77679688 24.70535156 8.70203125 23.71148437 8.625 22.6875 C8.55539063 21.70136719 8.48578125 20.71523438 8.4140625 19.69921875 C8.16134528 16.78471567 8.16134528 16.78471567 6 14 C4.02 14.33 2.04 14.66 0 15 C0.66 14.01 1.32 13.02 2 12 C1.73678649 8.9072412 1.26557916 6.53115833 -0.125 3.75 C-0.41375 3.1725 -0.7025 2.595 -1 2 C-0.67 1.34 -0.34 0.68 0 0 Z " fill="#060B11" transform="translate(94,23)"/>
<path d="M0 0 C8.69245388 -0.94483194 15.1931622 3.42286861 21.8125 8.6875 C22.49957031 9.26886719 23.18664062 9.85023437 23.89453125 10.44921875 C27.62312785 13.19551346 31.24531586 14.21599844 35.8125 14.625 C36.60269531 14.69976562 37.39289063 14.77453125 38.20703125 14.8515625 C38.79871094 14.90054688 39.39039063 14.94953125 40 15 C39.01 15.33 38.02 15.66 37 16 C36.67 16.66 36.34 17.32 36 18 C26.98283942 15.81285892 19.78928256 11.91950467 12.4375 6.3125 C8.65688889 3.5086975 4.49476558 2.2536421 0 1 C0 0.67 0 0.34 0 0 Z " fill="#20190E" transform="translate(45,24)"/>
<path d="M0 0 C0.91058531 3.07322544 1.08886184 5.80097361 1 9 C1.66 8.34 2.32 7.68 3 7 C4.50296 17.01973334 3.64602167 26.93612504 3 37 C2.67 37 2.34 37 2 37 C2 30.07 2 23.14 2 16 C1.01 15.67 0.02 15.34 -1 15 C-2.81930177 11.62129672 -4.05112626 9.12477779 -3.875 5.25 C-2.94109032 2.84851796 -1.97239152 1.6293669 0 0 Z " fill="#111414" transform="translate(27,55)"/>
<path d="M0 0 C3.3 0 6.6 0 10 0 C8.02 0.99 8.02 0.99 6 2 C6.99 2.66 7.98 3.32 9 4 C7.68 4 6.36 4 5 4 C5.33 6.64 5.66 9.28 6 12 C5.34 12 4.68 12 4 12 C3.67 9.36 3.34 6.72 3 4 C2.34 10.27 1.68 16.54 1 23 C-1 21 -1 21 -1.24291992 19.06054688 C-1.23881104 18.28775391 -1.23470215 17.51496094 -1.23046875 16.71875 C-1.22853516 15.87699219 -1.22660156 15.03523438 -1.22460938 14.16796875 C-1.21236328 13.28753906 -1.20011719 12.40710937 -1.1875 11.5 C-1.18685547 10.61957031 -1.18621094 9.73914062 -1.18554688 8.83203125 C-1.14040057 2.28080115 -1.14040057 2.28080115 0 0 Z " fill="#7E632A" transform="translate(28,43)"/>
<path d="M0 0 C0 3 0 3 -1.4765625 4.60546875 C-8.44427738 9.73624062 -14.55870208 9.64840695 -23 9 C-22.01 8.67 -21.02 8.34 -20 8 C-20 7.34 -20 6.68 -20 6 C-19.18015625 5.89042969 -18.3603125 5.78085938 -17.515625 5.66796875 C-16.43796875 5.50941406 -15.3603125 5.35085937 -14.25 5.1875 C-13.18265625 5.03667969 -12.1153125 4.88585937 -11.015625 4.73046875 C-7.91144532 3.97854958 -6.40960687 3.02234863 -4 1 C-1.75 0.3125 -1.75 0.3125 0 0 Z " fill="#1C130E" transform="translate(71,102)"/>
<path d="M0 0 C2.9719385 1.12451727 5.33440687 2.22293791 8 4 C6.75023244 7.65316671 6.32901247 8.78065836 3 11 C0.3125 11.125 0.3125 11.125 -2 11 C-1.85892253 9.54119891 -1.71197585 8.08296449 -1.5625 6.625 C-1.48128906 5.81289062 -1.40007812 5.00078125 -1.31640625 4.1640625 C-1 2 -1 2 0 0 Z " fill="#19110D" transform="translate(91,83)"/>
<path d="M0 0 C0.33 0 0.66 0 1 0 C1.33 3.3 1.66 6.6 2 10 C2.66 8.68 3.32 7.36 4 6 C4 9.96 4 13.92 4 18 C-0.57008529 15.71495736 -1.18905096 14.61792005 -3 10 C-3.1875 7.125 -3.1875 7.125 -3 5 C-2.01 6.485 -2.01 6.485 -1 8 C-0.67 5.36 -0.34 2.72 0 0 Z " fill="#2A1D11" transform="translate(102,40)"/>
<path d="M0 0 C0.33 0 0.66 0 1 0 C1.165 1.051875 1.33 2.10375 1.5 3.1875 C2.46371601 6.58804078 3.78630335 7.92342618 6.75 9.8125 C10.05010033 11.64321259 13.35138384 12.99663056 17 14 C17 14.33 17 14.66 17 15 C12.28809898 15.37695208 8.92629407 15.46314703 4.625 13.3125 C1.14885572 10.25018242 -0.82373108 7.93895808 -1.25 3.25 C-1 1 -1 1 0 0 Z " fill="#E1AD44" transform="translate(18,26)"/>
<path d="M0 0 C1.32 0.33 2.64 0.66 4 1 C4.09796875 1.68707031 4.1959375 2.37414062 4.296875 3.08203125 C4.52117188 4.43361328 4.52117188 4.43361328 4.75 5.8125 C4.88921875 6.70582031 5.0284375 7.59914063 5.171875 8.51953125 C6.18453147 11.55272399 7.27022862 12.4110286 10 14 C12.64934822 14.71433121 12.64934822 14.71433121 15 15 C15 15.33 15 15.66 15 16 C8.375 16.25 8.375 16.25 5 14 C4.34 15.98 3.68 17.96 3 20 C1.89529866 16.68589597 2.30094591 15.32050692 3 12 C2.67 11.67 2.34 11.34 2 11 C1.92794489 9.31391034 1.91613932 7.62499341 1.9375 5.9375 C1.94652344 5.01839844 1.95554688 4.09929687 1.96484375 3.15234375 C1.97644531 2.44207031 1.98804688 1.73179688 2 1 C1.34 0.67 0.68 0.34 0 0 Z " fill="#271110" transform="translate(38,68)"/>
<path d="M0 0 C0.33 0 0.66 0 1 0 C1.03738281 0.72445312 1.07476562 1.44890625 1.11328125 2.1953125 C1.60151678 9.37524681 2.98317875 13.97476812 7 20 C6.01 20.66 5.02 21.32 4 22 C-1.7326036 15.67943706 -1.7326036 15.67943706 -2 11 C-1.67 10.67 -1.34 10.34 -1 10 C-0.76712992 8.31816052 -0.58735834 6.6287584 -0.4375 4.9375 C-0.35371094 4.01839844 -0.26992187 3.09929688 -0.18359375 2.15234375 C-0.12300781 1.44207031 -0.06242187 0.73179688 0 0 Z " fill="#1B160F" transform="translate(89,48)"/>
<path d="M0 0 C5.25498892 1.55065247 9.79892272 3.34140627 14.5625 6.0625 C19.04384509 8.60613672 22.94893616 10.04696909 28 11 C28 11.33 28 11.66 28 12 C17.70573641 13.4411969 8.11597018 6.77245295 0 1 C0 0.67 0 0.34 0 0 Z " fill="#2E2410" transform="translate(37,30)"/>
<path d="M0 0 C6.51980395 0.16717446 10.21073214 4.06503398 15 8 C18.92292288 10.84604209 22.33383606 12.6668103 27 14 C27 14.33 27 14.66 27 15 C20.17530868 15.11058528 16.66057501 13.50009526 11.77734375 8.78125 C11.19082031 8.1934375 10.60429688 7.605625 10 7 C6.7621857 4.21397374 4.0498555 2.38852189 0 1 C0 0.67 0 0.34 0 0 Z " fill="#372A12" transform="translate(60,21)"/>
<path d="M0 0 C9.73944972 -0.12276617 19.29056184 0.16220564 29 1 C29 1.33 29 1.66 29 2 C19.11548979 3.31793469 9.62681166 3.9620959 0 1 C0 0.67 0 0.34 0 0 Z " fill="#C8642A" transform="translate(38,47)"/>
<path d="M0 0 C2.79805863 1.04303644 4.58211779 2.20064579 7 4 C6.67 4.66 6.34 5.32 6 6 C5.0925 5.505 4.185 5.01 3.25 4.5 C-1.90468848 2.2908478 -7.49945576 2.23561919 -13 3 C-15.8040688 4.4182814 -15.8040688 4.4182814 -18 6 C-14.60652169 -1.83110378 -7.48451504 -0.77271104 0 0 Z " fill="#1E150F" transform="translate(60,88)"/>
<path d="M0 0 C0.99 0.495 0.99 0.495 2 1 C2.61256066 4.54831432 2.96122826 8.09938183 3.33984375 11.6796875 C4.02187826 15.1100386 4.48343359 15.81943292 7 18 C7 18.99 7 19.98 7 21 C4.22400762 20.04276125 3.03522248 19.04654399 1.25 16.6875 C-0.62097416 11.16812623 -0.23132884 5.77465339 0 0 Z " fill="#F8B83F" transform="translate(90,46)"/>
<path d="M0 0 C0.33 0 0.66 0 1 0 C0.76583445 4.05886955 0.54687839 6.35661366 -2.125 9.5 C-5.8863456 11.46244118 -7.95519749 11.0684384 -12 10 C-12.66 9.34 -13.32 8.68 -14 8 C-12 7 -12 7 -9.1875 7.125 C-5.51048492 6.98080333 -3.85658552 6.28526842 -1 4 C-0.12177688 1.91466367 -0.12177688 1.91466367 0 0 Z " fill="#BA0411" transform="translate(58,71)"/>
<path d="M0 0 C4.19902808 1.93950489 7.74106738 4.62717744 11.46484375 7.34375 C13.92012323 8.94781549 16.24616356 10.01472757 19 11 C17.68 11.99 16.36 12.98 15 14 C15 13.34 15 12.68 15 12 C14.34 11.814375 13.68 11.62875 13 11.4375 C7.68198787 8.88928586 3.26312751 4.89469126 0 0 Z " fill="#1F190E" transform="translate(29,31)"/>
<path d="M0 0 C3.3 0 6.6 0 10 0 C10 0.66 10 1.32 10 2 C10.66 2.33 11.32 2.66 12 3 C11.67 3.66 11.34 4.32 11 5 C10.34 4.67 9.68 4.34 9 4 C3.39296787 3.78622279 3.39296787 3.78622279 -2 5 C-1.34 3.35 -0.68 1.7 0 0 Z " fill="#20150F" transform="translate(49,93)"/>
<path d="M0 0 C1.0828125 1.11375 1.0828125 1.11375 2.1875 2.25 C4.68592573 4.69290515 7.23643202 6.8681047 10 9 C9.67 9.99 9.34 10.98 9 12 C4.80605982 9.48363589 2.073367 7.49229517 0 3 C0 2.01 0 1.02 0 0 Z " fill="#2B1C0F" transform="translate(93,49)"/>
<path d="M0 0 C0.66 0.33 1.32 0.66 2 1 C1.67 1.99 1.34 2.98 1 4 C-3.455 4.495 -3.455 4.495 -8 5 C-8.33 4.01 -8.66 3.02 -9 2 C-5.54337669 -0.30441554 -4.05142119 -0.25860135 0 0 Z " fill="#1C1510" transform="translate(41,53)"/>
<path d="M0 0 C0 0.66 0 1.32 0 2 C-4.35332736 2.84023188 -8.44442519 3.10770995 -12.875 3.0625 C-14.02742188 3.05347656 -15.17984375 3.04445312 -16.3671875 3.03515625 C-17.23601563 3.02355469 -18.10484375 3.01195312 -19 3 C-13.48034107 -0.67977262 -6.47704725 -0.13780952 0 0 Z " fill="#E1702E" transform="translate(74,48)"/>
<path d="M0 0 C2 1.0625 2 1.0625 4 3 C4.25 6.6875 4.25 6.6875 4 10 C3.2575 9.54625 2.515 9.0925 1.75 8.625 C-0.46930578 7.31359204 -2.67967822 6.11719197 -5 5 C-3.68 5 -2.36 5 -1 5 C-0.67 3.35 -0.34 1.7 0 0 Z " fill="#C9672C" transform="translate(56,58)"/>
<path d="M0 0 C2.08268593 -0.08126087 4.16628658 -0.13930839 6.25 -0.1875 C7.99023438 -0.23970703 7.99023438 -0.23970703 9.765625 -0.29296875 C13.22268407 0.02017066 14.51565563 0.65709108 17 3 C14.72858891 2.88597936 12.45785448 2.75841495 10.1875 2.625 C8.92292969 2.55539063 7.65835938 2.48578125 6.35546875 2.4140625 C3 2 3 2 0 0 Z " fill="#DDA83A" transform="translate(27,41)"/>
<path d="M0 0 C2.52394612 3.12488567 4.39701907 6.31314387 6 10 C5.67 10.66 5.34 11.32 5 12 C4.69707031 11.4946875 4.39414063 10.989375 4.08203125 10.46875 C2.81585432 8.50520177 1.58981351 6.71442051 0 5 C-2.71471005 4.41231617 -2.71471005 4.41231617 -5 5 C-4.34 3.68 -3.68 2.36 -3 1 C-2.67 1.66 -2.34 2.32 -2 3 C-1.34 3 -0.68 3 0 3 C0 2.01 0 1.02 0 0 Z " fill="#2F2115" transform="translate(63,76)"/>
<path d="M0 0 C1.20628008 2.33214148 2.1654738 4.49642139 3 7 C2.0625 9.1875 2.0625 9.1875 1 11 C-1.55028983 9.72485508 -1.93081711 8.59658703 -3 6 C-3 5.01 -3 4.02 -3 3 C-2.01 3 -1.02 3 0 3 C0 2.01 0 1.02 0 0 Z " fill="#141312" transform="translate(106,55)"/>
<path d="M0 0 C0.33 0 0.66 0 1 0 C1.13277344 0.60328125 1.26554687 1.2065625 1.40234375 1.828125 C1.57894531 2.62734375 1.75554687 3.4265625 1.9375 4.25 C2.11152344 5.03890625 2.28554687 5.8278125 2.46484375 6.640625 C2.947556 8.76878703 3.46163178 10.88532842 4 13 C3.34 13 2.68 13 2 13 C1.67 13.99 1.34 14.98 1 16 C0.63913128 13.52163716 0.28601843 11.04260213 -0.0625 8.5625 C-0.16626953 7.85544922 -0.27003906 7.14839844 -0.37695312 6.41992188 C-0.62689163 4.61864093 -0.81801314 2.80940959 -1 1 C-0.67 0.67 -0.34 0.34 0 0 Z " fill="#ED972B" transform="translate(92,45)"/>
<path d="M0 0 C3.36704285 -0.2295711 5.41370268 -0.33943529 8.375 1.375 C8.91125 1.91125 9.4475 2.4475 10 3 C10 3.66 10 4.32 10 5 C7.36 4.67 4.72 4.34 2 4 C2 3.34 2 2.68 2 2 C1.34 1.34 0.68 0.68 0 0 Z " fill="#241A12" transform="translate(69,53)"/>
<path d="M0 0 C1.32 0.99 2.64 1.98 4 3 C2.625 4.5 2.625 4.5 1 6 C0.34 6 -0.32 6 -1 6 C-1.33 8.31 -1.66 10.62 -2 13 C-2.33 13 -2.66 13 -3 13 C-3.27429625 7.60550707 -3.36055646 4.48074195 0 0 Z " fill="#0F1418" transform="translate(17,21)"/>
<path d="M0 0 C2.92710398 1.33810468 5.16754924 2.85686733 7.5625 5 C9.66995197 6.87746278 11.63332529 8.42221686 14 10 C11.8125 10.3125 11.8125 10.3125 9 10 C5.53351134 7.04080236 2.77860188 3.60189133 0 0 Z " fill="#281C0F" transform="translate(74,22)"/>
<path d="M0 0 C2.97 0.495 2.97 0.495 6 1 C6 1.33 6 1.66 6 2 C7.65 2.33 9.3 2.66 11 3 C11 3.33 11 3.66 11 4 C4.375 4.25 4.375 4.25 1 2 C0.34 3.98 -0.32 5.96 -1 8 C-2.2077558 4.37673261 -1.54311128 3.35853631 0 0 Z " fill="#3F2715" transform="translate(42,80)"/>
<path d="M0 0 C1.65 0.33 3.3 0.66 5 1 C4.34 1.66 3.68 2.32 3 3 C4.32 3.66 5.64 4.32 7 5 C4.6875 5.625 4.6875 5.625 2 6 C1.01 5.34 0.02 4.68 -1 4 C-0.67 2.68 -0.34 1.36 0 0 Z " fill="#AF6D35" transform="translate(64,64)"/>
<path d="M0 0 C1.93607846 2.8471742 1.98954766 4.15417196 1.75 7.6875 C1.5025 8.780625 1.255 9.87375 1 11 C0.01 11.495 0.01 11.495 -1 12 C-1.02687279 10.18757948 -1.04633715 8.37504767 -1.0625 6.5625 C-1.07410156 5.55316406 -1.08570312 4.54382812 -1.09765625 3.50390625 C-1 1 -1 1 0 0 Z " fill="#030509" transform="translate(104,39)"/>
<path d="M0 0 C5.28089024 -0.30466674 6.577168 -0.317124 11 3 C7.37 3 3.74 3 0 3 C0 2.01 0 1.02 0 0 Z " fill="#F59444" transform="translate(48,84)"/>
<path d="M0 0 C3.3 0.99 6.6 1.98 10 3 C10 3.33 10 3.66 10 4 C8.54176788 4.0270043 7.08339325 4.04639787 5.625 4.0625 C4.81289063 4.07410156 4.00078125 4.08570313 3.1640625 4.09765625 C1 4 1 4 -1 3 C-0.67 2.01 -0.34 1.02 0 0 Z " fill="#F8BB47" transform="translate(25,37)"/>
<path d="M0 0 C5.57142857 5.14285714 5.57142857 5.14285714 6 9 C2.83884224 7.63016497 2.0072908 7.0109362 0 4 C0 2.68 0 1.36 0 0 Z " fill="#F1B546" transform="translate(91,58)"/>
<path d="M0 0 C1.65 0 3.3 0 5 0 C4.1875 2.4375 4.1875 2.4375 3 5 C2.01 5.33 1.02 5.66 0 6 C0 4.02 0 2.04 0 0 Z " fill="#CE672A" transform="translate(93,88)"/>
<path d="M0 0 C4.54805635 -0.17835515 7.8794254 0.00214565 12 2 C11.01 3.485 11.01 3.485 10 5 C5.05 3.02 5.05 3.02 0 1 C0 0.67 0 0.34 0 0 Z " fill="#392D12" transform="translate(45,24)"/>
<path d="M0 0 C0.33 0 0.66 0 1 0 C1 4.62 1 9.24 1 14 C0.01 14 -0.98 14 -2 14 C-1.34 9.38 -0.68 4.76 0 0 Z " fill="#3D3019" transform="translate(89,48)"/>
<path d="M0 0 C2.97 0 5.94 0 9 0 C9 0.99 9 1.98 9 3 C6.1875 3.1875 6.1875 3.1875 3 3 C2.01 2.01 1.02 1.02 0 0 Z " fill="#06080A" transform="translate(18,24)"/>
<path d="M0 0 C3.8063457 0.67170806 7.35206816 1.72746564 11 3 C11 3.33 11 3.66 11 4 C9.54119891 3.85892253 8.08296449 3.71197585 6.625 3.5625 C5.40683594 3.44068359 5.40683594 3.44068359 4.1640625 3.31640625 C2 3 2 3 0 2 C0 1.34 0 0.68 0 0 Z " fill="#2D1F10" transform="translate(76,32)"/>
<path d="M0 0 C2 0 2 0 3.625 1.375 C5 3 5 3 5 5 C2.625 5.1875 2.625 5.1875 0 5 C-0.66 4.01 -1.32 3.02 -2 2 C-1.34 2 -0.68 2 0 2 C0 1.34 0 0.68 0 0 Z " fill="#E69D2C" transform="translate(77,27)"/>
<path d="M0 0 C1.875 0.3125 1.875 0.3125 4 1 C4.66 1.99 5.32 2.98 6 4 C5.01 4 4.02 4 3 4 C2.67 4.66 2.34 5.32 2 6 C2 5.01 2 4.02 2 3 C1.01 2.67 0.02 2.34 -1 2 C-0.67 1.34 -0.34 0.68 0 0 Z " fill="#D66D2D" transform="translate(59,93)"/>
<path d="M0 0 C0.66 0 1.32 0 2 0 C1 3 1 3 -1.4375 4.75 C-2.7059375 5.36875 -2.7059375 5.36875 -4 6 C-4.66 5.67 -5.32 5.34 -6 5 C-6 4.34 -6 3.68 -6 3 C-5.195625 2.690625 -4.39125 2.38125 -3.5625 2.0625 C-1.10919595 1.23664655 -1.10919595 1.23664655 0 0 Z " fill="#CD803E" transform="translate(45,62)"/>
<path d="M0 0 C2.97 0.495 2.97 0.495 6 1 C2.93882432 3.62386487 2.26826873 4 -2 4 C-1.34 2.68 -0.68 1.36 0 0 Z " fill="#D88228" transform="translate(75,40)"/>
<path d="M0 0 C3.73487777 0.4979837 5.81237635 0.87491756 9 3 C9 3.66 9 4.32 9 5 C5.22454612 3.90931332 2.52956528 3.0916909 0 0 Z " fill="#F5B335" transform="translate(80,21)"/>
<path d="M0 0 C3.76488042 1.72154788 6.15063897 3.99234114 9 7 C6 7 6 7 4.39453125 5.46875 C3.87246094 4.8190625 3.35039063 4.169375 2.8125 3.5 C2.28269531 2.8503125 1.75289062 2.200625 1.20703125 1.53125 C0.80871094 1.0259375 0.41039063 0.520625 0 0 Z " fill="#302511" transform="translate(29,31)"/>
</svg>
