/* XPM */
static char *_ac8b67073b84fcabfc015528e426d8eRNNTpKXrJ3VKI8ka[] = {
/* columns rows colors chars-per-pixel */
"64 64 228 2 ",
"   c None",
".  c #010103",
"X  c #0C0A04",
"o  c #01030A",
"O  c #050A0C",
"+  c #0C0B0C",
"@  c #0B0608",
"#  c #130E0C",
"$  c #1A0F0B",
"%  c #160A07",
"&  c #15120D",
"*  c #1B140D",
"=  c #1C190D",
"-  c #000610",
";  c #010A15",
":  c #020D1B",
">  c #080E13",
",  c #05111E",
"<  c #1B1510",
"1  c #191912",
"2  c #25080D",
"3  c #33050C",
"4  c #241C0E",
"5  c #27180D",
"6  c #231B12",
"7  c #2D1C11",
"8  c #211710",
"9  c #331D11",
"0  c #381912",
"q  c #2C220E",
"w  c #26200F",
"e  c #33250F",
"r  c #2C2414",
"t  c #282316",
"y  c #342313",
"u  c #3C2413",
"i  c #382B15",
"p  c #3E3218",
"a  c #000E22",
"s  c #051223",
"d  c #06172B",
"f  c #061934",
"g  c #061C3B",
"h  c #041731",
"j  c #59050D",
"k  c #50060F",
"l  c #6D010C",
"z  c #432313",
"x  c #4C2C14",
"c  c #452A16",
"v  c #542C16",
"b  c #592E16",
"n  c #443414",
"m  c #4A3719",
"M  c #523314",
"N  c #57371A",
"B  c #673819",
"V  c #753C1C",
"C  c #4A3D22",
"Z  c #5B3B20",
"A  c #623E22",
"S  c #564318",
"D  c #654B1B",
"F  c #7B4A1B",
"G  c #7C5E1D",
"H  c #75591C",
"J  c #6C531B",
"K  c #5D4826",
"L  c #5D4C30",
"P  c #6C4423",
"I  c #634624",
"U  c #764B27",
"Y  c #695424",
"T  c #785627",
"R  c #7C632A",
"E  c #051E43",
"W  c #062046",
"Q  c #05224D",
"!  c #082145",
"~  c #052554",
"^  c #05285C",
"/  c #052B64",
"(  c #052E6C",
")  c #043175",
"_  c #04337B",
"`  c #022F76",
"'  c #96010E",
"]  c #AD030F",
"[  c #CB0412",
"{  c #FC030E",
"}  c #F4020D",
"|  c #E90410",
" . c #FA0410",
".. c #FC141B",
"X. c #E8030E",
"o. c #FD2B2E",
"O. c #85461E",
"+. c #86511D",
"@. c #8B551D",
"#. c #935A1F",
"$. c #86641F",
"%. c #916B1F",
"&. c #8D4720",
"*. c #9B4E23",
"=. c #83532B",
"-. c #8A572A",
";. c #925C2E",
":. c #9C5B25",
">. c #985F31",
",. c #A75525",
"<. c #B65B26",
"1. c #BA5C26",
"2. c #896925",
"3. c #946E22",
"4. c #986B22",
"5. c #9B7527",
"6. c #9C6131",
"7. c #966C3D",
"8. c #967632",
"9. c #B46C23",
"0. c #A37B26",
"q. c #BA7624",
"w. c #AC6B35",
"e. c #A26734",
"r. c #B56E35",
"t. c #BC763A",
"y. c #B77439",
"u. c #AB722A",
"i. c #C46129",
"p. c #CC652A",
"a. c #CF682B",
"s. c #D4692B",
"d. c #DC6C2C",
"f. c #D0672A",
"g. c #CA7926",
"h. c #D7772B",
"j. c #C47A3C",
"k. c #CA7C3D",
"l. c #E16E2D",
"z. c #E4712E",
"x. c #EB742F",
"c. c #E17633",
"v. c #E97A34",
"b. c #F17630",
"n. c #F47B33",
"m. c #F5762F",
"M. c #8D6D44",
"N. c #A57F4D",
"B. c #FC4443",
"V. c #B68727",
"C. c #B58C34",
"Z. c #B38A30",
"A. c #CC872C",
"S. c #DA8329",
"D. c #CA9529",
"F. c #C6932A",
"G. c #D79D2B",
"H. c #C99932",
"J. c #D2823F",
"K. c #E28629",
"L. c #E58A2A",
"P. c #EB8B2A",
"I. c #F18F2B",
"U. c #E7962B",
"Y. c #F3922C",
"T. c #FF9A2E",
"R. c #FA952D",
"E. c #EB853C",
"W. c #EC8A3E",
"Q. c #E6813A",
"!. c #F3863B",
"~. c #DCA22C",
"^. c #D9A739",
"/. c #E4A52D",
"(. c #ECAB2E",
"). c #E8A82D",
"_. c #FCA32D",
"`. c #F2AE2F",
"'. c #F7AB2D",
"]. c #F5B22F",
"[. c #FBB22F",
"{. c #FFBA2F",
"}. c #E9AA34",
"|. c #FFAC30",
" X c #F8A832",
".X c #FDB431",
"XX c #FFBD32",
"oX c #FFBB31",
"OX c #FBB939",
"+X c #E9B03E",
"@X c #FFC333",
"#X c #FFC33B",
"$X c #B58C55",
"%X c #B08551",
"&X c #D58440",
"*X c #DE8A43",
"=X c #DB8741",
"-X c #C3955B",
";X c #D09346",
":X c #E48C44",
">X c #EB8D43",
",X c #EE9246",
"<X c #EC9347",
"1X c #F29446",
"2X c #FB9445",
"3X c #F49648",
"4X c #FC9A4A",
"5X c #F89849",
"6X c #F6994C",
"7X c #FFA14C",
"8X c #E8B446",
"9X c #F8BC43",
"0X c #FDA454",
"qX c #FAA95A",
"wX c #FFB05A",
"eX c #FF8278",
"rX c #DFAC42",
"tX c #FFC342",
"yX c #FFC746",
"uX c #FECB52",
"iX c #003484",
"pX c #003485",
"aX c #003586",
"sX c #003484",
"dX c #00368A",
"fX c #00368B",
"gX c #01388D",
"hX c #013991",
/* pixels */
"                                                pXpXpXpXpXpXpXpXpXpXpXpXpXpXpXpX                                                ",
"                                        pXpXpXpXpXpXpXpXpXpXpXpXpXpXpXpXpXpXpXpXpXpXpX                                          ",
"                                    pXpXpXpXpXpXpXpXpXpXpXpXpXpXpXpXpXpXpXpXpXpXpXpXpXpXpXpX                                    ",
"                                pXpXpXpXpXpXpXpXpXpXpXpXpXpXpXpXpXpXpXpXpXpXpXpXpXpXpXpXpXpXpXpX                                ",
"                              pXpXpXpXpXpXpXpXpXpXpXpXpXpXpXpXpXpXpXpXpXpXpXpXpXpXpXpXpXpXpXpXpXpX                              ",
"                          pXpXpXpXpXpXpXpXpXpXpXpXpXpXpXpXpXpXpXpXpXpXpXpXpXpXpXpXpXpXpXpXpXpXpXpXpXpX                          ",
"                        pXpXpXpXpXpXpXpXpXpXpXdXgXgXdXpXsX_ _ _ _ sXpXdXgXdXdXpXpXpXpXpXpXpXpXpXpXpXpXpX                        ",
"                    pXpXpXpXpXpXpXpXpXpXdXdX_ ( ~ E h a : ; - - ; : s h W ^ ) sXdXdXpXpXpXpXpXpXpXpXpXpXpX                      ",
"                  pXpXpXpXpXpXpXpXdXgX_ ^ f ; . . . X = q e i i e 4 & . . . o : g / _ gXdXpXpXpXpXpXpXpXpXpXpX                  ",
"                pXpXpXpXpXpXpXpXgX) E ; . . q D 3.V.G.).`..XoXoX.X`.}.H.Z.2.m = . . ; g ( dXdXpXpXpXpXpXpXpXpXpX                ",
"              pX/ _ gXdXpXdXgX_ W o . q G D..XXXXXoX.X.X.X`.D.F.(.XX[.oX].OXtX+XZ.Y = . o h ( dXpXpXpXpXpXpXpXpX                ",
"              ) O a ^ ) _ ( W ; . q 0.`.XX.X)./.(..XXX.X[.]./.V.H 2.].oX).$.q.oXoXOX}.5.i . o Q dXpXpXpXpXpXpXpXpX              ",
"            dXE X q . o - o . * 2.].XX[.[.G.0.$.S N G D.oXoX[.oX].G p G.@X/.n #.[._.Y.|..X0.4 . ! dXpXpXpXsXpXpXpXpX            ",
"          pXpX: i ].V.D n S 3./.oX[.[.[.[.[..X.X(.V.S & m D.XX[..XXX3.* D.@X~.4 +..X'.L.P.|.~.w o ( dXpXsXsXpXpXpXpXpX          ",
"          pX_ o S #X{.oX.XoXXXoX[.`./.].oX[.[.[.[.oXXXH.p o G .X.X[.@X%.# q.oXG.* B U._.P.K._.V.. g dXpXpXpXpXpXpXpXpX          ",
"        pXpX_ o m tX[.[.[..XG.G.oX[.D.$.3.).XX[.[.[.[.oXoX2.o n (.oX[.XX2.@ +.|./.M 9 +.S.P.P.U.= a dXpXpXpXpXpXpXpXpXpX        ",
"      pXpXpXpXs & 8XOX[.[..X(.H V.XXoX).$.y $.].oX[.[.[.[.XXH.6 4 D.XX.XXXV.q y #.S.g.q.S.P.P.U.= - / dXpXpXpXpXpXpXpXpXpX      ",
"      pXpXpXgXQ . Y uXOX[.[..X~.i 2.oXoXXXD.i q V.oXoX[.[.[.oX}.D + G (.XXXX(.4.M c F 9.g.Y.I.B o O . ! dXpXpXpXpXpXpXpXpX      ",
"      pXpXpXpXsXs . 2.uXtX.X[.oXG.4 n ^.#XoX].G # n F.oXoX[.[.[.XXV.p w $.G._._.T.P.K.L.L.9.u o @.g.e . ^ dXpXpXpXpXpXpXpXpX    ",
"    pXpXpXpXpXdX) : . D 8XuX9XOXoX).n # 2.8X#X@XG.D = m 0./.oXoX[.oXoXV.S r c B F #.+.B y o # 9.R.R.g.X d dXpXpXpXpXpXpXpXpX    ",
"  pXpXpXpXpXpXpXgX_ s . 4 3.rXyXyXyX#X0.4 r 8.8XyX@X/.%.S m J 5.F.(..X.X.XL.9.+.u o . o o 5 h.Y.L.P.I.c ; _ pXpXpXpXpXpXpXpX    ",
"  pXpXpXpXpXpXpXpXdXpXW o . + n T 5.C.^.H.J # t T H..X@X@X.X/./.`..X|.Y.K.g.:.N + o b B o -.R.L.L.S.Y.N o ` pXpXpXpXpXpXpXpXpX  ",
"  pXpXpXpXpXpXpXpXpXdXsX> 4 r o . . . . O 1 O o . o w S H 2.4.4.$.J M y & o o $ B 1.m.B o A.Y.L.P.:.P.M - _ dXpXpXpXpXpXpXpXpX  ",
"  pXpXpXpXpXpXpXpXpXdX( . Y C.. C e.=.P N v b b b b z $ o o o o o o # 7 x V ,.s.b.z.z.9 1 }.Y.L.I.F g.x ; _ pXpXpXpXpXpXpXpXpX  ",
"pXpXpXpXpXpXpXpXpXpXdX/ . R C.. M.wX2X4X5X2X!.n.v.x.z.s.p.1.<.<.<.i.s.z.v.!.!.>X>Xd.s.# p OXA.K.Y.+.F M ; sXpXpXpXpXpXpXpXpXpXpX",
"pXpXpXpXpXpXpXpXpXpXdX( . R 8.. %XwX5X4X4X1X1X1X,X1X>XE.!.E.E.E.W.!.2X5X4X4X1X1X>Xl.a.+ C tX9.@.T.g.8 * : iXpXpXpXpXpXpXpXpXpXpX",
"pXpXpXpXpXpXpXpXpXpXpX_ o Y 2.. -X;X>.>.j.1X4X1X1X&X<X1X&X1X1X5X4X1Xt.U U r.3X3X>Xl.f.+ m tXL.7 9.T.x . > _ pXpXpXpXpXpXpXpXpXpX",
"pXpXpXpXpXpXpXpXpXpXpXpXa m Y o L + . . . y e.1X7XU &X>XU 4X4X*X;.y . . . . N ,X>Xd.d.* i 9X_.+.+ 9.S.8 o / dXpXpXpXpXpXpXpXpXpX",
"pXpXpXpXpXpXpXpXpXpXpXpXa y K . . m ;.6.U < . y U 6 J.1Xy =.P * . # Z >.r.6.y =.2Xd.z.0 1 9X_.I.B . N F @ ~ gXpXpXpXpXpXpXpXpXpX",
"pXpXpXpXpXpXpXpXpXpXdX( o Y T . 7.0X7X3X1X&Xm . . . -.7XU . . o m j.:X1X7X7X1Xt.1Xc.x.B o ;X.XP.Y.+.+ o . f dXpXpXpXpXpXpXpXpXpX",
"pXpXpXpXpXpXpXpXpXpXdX^ . 0.3.o -X*XZ * < < & + o i ,XE.l.V o . + < # # N &X>X*X>Xv.z.,.. 8.yXg.L.T.S.F # o ~ dXpXpXpXpXpXpXpXpX",
"pXpXpXpXpXpXpXpXpXpXdX( . 2.0.. %XU x A . . w.T . K &Xc.m.,.* 6.P . . N T P -.6.:XE.d.s.# r uXA.x #.S.T.g.* s pXpXpXpXpXpXpXpXpX",
"pXpXpXpXpXpXpXpXpXpXpXsX; n 0.. N.6X1X3X-.-.K 0 k j 3 9 ,.O.w.7X3X-.;.5X4X1Xr.e.>XW.d.x.V . T uX4.. + u #.7 : sXpXpXpXpXpXpXpXpX",
"pXpXpXpXpXpXpXpXpXpXpXgXE X i . %X0X=X&X:Xi l X.{ { } ' o P 4X*Xj.4X4X&X>X1X1X:X>X>Xd.d.d.u . C p o # + o . g dXpXpXpXpXpXpXpXpX",
"pXpXpXpXpXpXpXpXpXpXpXpX_ : . o $X0X:Xe.t l { { {  ...{ ' + J.3Xr.=.=.y.1X,X,X1X1XE.s.d.z.s.z . o O.d.<.X , sXpXpXpXpXpXpXpXpXpX",
"pXpXpXpXpXpXpXpXpXpXpXpXdX` , . $X0X3X&X2 X.{ { } o.eXo.{ 3 U 4X3X,X>X3X,X,X,X,X<Xc.s.d.d.l.x.V o <.b.s.% h gXpXpXpXpXpXpXpXpXpX",
"pXpXpXpXpXpXpXpXpXpXpXsXpXhX~ . $X0X2Xy.k { { { { ..B...{ j t 1X1X1X,X,X,X,X,X<X>Xd.s.s.d.d.x.,.. u x.i.X g gXpXpXpXpXpXpXpXpXpX",
"pXpXpXpXpXpXpXpXpXpXpXsXpXdXQ . $X0X3Xt.3 } { {  .{ } { } j o -.4X,X,X,X,X,X,X>Xd.d.d.d.d.d.x.B 7 x p.,.. Q gXpXpXpXpXpXpXpXpXpX",
"pXpXpXpXpXpXpXpXpXpXpXsXpXgXQ . $X0X1X&X+ ] { { { { { | [ 2 o 6 ,X1X,X,X,X,X,Xc.s.d.d.d.d.z.1.$ ,.1.d.B . ( dXpXpXpXpXpXpXpXpXpX",
"pXpXpXpXpXpXpXpXpXpXpXpXpXgXE . -X0X,X4XP % ] | | X.X.[ k O 6 + -.4X,X,X,X,X,Xc.s.d.d.d.d.l.p.<.z.z.s.$ : pXpXpXpXpXpXpXpXpXpXpX",
"  pXpXpXpXpXpXpXpXpXpXpXpXgXE . -X0X>X3X>X6 @ j ' ' l 2 + ;.*Xw.* &X3X,X,X,X,Xc.s.d.d.d.d.d.z.z.d.b.B . ~ gXpXpXpXpXpXpXpXpXpX  ",
"  pXpXpXpXpXpXpXpXpXpXpXpXgX! . -X6X,X4X6.U w.m 7 7 c =.k.4X3X4XT A 4X,X,X,X,Xc.d.d.d.d.z.O.f.b.x.O.. s pXpXpXpXpXpXpXpXpXpXpX  ",
"  pXpXpXpXpXpXpXpXpXpXpXpXgXE . -X6X,X1XT :X4X5X1XW.2X7X4X3X,X1X3XI k.3X,X,X,Xc.d.d.d.d.z.9 c *.z . O ( dXpXpXpXpXpXpXpXpXpXpX  ",
"  pXpXpXpXpXpXpXpXpXpXpXpXgXE . -X4X1X*Xy.3X4X,Xj.k.j.w.w.&X4X3X3Xk.e.5X,X,X,Xc.d.d.d.l.s.* o o * X d dXpXpXpXpXpXpXpXpXpXpXpX  ",
"    pXpXpXpXpXpXpXpXsXsXpXgXQ . $X4X,X>X>X4Xt.u 8 6 * 8 & # m j.4X1X:X,X,X,X,Xc.d.d.d.z.1.o c s.i.X g dXpXpXpXpXpXpXpXpXpXpX    ",
"      pXpXpXpXpXpXpXpXpXpXdX^ . %X0X>X,X4Xr.c w.:X:X>X3X<Xt.U r =.4X1X,X,X,X,Xc.s.d.d.x.*.. &.!.V . ^ dXpXpXpXpXpXpXpXpXpXpX    ",
"      pXpXpXpXpXpXpXpXpXpXdX( . M.0X,X1X&XI *X4XP c A Z N r.2X:XU ;.3X,X,X,X,Xd.d.d.d.x.B o *.F . s pXpXpXpXpXpXpXpXpXpXpX      ",
"        pXpXpXpXpXpXpXpXpXpX) o L qX>X1X&X*X4X,Xb o < & o V l.v.2Xj.:X1X,X,X>Xd.d.d.d.z.u o X . s ) dXpXpXpXpXpXpXpXpXpXpX      ",
"        pXpXpXpXpXpXpXpXpXpXpX: r qX1X,X1X1X3Xr.;.&X,X>Xk.U ,.v.E.3X,X,X,X1XQ.s.d.d.z.i.+ O h ~ sXdXpXpXpXpXpXpXpXpXpXpX        ",
"          pXpXpXpXpXpXpXpXpXgXE . %X4X,X1X,X,X>X4X3X1X1X3X4X:X,X,X,X,X1X,XE.d.d.d.d.x.B . ~ hXdXpXpXpXpXpXpXpXpXpXpXpXpX        ",
"          pXpXpXpXpXpXpXpXpXdX( . p 5X1X,X4X,X,X,X,X,X,X,X,X1X,X,X3X2Xv.d.d.d.d.d.x.1.X , pXpXpXpXpXpXpXpXpXpXpXpXpXpX          ",
"            pXpXpXpXpXpXpXpXpXdXE . A 1XU e.4X1X,X,X1X,X,X,X,X,X4Xk.B v a.l.d.d.z.d.7 . / dXpXpXpXpXpXpXpXpXpXpXpXpX            ",
"              pXpXpXpXpXpXpXpXpXpXd . c m . -.4X4X1X1X1X1X3X4X4Xe.+ # ,.z.d.d.z.d.z . W gXpXpXpXpXpXpXpXpXpXpXpXpX              ",
"              pXpXpXpXpXpXpXpXpXdXsXg . o * o m w.&X,X1X>X&Xw.m . 9 a.x.d.d.x.s.z . f dXpXpXpXpXpXpXpXpXpXpXpXpXpX              ",
"                pXpXpXpXpXpXpXpXpXpXgXQ . b &.$ . O 6 7 < O . @ B d.z.d.l.x.<.5 . f pXpXpXpXpXpXpXpXpXpXpXpXpXpX                ",
"                  pXpXpXpXpXpXpXpXpXpXgXW . b a.,.B z z v V *.a.x.l.l.x.d.V @ . ! dXpXpXpXpXpXpXpXpXpXpXpXpXpX                  ",
"                    pXpXpXpXpXpXpXpXpXpXdXW . 5 *.z.m.b.b.b.x.x.x.x.f.O.5 . ; ^ gXpXpXpXpXpXpXpXpXpXpXpXpXpX                    ",
"                        pXpXpXpXpXpXpXpXpXgX/ : . 5 B ,.i.a.p.<.&.b $ . O g _ gXpXpXpXpXpXpXpXpXpXpXpXpX                        ",
"                          pXpXpXpXpXpXpXpXpXdXsX~ : . . X % X . . . : E ) gXdXpXpXpXpXpXpXpXpXpXpXpXpX                          ",
"                            pXpXpXpXpXpXpXpXpXpXgXpX( Q g h h g Q ( sXgXdXpXpXpXpXpXpXpXpXpXpXpXpXpX                            ",
"                                pXpXpXpXpXpXpXpXpXpXdXgXdXdXdXdXgXdXpXpXpXpXpXpXpXpXpXpXpXpXpXpX                                ",
"                                    pXpXpXpXpXpXpXpXpXpXpXpXpXpXpXpXpXpXpXpXpXpXpXpXpXpXpXpX                                    ",
"                                        pXpXpXpXpXpXpXpXpXpXpXpXpXsXsXsXpXpXpXpXpXpXpXpX                                        ",
"                                                pXpXpXpXpXpXpXpXsXsXsXsXpXpXpXpX                                                "
};
