<?xml version="1.0" encoding="UTF-8"?>
<svg version="1.1" xmlns="http://www.w3.org/2000/svg" width="64" height="64">
<path d="M0 0 C3.8823434 2.85842865 6.81001839 5.82582748 9.48828125 9.83203125 C9.92011719 10.45207031 10.35195313 11.07210938 10.796875 11.7109375 C14.95886739 19.07003132 14.59173813 28.65834803 13.48828125 36.83203125 C12.34563813 40.63928066 10.79061039 43.60877045 8.48828125 46.83203125 C7.76640625 47.90453125 7.04453125 48.97703125 6.30078125 50.08203125 C-1.69117326 57.89638677 -9.64622637 60.15760267 -20.53027344 60.22143555 C-27.20824867 60.10710497 -32.01721354 58.75667783 -37.51171875 54.83203125 C-38.58421875 54.11015625 -39.65671875 53.38828125 -40.76171875 52.64453125 C-48.49411542 44.7363983 -50.89579029 36.74690187 -50.96484375 25.9519043 C-50.7889213 17.47125805 -48.24340704 11.12699324 -42.6484375 4.6875 C-40.70172229 2.83441438 -38.74432014 1.32458972 -36.51171875 -0.16796875 C-35.58166016 -0.81572266 -35.58166016 -0.81572266 -34.6328125 -1.4765625 C-24.45608447 -7.2320897 -9.7207284 -5.7410111 0 0 Z " fill="#003382" transform="translate(50.51171875,4.16796875)"/>
<path d="M0 0 C2.18359375 1.1015625 2.18359375 1.1015625 5.30859375 3.1015625 C4.43359375 7.9765625 4.43359375 7.9765625 3.30859375 9.1015625 C4.62859375 8.4415625 5.94859375 7.7815625 7.30859375 7.1015625 C8.30859375 8.1015625 8.30859375 8.1015625 8.44140625 9.9140625 C8.43882813 10.6359375 8.43625 11.3578125 8.43359375 12.1015625 C8.43746094 13.184375 8.43746094 13.184375 8.44140625 14.2890625 C8.30859375 16.1015625 8.30859375 16.1015625 7.30859375 17.1015625 C8.29859375 18.0915625 9.28859375 19.0815625 10.30859375 20.1015625 C9.81359375 20.5965625 9.81359375 20.5965625 9.30859375 21.1015625 C9.34984375 21.8853125 9.39109375 22.6690625 9.43359375 23.4765625 C9.30859375 26.1015625 9.30859375 26.1015625 7.93359375 27.9140625 C6.30859375 29.1015625 6.30859375 29.1015625 4.30859375 29.1015625 C4.11265625 29.69324219 3.91671875 30.28492187 3.71484375 30.89453125 C1.63343416 36.39411779 -0.44156211 39.4733819 -5.66015625 42.296875 C-8.49268733 43.41899308 -10.69489599 43.60098088 -13.69140625 43.1015625 C-14.35140625 42.4415625 -15.01140625 41.7815625 -15.69140625 41.1015625 C-14.59828125 40.9571875 -13.50515625 40.8128125 -12.37890625 40.6640625 C-8.76017638 40.21868146 -8.76017638 40.21868146 -5.69140625 39.1015625 C-5.69140625 38.4415625 -5.69140625 37.7815625 -5.69140625 37.1015625 C-6.68140625 37.7615625 -7.67140625 38.4215625 -8.69140625 39.1015625 C-13.48791655 39.41101478 -17.4132399 39.56474918 -21.69140625 37.1015625 C-22.59379372 34.39440008 -22.80991927 32.86379482 -22.7890625 30.08984375 C-22.78583984 29.33251953 -22.78261719 28.57519531 -22.77929688 27.79492188 C-22.77091797 27.00923828 -22.76253906 26.22355469 -22.75390625 25.4140625 C-22.74939453 24.61677734 -22.74488281 23.81949219 -22.74023438 22.99804688 C-22.72846475 21.03251993 -22.71052973 19.06703165 -22.69140625 17.1015625 C-21.37140625 16.7715625 -20.05140625 16.4415625 -18.69140625 16.1015625 C-17.69140625 18.1015625 -17.69140625 18.1015625 -17.69140625 19.1015625 C-17.36140625 19.1015625 -17.03140625 19.1015625 -16.69140625 19.1015625 C-17.44140625 26.7265625 -17.44140625 26.7265625 -19.69140625 30.1015625 C-18.70140625 30.4315625 -17.71140625 30.7615625 -16.69140625 31.1015625 C-15.69140625 32.1015625 -15.69140625 32.1015625 -15.69140625 34.1015625 C-14.04140625 34.1015625 -12.39140625 34.1015625 -10.69140625 34.1015625 C-10.36140625 33.1115625 -10.03140625 32.1215625 -9.69140625 31.1015625 C-11.34140625 30.4415625 -12.99140625 29.7815625 -14.69140625 29.1015625 C-12.55285775 26.963014 -11.55865311 26.67501187 -8.69140625 26.1015625 C-8.69140625 25.1115625 -8.69140625 24.1215625 -8.69140625 23.1015625 C-7.70140625 23.1015625 -6.71140625 23.1015625 -5.69140625 23.1015625 C-5.69140625 21.7815625 -5.69140625 20.4615625 -5.69140625 19.1015625 C-6.35140625 18.4415625 -7.01140625 17.7815625 -7.69140625 17.1015625 C-6.04140625 16.7715625 -4.39140625 16.4415625 -2.69140625 16.1015625 C-5.66140625 16.4315625 -8.63140625 16.7615625 -11.69140625 17.1015625 C-12.02140625 20.0715625 -12.35140625 23.0415625 -12.69140625 26.1015625 C-13.68140625 26.1015625 -14.67140625 26.1015625 -15.69140625 26.1015625 C-15.36140625 22.8015625 -15.03140625 19.5015625 -14.69140625 16.1015625 C-17.33140625 15.7715625 -19.97140625 15.4415625 -22.69140625 15.1015625 C-22.69140625 14.1115625 -22.69140625 13.1215625 -22.69140625 12.1015625 C-21.04140625 11.7715625 -19.39140625 11.4415625 -17.69140625 11.1015625 C-18.92890625 11.0190625 -20.16640625 10.9365625 -21.44140625 10.8515625 C-24.54504433 10.46635919 -25.60450813 10.16673609 -28.19140625 8.2265625 C-29.69140625 6.1015625 -29.69140625 6.1015625 -29.69140625 3.1015625 C-27.77083333 2.64583333 -25.85026042 2.19010417 -23.9296875 1.734375 C-21.63368659 1.14327423 -21.63368659 1.14327423 -19.34765625 0.0546875 C-13.4443099 -2.06357207 -5.93375359 -1.98078857 0 0 Z " fill="#CF662A" transform="translate(40.69140625,10.8984375)"/>
<path d="M0 0 C4.33687275 2.31990804 7.23326847 4.77616814 9 9.4375 C10.5838861 17.58461415 10.87564279 25.89490287 7 33.4375 C4.625 35.6875 4.625 35.6875 2 37.4375 C1.11784655 38.45557437 0.26436137 39.49902907 -0.5625 40.5625 C-3.33171768 43.82875675 -5.1345889 45.11253726 -9.33203125 45.84375 C-14.0976458 46.02386772 -17.2190358 45.83342782 -21 42.75 C-25.26090943 38.78612512 -26.20333094 34.34250226 -26.5625 28.6875 C-26.51235954 25.25061556 -26.51235954 25.25061556 -28 22.4375 C-28.07226502 20.58462498 -28.0838122 18.72916122 -28.0625 16.875 C-28.05347656 15.86308594 -28.04445313 14.85117187 -28.03515625 13.80859375 C-28.02355469 13.02613281 -28.01195312 12.24367188 -28 11.4375 C-28.66 11.4375 -29.32 11.4375 -30 11.4375 C-32.29013653 8.0022952 -32.17842973 6.452169 -32 2.4375 C-30.80375 2.334375 -29.6075 2.23125 -28.375 2.125 C-25.40882342 1.77421738 -23.9563803 1.41213971 -21.3125 -0.125 C-14.67038657 -3.00742658 -6.72205506 -2.6122559 0 0 Z M-25 3.4375 C-26.98821313 3.83514263 -28.98732362 4.19205166 -31 4.4375 C-30.62329917 6.62236483 -30.12283891 8.24240291 -28.9375 10.125 C-25.83941482 12.22370286 -22.6972414 12.13444743 -19 12.4375 C-20.65 12.7675 -22.3 13.0975 -24 13.4375 C-24 14.4275 -24 15.4175 -24 16.4375 C-21.36 16.7675 -18.72 17.0975 -16 17.4375 C-16.33 20.7375 -16.66 24.0375 -17 27.4375 C-16.01 27.4375 -15.02 27.4375 -14 27.4375 C-13.67 24.4675 -13.34 21.4975 -13 18.4375 C-11.35 18.1075 -9.7 17.7775 -8 17.4375 C-8.33 18.0975 -8.66 18.7575 -9 19.4375 C-8.34 19.7675 -7.68 20.0975 -7 20.4375 C-7 21.7575 -7 23.0775 -7 24.4375 C-7.99 24.4375 -8.98 24.4375 -10 24.4375 C-10 25.7575 -10 27.0775 -10 28.4375 C-11.98 28.7675 -13.96 29.0975 -16 29.4375 C-15.67 30.0975 -15.34 30.7575 -15 31.4375 C-12.97536745 32.08963292 -12.97536745 32.08963292 -11 32.4375 C-11.33 33.4275 -11.66 34.4175 -12 35.4375 C-13.65 35.4375 -15.3 35.4375 -17 35.4375 C-18 33.4375 -18 33.4375 -18 31.4375 C-18.99 31.4375 -19.98 31.4375 -21 31.4375 C-20.505 30.550625 -20.01 29.66375 -19.5 28.75 C-18.05621326 25.56163762 -17.69840078 23.85562454 -18 20.4375 C-18.99 20.4375 -19.98 20.4375 -21 20.4375 C-20.34 19.7775 -19.68 19.1175 -19 18.4375 C-20.94603274 17.84679986 -20.94603274 17.84679986 -23 17.4375 C-24.86715507 19.30465507 -24.13245683 21.94143825 -24.13671875 24.421875 C-24.13285156 25.21078125 -24.12898438 25.9996875 -24.125 26.8125 C-24.12886719 27.59367187 -24.13273437 28.37484375 -24.13671875 29.1796875 C-24.13100915 32.5140946 -24.06131005 35.25356986 -23 38.4375 C-18.72183365 40.90068668 -14.7965103 40.74695228 -10 40.4375 C-9.01 39.7775 -8.02 39.1175 -7 38.4375 C-7 39.0975 -7 39.7575 -7 40.4375 C-10.3 41.0975 -13.6 41.7575 -17 42.4375 C-15.15136411 44.67362802 -15.15136411 44.67362802 -12.375 44.875 C-7.70163827 44.26919385 -4.44864175 42.66412619 -1 39.4375 C0.27742116 37.13655505 1.19290603 34.92332097 2.015625 32.42578125 C3.25580029 29.92082402 4.46142416 29.46816179 7 28.4375 C8.27379279 27.39312735 8.27379279 27.39312735 8.0625 25.0625 C8.041875 24.19625 8.02125 23.33 8 22.4375 C8 21.4475 8 20.4575 8 19.4375 C7.34 19.1075 6.68 18.7775 6 18.4375 C6.165 17.880625 6.33 17.32375 6.5 16.75 C7.04041351 14.25058751 7.07082065 11.98704338 7 9.4375 C3.94729537 9.27938612 3.94729537 9.27938612 1 10.4375 C1.99 9.7775 2.98 9.1175 4 8.4375 C4.05167527 6.01482914 4.05167527 6.01482914 3 3.4375 C-5.10025902 -2.02546538 -16.6614302 -0.90550511 -25 3.4375 Z " fill="#14191E" transform="translate(42,9.5625)"/>
<path d="M0 0 C2.18359375 1.1015625 2.18359375 1.1015625 5.30859375 3.1015625 C4.97859375 4.7515625 4.64859375 6.4015625 4.30859375 8.1015625 C-0.75768197 8.61852941 -4.43355329 8.74365174 -8.62890625 5.6015625 C-9.63953125 4.7765625 -10.65015625 3.9515625 -11.69140625 3.1015625 C-12.35140625 3.1015625 -13.01140625 3.1015625 -13.69140625 3.1015625 C-13.14871094 3.43929688 -12.60601563 3.77703125 -12.046875 4.125 C-11.33144531 4.57101563 -10.61601562 5.01703125 -9.87890625 5.4765625 C-9.17121094 5.91742187 -8.46351562 6.35828125 -7.734375 6.8125 C-6.03708586 7.88344726 -4.36126267 8.98832489 -2.69140625 10.1015625 C-4.82701113 12.23716738 -9.48937277 11.28676341 -12.44140625 11.2890625 C-13.25351562 11.30130859 -14.065625 11.31355469 -14.90234375 11.32617188 C-20.14638928 11.33898306 -24.24848086 11.03905505 -28.50390625 7.6640625 C-29.69140625 6.1015625 -29.69140625 6.1015625 -29.69140625 3.1015625 C-27.77083333 2.64583333 -25.85026042 2.19010417 -23.9296875 1.734375 C-21.63368659 1.14327423 -21.63368659 1.14327423 -19.34765625 0.0546875 C-13.4443099 -2.06357207 -5.93375359 -1.98078857 0 0 Z " fill="#EBA72D" transform="translate(40.69140625,10.8984375)"/>
<path d="M0 0 C2.0625 0.4375 2.0625 0.4375 4 1 C3.34 1.66 2.68 2.32 2 3 C2.99 3 3.98 3 5 3 C4.25 10.625 4.25 10.625 2 14 C2.99 14.33 3.98 14.66 5 15 C6 16 6 16 6 18 C7.65 18 9.3 18 11 18 C11.33 17.01 11.66 16.02 12 15 C9.525 14.01 9.525 14.01 7 13 C9.1385485 10.8614515 10.13275314 10.57344937 13 10 C13 9.01 13 8.02 13 7 C13.99 7 14.98 7 16 7 C16 6.01 16 5.02 16 4 C18.475 4.495 18.475 4.495 21 5 C21.33 4.01 21.66 3.02 22 2 C22.042721 3.66611905 22.04063832 5.33382885 22 7 C21.67 7.33 21.34 7.66 21 8 C20.94723326 9.58300228 20.90779525 11.16645808 20.875 12.75 C20.60539208 15.64517425 20.42422488 17.43848952 18.66015625 19.7734375 C14.19087977 23.27994467 10.54904927 23.62650556 5 23 C2.0625 22.1875 2.0625 22.1875 0 21 C-1.29521242 17.11436275 -1.14503464 13.42199731 -1.125 9.375 C-1.12886719 8.58609375 -1.13273437 7.7971875 -1.13671875 6.984375 C-1.12665394 1.12665394 -1.12665394 1.12665394 0 0 Z " fill="#E48C43" transform="translate(19,27)"/>
<path d="M0 0 C0.66 0 1.32 0 2 0 C2.33 0.99 2.66 1.98 3 3 C5.97 3.33 8.94 3.66 12 4 C11.34 7.63 10.68 11.26 10 15 C10.99 15 11.98 15 13 15 C13 11.7 13 8.4 13 5 C16.3 4.67 19.6 4.34 23 4 C23.33 4.66 23.66 5.32 24 6 C22.35 6 20.7 6 19 6 C19.66 6.66 20.32 7.32 21 8 C20.625 10.125 20.625 10.125 20 12 C19.01 12 18.02 12 17 12 C17.33 13.65 17.66 15.3 18 17 C17.195625 16.979375 16.39125 16.95875 15.5625 16.9375 C13.06645115 16.70366379 13.06645115 16.70366379 12 18 C14.475 18.99 14.475 18.99 17 20 C16.34 20.33 15.68 20.66 15 21 C15 21.66 15 22.32 15 23 C11.28400809 23.20086443 10.22791555 23.1519437 7 21 C7.33 20.67 7.66 20.34 8 20 C7.34 19.67 6.68 19.34 6 19 C6.33 18.0925 6.66 17.185 7 16.25 C8.19605723 12.92954193 8.19605723 12.92954193 8 9 C7.01 8.67 6.02 8.34 5 8 C5.66 7.34 6.32 6.68 7 6 C5.35 5.67 3.7 5.34 2 5 C2 6.32 2 7.64 2 9 C1.34 9 0.68 9 0 9 C0 6.03 0 3.06 0 0 Z " fill="#3D2916" transform="translate(15,22)"/>
<path d="M0 0 C2.9213771 0.44944263 4.34749684 1.24710886 6.8125 3 C10.33954136 5.21304556 12.90353579 5.59838586 17 6 C17.33 6.33 17.66 6.66 18 7 C19.32 6.34 20.64 5.68 22 5 C23 6 23 6 23.1328125 7.8125 C23.13023438 8.534375 23.12765625 9.25625 23.125 10 C23.12886719 11.0828125 23.12886719 11.0828125 23.1328125 12.1875 C23 14 23 14 22 15 C22.99 15.99 23.98 16.98 25 18 C24.67 18.66 24.34 19.32 24 20 C23.34 20 22.68 20 22 20 C22 20.99 22 21.98 22 23 C21.34 23 20.68 23 20 23 C20 22.01 20 21.02 20 20 C19.01 19.67 18.02 19.34 17 19 C15.8422494 15.52674819 15.93133348 12.63932552 16 9 C14.4840625 9.495 14.4840625 9.495 12.9375 10 C9.24520089 11.07001321 5.84751793 11.15704155 2 11 C2 10.34 2 9.68 2 9 C6.455 8.505 6.455 8.505 11 8 C10.2059375 7.50628906 9.411875 7.01257813 8.59375 6.50390625 C7.5728125 5.86324219 6.551875 5.22257812 5.5 4.5625 C4.4790625 3.92441406 3.458125 3.28632813 2.40625 2.62890625 C1.6121875 2.09136719 0.818125 1.55382812 0 1 C0 0.67 0 0.34 0 0 Z " fill="#4E3517" transform="translate(26,13)"/>
<path d="M0 0 C-0.33 0.33 -0.66 0.66 -1 1 C4.59579736 4.39374748 9.56917213 6.71383443 16 8 C16 8.33 16 8.66 16 9 C13.10391407 9.05413245 10.20884805 9.09373641 7.3125 9.125 C6.08756836 9.15013672 6.08756836 9.15013672 4.83789062 9.17578125 C-0.43964894 9.21851436 -4.52548046 8.96254998 -8.8125 5.5625 C-10 4 -10 4 -10 1 C-8.71073008 0.63720544 -7.41846728 0.28503302 -6.125 -0.0625 C-5.40570312 -0.25972656 -4.68640625 -0.45695313 -3.9453125 -0.66015625 C-2 -1 -2 -1 0 0 Z " fill="#B28127" transform="translate(21,13)"/>
<path d="M0 0 C1 2 1 2 0.375 4.3125 C-2.41844593 9.77241705 -8.47506152 15.23753076 -14 18 C-17.38114831 18.40596978 -20.62949947 18.52541799 -24 18 C-26.125 15.5 -26.125 15.5 -27 13 C-24.31508215 11.65754108 -21.9149467 11.97450627 -18.97265625 12.0625 C-16.7852789 12.08733016 -16.7852789 12.08733016 -14 11 C-14 11.66 -14 12.32 -14 13 C-16.91765 14.9451 -18.62537285 15.45276317 -22 16 C-16.99029671 16.62621291 -13.85102922 15.40475738 -9.75390625 12.70703125 C-7.12643128 10.14977833 -6.48960925 7.41712891 -5.765625 3.890625 C-5.51296875 3.26671875 -5.2603125 2.6428125 -5 2 C-2.984375 1.296875 -2.984375 1.296875 -1 1 C-0.67 0.67 -0.34 0.34 0 0 Z " fill="#191616" transform="translate(49,37)"/>
<path d="M0 0 C15.71088788 -0.63788567 15.71088788 -0.63788567 21.4921875 4.265625 C26.37400966 9.7266464 26.11560558 17.01412022 26 24 C25.71840118 25.67618346 25.40489874 27.34925898 25 29 C24.67 29 24.34 29 24 29 C24 27.02 24 25.04 24 23 C23.34 22.67 22.68 22.34 22 22 C22.66 21.67 23.32 21.34 24 21 C23.01 20.01 22.02 19.02 21 18 C21.33 17.01 21.66 16.02 22 15 C22.03874921 13.33378384 22.0450286 11.66605828 22 10 C20.02463255 10.34786708 20.02463255 10.34786708 18 11 C17.67 11.66 17.34 12.32 17 13 C16.01 12.34 15.02 11.68 14 11 C15.65 10.34 17.3 9.68 19 9 C19 7.68 19 6.36 19 5 C12.79081025 1.75428718 6.94170563 1.33055741 0 1 C0 0.67 0 0.34 0 0 Z " fill="#2A2115" transform="translate(26,9)"/>
<path d="M0 0 C5.28 0.66 10.56 1.32 16 2 C14 4 14 4 11 5 C10.67 7.97 10.34 10.94 10 14 C9.01 14 8.02 14 7 14 C7.33 10.7 7.66 7.4 8 4 C5.36 3.67 2.72 3.34 0 3 C0 2.01 0 1.02 0 0 Z " fill="#E18A43" transform="translate(18,23)"/>
<path d="M0 0 C0.33 0.66 0.66 1.32 1 2 C-0.65 2 -2.3 2 -4 2 C-3.34 2.66 -2.68 3.32 -2 4 C-2.375 6.125 -2.375 6.125 -3 8 C-4.65 8.33 -6.3 8.66 -8 9 C-8 9.66 -8 10.32 -8 11 C-8.66 11 -9.32 11 -10 11 C-10 7.7 -10 4.4 -10 1 C-6.41220825 0.10305206 -3.65381163 -0.08304117 0 0 Z " fill="#CA7334" transform="translate(38,26)"/>
<path d="M0 0 C0.66 0.33 1.32 0.66 2 1 C2.09765625 7.15234375 2.09765625 7.15234375 2 9 C1.67 9.33 1.34 9.66 1 10 C1.99 10.99 2.98 11.98 4 13 C2.02 13.33 0.04 13.66 -2 14 C-3.23408207 11.53183586 -3.20197579 9.75338799 -3.25 7 C-3.27578125 6.113125 -3.3015625 5.22625 -3.328125 4.3125 C-3.21984375 3.549375 -3.1115625 2.78625 -3 2 C-2.01 1.34 -1.02 0.68 0 0 Z " fill="#C17526" transform="translate(47,18)"/>
<path d="M0 0 C0.66 0.33 1.32 0.66 2 1 C2 7.6 2 14.2 2 21 C3.32 21 4.64 21 6 21 C6.33 22.65 6.66 24.3 7 26 C3.62670085 24.60415208 1.95767338 23.07634389 0 20 C-1.10514766 16.68455701 -1.32107631 13.79589889 -1.5625 10.3125 C-1.64628906 9.13300781 -1.73007813 7.95351563 -1.81640625 6.73828125 C-1.87699219 5.83464844 -1.93757812 4.93101563 -2 4 C-1.34 4 -0.68 4 0 4 C0 2.68 0 1.36 0 0 Z " fill="#212120" transform="translate(17,27)"/>
<path d="M0 0 C4.62 0 9.24 0 14 0 C12.02 0.99 12.02 0.99 10 2 C10.99 2 11.98 2 13 2 C16.24314437 3.27760233 16.97958823 3.96938234 19 7 C17 7.875 17 7.875 14 8 C11.86890854 6.61719733 9.96787577 5.04743327 8.00390625 3.4375 C5.41828235 1.58270546 3.14942848 1.15747142 0 1 C0 0.67 0 0.34 0 0 Z " fill="#A67424" transform="translate(24,10)"/>
<path d="M0 0 C6.27 0.33 12.54 0.66 19 1 C19 3.64 19 6.28 19 9 C16.625 8.6875 16.625 8.6875 14 8 C13.34 7.01 12.68 6.02 12 5 C13.65 4.67 15.3 4.34 17 4 C11.39 3.01 5.78 2.02 0 1 C0 0.67 0 0.34 0 0 Z " fill="#D67A38" transform="translate(21,23)"/>
<path d="M0 0 C5.26053037 -0.31563182 8.44573816 0.33409063 13 3 C12.67 4.65 12.34 6.3 12 8 C9.03 8 6.06 8 3 8 C3 7.67 3 7.34 3 7 C4.98 6.67 6.96 6.34 9 6 C7.35 4.35 5.7 2.7 4 1 C3.67 1.66 3.34 2.32 3 3 C2.01 2.01 1.02 1.02 0 0 Z " fill="#DE932B" transform="translate(33,11)"/>
<path d="M0 0 C3.66881155 0.70554068 6.70450534 2.27735506 10 4 C9.01 4.495 9.01 4.495 8 5 C8 5.66 8 6.32 8 7 C4.28400809 7.20086443 3.22791555 7.1519437 0 5 C0.33 4.67 0.66 4.34 1 4 C0.34 3.67 -0.32 3.34 -1 3 C-0.67 2.01 -0.34 1.02 0 0 Z " fill="#8D582B" transform="translate(22,38)"/>
<path d="M0 0 C3.125 0.375 3.125 0.375 6 1 C6 2.32 6 3.64 6 5 C5.01 5.33 4.02 5.66 3 6 C3 6.66 3 7.32 3 8 C0.69 8 -1.62 8 -4 8 C-4 7.67 -4 7.34 -4 7 C-2.02 7 -0.04 7 2 7 C2.33 6.01 2.66 5.02 3 4 C0.525 3.01 0.525 3.01 -2 2 C-1.34 1.34 -0.68 0.68 0 0 Z " fill="#CD7C3B" transform="translate(28,38)"/>
<path d="M0 0 C2.70931419 0.15481795 4.46584039 0.48172081 6.4453125 2.40234375 C7.67679642 3.89771708 8.8429837 5.4462924 10 7 C6.33924624 7.3327958 4.60499012 7.46170299 1.625 5.1875 C0 3 0 3 0 0 Z " fill="#EBAA33" transform="translate(11,14)"/>
<path d="M0 0 C0.33 0 0.66 0 1 0 C1.19600577 2.22843488 1.38146569 4.45779893 1.5625 6.6875 C1.66691406 7.92886719 1.77132812 9.17023437 1.87890625 10.44921875 C1.98493841 13.55835533 1.77228525 16.00810972 1 19 C0.67 19 0.34 19 0 19 C0 17.02 0 15.04 0 13 C-0.66 12.67 -1.32 12.34 -2 12 C-1.34 11.67 -0.68 11.34 0 11 C-0.99 10.01 -1.98 9.02 -3 8 C-2.34 8 -1.68 8 -1 8 C-0.67 5.36 -0.34 2.72 0 0 Z " fill="#131518" transform="translate(50,19)"/>
<path d="M0 0 C0.66 0 1.32 0 2 0 C2 0.66 2 1.32 2 2 C-0.90092502 3.93395001 -1.89674737 4.30131941 -5.1875 4.625 C-6.445625 4.74875 -7.70375 4.8725 -9 5 C-9.66 4.01 -10.32 3.02 -11 2 C-8.70961976 0.85480988 -7.46931463 0.92648088 -4.9375 1 C-3.638125 1 -2.33875 1 -1 1 C-0.67 0.67 -0.34 0.34 0 0 Z " fill="#4E2E17" transform="translate(33,48)"/>
<path d="M0 0 C0.33 0.66 0.66 1.32 1 2 C-0.65 2 -2.3 2 -4 2 C-3.34 2.66 -2.68 3.32 -2 4 C-3.65 4.33 -5.3 4.66 -7 5 C-7.99 3.68 -8.98 2.36 -10 1 C-6.61981469 -0.04005702 -3.5219721 -0.08004482 0 0 Z " fill="#352514" transform="translate(38,26)"/>
<path d="M0 0 C2 3.75 2 3.75 2 6 C4.475 6.99 4.475 6.99 7 8 C3.25 10 3.25 10 1 10 C-0.60725635 6.78548731 -0.05748185 3.56387464 0 0 Z " fill="#CF892C" transform="translate(44,22)"/>
<path d="M0 0 C0.66 0 1.32 0 2 0 C1.67 2.97 1.34 5.94 1 9 C0.01 9 -0.98 9 -2 9 C-1.125 1.125 -1.125 1.125 0 0 Z " fill="#DD813C" transform="translate(27,28)"/>
<path d="M0 0 C0.33 0.66 0.66 1.32 1 2 C0.0625 4.625 0.0625 4.625 -1 7 C-1.99 7 -2.98 7 -4 7 C-4.33 5.35 -4.66 3.7 -5 2 C-4.360625 1.855625 -3.72125 1.71125 -3.0625 1.5625 C-1.02454854 1.18992819 -1.02454854 1.18992819 0 0 Z " fill="#3F2618" transform="translate(49,37)"/>
<path d="M0 0 C0.66 0 1.32 0 2 0 C2.66 1.65 3.32 3.3 4 5 C3.34 5 2.68 5 2 5 C2 6.32 2 7.64 2 9 C1.34 9 0.68 9 0 9 C0 6.03 0 3.06 0 0 Z " fill="#614A1D" transform="translate(15,22)"/>
<path d="M0 0 C1.67542976 0.28604898 3.34385343 0.61781233 5 1 C5.33 2.32 5.66 3.64 6 5 C3.625 4.6875 3.625 4.6875 1 4 C0.34 3.01 -0.32 2.02 -1 1 C-0.67 0.67 -0.34 0.34 0 0 Z " fill="#B87237" transform="translate(34,27)"/>
</svg>
