<?xml version="1.0" encoding="UTF-8"?>
<svg version="1.1" xmlns="http://www.w3.org/2000/svg" width="16" height="16">
<path d="M0 0 C0.86625 -0.00773438 1.7325 -0.01546875 2.625 -0.0234375 C5 0.375 5 0.375 6.7890625 1.5859375 C8.39038277 3.95175906 8.40035579 5.53515158 8.375 8.375 C8.38273437 9.24125 8.39046875 10.1075 8.3984375 11 C8 13.375 8 13.375 6.7890625 15.1640625 C4.42324094 16.76538277 2.83984842 16.77535579 0 16.75 C-0.86625 16.75773437 -1.7325 16.76546875 -2.625 16.7734375 C-5 16.375 -5 16.375 -6.7890625 15.1640625 C-8.39038277 12.79824094 -8.40035579 11.21484842 -8.375 8.375 C-8.38273438 7.50875 -8.39046875 6.6425 -8.3984375 5.75 C-8 3.375 -8 3.375 -6.7890625 1.5859375 C-4.42324094 -0.01538277 -2.83984842 -0.02535579 0 0 Z " fill="#04317B" transform="translate(8,-0.375)"/>
<path d="M0 0 C2.32528287 2.32528287 2.29511025 2.84665898 2.3125 6 C2.32925781 6.70125 2.34601562 7.4025 2.36328125 8.125 C2.18345703 9.053125 2.18345703 9.053125 2 10 C-1 12 -1 12 -4.1875 11.625 C-5.5796875 11.315625 -5.5796875 11.315625 -7 11 C-7.66 7.7 -8.32 4.4 -9 1 C-5.75778445 -0.08073852 -3.39597063 -0.21676408 0 0 Z " fill="#A06B26" transform="translate(11,2)"/>
<path d="M0 0 C2.86724686 0.57344937 3.8614515 0.8614515 6 3 C5.625 5.125 5.625 5.125 5 7 C3.68 7.33 2.36 7.66 1 8 C0.67 5.36 0.34 2.72 0 0 Z " fill="#8E4C28" transform="translate(3,5)"/>
<path d="M0 0 C1.32 0.33 2.64 0.66 4 1 C3.34 2.65 2.68 4.3 2 6 C0.35 5.67 -1.3 5.34 -3 5 C-2.01 4.67 -1.02 4.34 0 4 C0 2.68 0 1.36 0 0 Z " fill="#D37635" transform="translate(8,8)"/>
</svg>
