<?xml version="1.0" encoding="UTF-8"?>
<svg version="1.1" xmlns="http://www.w3.org/2000/svg" width="64" height="64">
<path d="M0 0 C4.34723025 2.73997963 8.01785452 5.8909729 11.1875 9.9375 C11.69539063 10.57558594 12.20328125 11.21367187 12.7265625 11.87109375 C16.5332535 17.8363274 16.64558168 23.80935247 16.6875 30.6875 C16.69386475 31.59902832 16.70022949 32.51055664 16.70678711 33.44970703 C16.53152054 42.67363946 12.93191665 47.98091443 6.671875 54.58984375 C-0.94130851 61.78406276 -8.31799162 62.65384619 -18.4765625 62.5300293 C-27.30754938 62.14906849 -33.09596965 59.62172462 -39.625 53.6875 C-46.31289533 46.19604087 -48.612349 39.76086786 -48.3125 29.75 C-48.31507812 28.79158203 -48.31765625 27.83316406 -48.3203125 26.84570312 C-48.18967271 17.39391399 -44.72026185 12.0665344 -38.296875 5.28515625 C-28.65118007 -3.82972213 -12.1480253 -5.6168289 0 0 Z " fill="#2D2213" transform="translate(47.8125,2.0625)"/>
<path d="M0 0 C4.34723025 2.73997963 8.01785452 5.8909729 11.1875 9.9375 C11.69539063 10.57558594 12.20328125 11.21367187 12.7265625 11.87109375 C16.5332535 17.8363274 16.64558168 23.80935247 16.6875 30.6875 C16.69386475 31.59902832 16.70022949 32.51055664 16.70678711 33.44970703 C16.53152054 42.67363946 12.93191665 47.98091443 6.671875 54.58984375 C-0.94130851 61.78406276 -8.31799162 62.65384619 -18.4765625 62.5300293 C-27.30754938 62.14906849 -33.09596965 59.62172462 -39.625 53.6875 C-46.31289533 46.19604087 -48.612349 39.76086786 -48.3125 29.75 C-48.31507812 28.79158203 -48.31765625 27.83316406 -48.3203125 26.84570312 C-48.18967271 17.39391399 -44.72026185 12.0665344 -38.296875 5.28515625 C-28.65118007 -3.82972213 -12.1480253 -5.6168289 0 0 Z M-32.8125 8.9375 C-35.1454866 8.97772391 -37.47956666 8.98070247 -39.8125 8.9375 C-40.1425 9.2675 -40.4725 9.5975 -40.8125 9.9375 C-40.71941463 13.42368881 -40.71941463 13.42368881 -39.8125 16.9375 C-37.83092991 18.19185427 -37.83092991 18.19185427 -35.8125 18.9375 C-35.84730469 20.18466797 -35.84730469 20.18466797 -35.8828125 21.45703125 C-35.90085937 22.54371094 -35.91890625 23.63039063 -35.9375 24.75 C-35.96070313 25.82894531 -35.98390625 26.90789063 -36.0078125 28.01953125 C-36.04273717 31.13152868 -36.04273717 31.13152868 -33.8125 33.9375 C-33.4727172 37.19769442 -33.37060868 40.4357404 -33.25390625 43.7109375 C-32.6103094 48.41545963 -30.86921406 50.98916687 -27.375 54.125 C-22.99188324 57.22525332 -20.30378456 58.57110976 -14.8125 57.9375 C-8.76925253 55.77919733 -4.73996794 52.79243588 -1.8125 46.9375 C-1.19117188 46.68355469 -0.56984375 46.42960937 0.0703125 46.16796875 C3.98280577 43.89410273 4.85825133 39.82037864 6.32421875 35.7265625 C7.98836369 28.42239693 7.1619343 21.10368055 3.9453125 14.31640625 C0.19890296 8.79804625 -3.86408373 7.11135349 -10.125 5.25 C-18.25119941 4.30509309 -25.8161765 4.27328433 -32.8125 8.9375 Z " fill="#003382" transform="translate(47.8125,2.0625)"/>
<path d="M0 0 C0.10957031 0.65226562 0.21914063 1.30453125 0.33203125 1.9765625 C1.26508962 7.1197623 2.34784083 11.41899779 5 16 C5.66 16 6.32 16 7 16 C6.505 14.02 6.505 14.02 6 12 C6.99 12 7.98 12 9 12 C8.125 18.875 8.125 18.875 7 20 C5.33382885 20.04063832 3.66611905 20.042721 2 20 C1.95875 21.010625 1.9175 22.02125 1.875 23.0625 C1.19199211 27.86306977 -1.47547077 30.82706614 -5 34 C-8.91614141 36.3095193 -12.50490598 36.41621241 -17 36 C-18.9375 34.5 -18.9375 34.5 -20 33 C-18.948125 33.061875 -17.89625 33.12375 -16.8125 33.1875 C-12.84183507 32.9922214 -11.15803031 32.29674932 -8 30 C-8.515625 30.33 -9.03125 30.66 -9.5625 31 C-12.81215644 32.33319238 -15.52001247 32.19333264 -19 32 C-19.66 31.67 -20.32 31.34 -21 31 C-21 30.34 -21 29.68 -21 29 C-21.99 29.33 -22.98 29.66 -24 30 C-25.99267584 28.13807717 -26.92846769 26.61007042 -27.24755859 23.88867188 C-27.29513603 21.33688446 -27.26098224 18.80115255 -27.1875 16.25 C-27.17396484 15.36183594 -27.16042969 14.47367188 -27.14648438 13.55859375 C-27.11121309 11.37177422 -27.06192752 9.18620034 -27 7 C-25.35 6.67 -23.7 6.34 -22 6 C-21.67 6.66 -21.34 7.32 -21 8 C-22.32 8.33 -23.64 8.66 -25 9 C-24.505 9.37125 -24.01 9.7425 -23.5 10.125 C-21.40244486 12.74694393 -21.78256165 14.73842472 -22 18 C-16.44506076 19.02703748 -16.44506076 19.02703748 -11 18 C-13.11326526 13.29157376 -13.11326526 13.29157376 -17 10 C-17.33 8.68 -17.66 7.36 -18 6 C-20.97 5.67 -23.94 5.34 -27 5 C-26.67 4.01 -26.34 3.02 -26 2 C-25.01604248 1.96241577 -25.01604248 1.96241577 -24.01220703 1.92407227 C-21.04959817 1.8082674 -18.08731969 1.68547114 -15.125 1.5625 C-14.09246094 1.52318359 -13.05992188 1.48386719 -11.99609375 1.44335938 C-11.00996094 1.40146484 -10.02382813 1.35957031 -9.0078125 1.31640625 C-8.09660645 1.27974854 -7.18540039 1.24309082 -6.24658203 1.20532227 C-3.87734665 0.98879032 -2.36291396 0 0 0 Z " fill="#EA8E44" transform="translate(43,22)"/>
<path d="M0 0 C0.10957031 0.65226562 0.21914063 1.30453125 0.33203125 1.9765625 C1.26508962 7.1197623 2.34784083 11.41899779 5 16 C5.66 16 6.32 16 7 16 C6.67 14.68 6.34 13.36 6 12 C6.99 12 7.98 12 9 12 C8.125 18.875 8.125 18.875 7 20 C5.33382885 20.04063832 3.66611905 20.042721 2 20 C1.95875 21.010625 1.9175 22.02125 1.875 23.0625 C1.19199211 27.86306977 -1.47547077 30.82706614 -5 34 C-8.91614141 36.3095193 -12.50490598 36.41621241 -17 36 C-18.9375 34.5 -18.9375 34.5 -20 33 C-18.948125 33.061875 -17.89625 33.12375 -16.8125 33.1875 C-12.11014857 32.95623681 -9.99420222 31.56721975 -6.39453125 28.73828125 C-4.47228528 26.34220434 -4.56409452 24.53826848 -4.4375 21.5 C-4.26623569 17.63876832 -4.20142898 16.30214347 -2 13 C-1.61500109 11.34450469 -1.27206865 9.6777567 -1 8 C-1.66 8 -2.32 8 -3 8 C-3 8.99 -3 9.98 -3 11 C-9.625 11.125 -9.625 11.125 -13 10 C-13.33 9.01 -13.66 8.02 -14 7 C-13.360625 6.71125 -12.72125 6.4225 -12.0625 6.125 C-9.84793921 5.17176549 -9.84793921 5.17176549 -9 3 C-11.31 3 -13.62 3 -16 3 C-16 2.67 -16 2.34 -16 2 C-15.15695313 1.93941406 -14.31390625 1.87882812 -13.4453125 1.81640625 C-12.34960938 1.73261719 -11.25390625 1.64882813 -10.125 1.5625 C-9.03445312 1.48128906 -7.94390625 1.40007813 -6.8203125 1.31640625 C-4.26398303 1.02961583 -2.50524575 0 0 0 Z " fill="#D76A2B" transform="translate(43,22)"/>
<path d="M0 0 C1.94507126 1.59950022 2.17921027 2.81862987 2.5390625 5.265625 C1.5490625 5.595625 0.5590625 5.925625 -0.4609375 6.265625 C-0.4609375 5.275625 -0.4609375 4.285625 -0.4609375 3.265625 C-1.3890625 3.0490625 -1.3890625 3.0490625 -2.3359375 2.828125 C-4.4609375 2.265625 -4.4609375 2.265625 -6.4609375 1.265625 C-5.4709375 2.750625 -5.4709375 2.750625 -4.4609375 4.265625 C-9.2109375 2.390625 -9.2109375 2.390625 -11.4609375 1.265625 C-10.6771875 1.884375 -9.8934375 2.503125 -9.0859375 3.140625 C-6.4609375 5.265625 -6.4609375 5.265625 -4.4609375 7.265625 C-10.16723104 6.83765298 -13.87172366 4.42216548 -18.4609375 1.265625 C-14.9959375 3.740625 -14.9959375 3.740625 -11.4609375 6.265625 C-11.7909375 7.255625 -12.1209375 8.245625 -12.4609375 9.265625 C-13.9198801 8.78831662 -15.37807246 8.30871458 -16.8359375 7.828125 C-17.64804687 7.56128906 -18.46015625 7.29445313 -19.296875 7.01953125 C-21.4609375 6.265625 -21.4609375 6.265625 -23.4609375 5.265625 C-22.1409375 6.585625 -20.8209375 7.905625 -19.4609375 9.265625 C-22.80467225 8.70833587 -25.49406749 7.91388611 -28.4609375 6.265625 C-27.1409375 7.585625 -25.8209375 8.905625 -24.4609375 10.265625 C-29.05428032 10.58609078 -31.89904069 10.31867941 -35.4609375 7.265625 C-36.2734375 4.078125 -36.2734375 4.078125 -36.4609375 1.265625 C-35.6359375 1.348125 -34.8109375 1.430625 -33.9609375 1.515625 C-30.30527898 1.51250225 -30.30527898 1.51250225 -27.0234375 -0.734375 C-18.88208295 -5.1181813 -8.11796273 -3.8309487 0 0 Z " fill="#E4A730" transform="translate(45.4609375,11.734375)"/>
<path d="M0 0 C1.92578125 0.6953125 1.92578125 0.6953125 4 2 C4.79296875 4.2421875 4.79296875 4.2421875 5.1875 6.875 C5.32542969 7.73867188 5.46335937 8.60234375 5.60546875 9.4921875 C5.80076172 10.73355469 5.80076172 10.73355469 6 12 C6.22558594 12.6290625 6.45117188 13.258125 6.68359375 13.90625 C7.17723683 17.17282643 6.0273931 19.56805303 4.875 22.625 C4.45992187 23.77226563 4.04484375 24.91953125 3.6171875 26.1015625 C2 29 2 29 -0.6796875 30.3984375 C-1.44539063 30.59695312 -2.21109375 30.79546875 -3 31 C-3 28.69 -3 26.38 -3 24 C-1.35 23.67 0.3 23.34 2 23 C2.99 19.535 2.99 19.535 4 16 C3.01 16 2.02 16 1 16 C1.33 17.32 1.66 18.64 2 20 C1.01 20.33 0.02 20.66 -1 21 C-3.66557258 14.94977014 -5.51030705 9.61085476 -6 3 C-5.38125 2.87625 -4.7625 2.7525 -4.125 2.625 C-1.80879168 2.12802644 -1.80879168 2.12802644 0 0 Z " fill="#281A13" transform="translate(48,18)"/>
<path d="M0 0 C-1.98 0.99 -1.98 0.99 -4 2 C-3.50886719 2.35707031 -3.01773437 2.71414062 -2.51171875 3.08203125 C-0.28627194 5.90553095 -0.70749078 8.15218954 -0.8125 11.6875 C-0.85310547 13.45673828 -0.85310547 13.45673828 -0.89453125 15.26171875 C-0.92933594 16.16535156 -0.96414062 17.06898437 -1 18 C-0.01 17.67 0.98 17.34 2 17 C2 17.66 2 18.32 2 19 C7.57830016 19.12469099 7.57830016 19.12469099 13 18 C12.34 18.33 11.68 18.66 11 19 C11.33 20.32 11.66 21.64 12 23 C8.33134759 25.44576827 6.32799657 25.23607254 2 25 C1.34 24.67 0.68 24.34 0 24 C0 23.34 0 22.68 0 22 C-0.99 22.33 -1.98 22.66 -3 23 C-4.99267584 21.13807717 -5.92846769 19.61007042 -6.24755859 16.88867188 C-6.29513603 14.33688446 -6.26098224 11.80115255 -6.1875 9.25 C-6.17396484 8.36183594 -6.16042969 7.47367188 -6.14648438 6.55859375 C-6.11121309 4.37177422 -6.06192752 2.18620034 -6 0 C-3.50907189 -1.24546405 -2.58919267 -0.7767578 0 0 Z " fill="#E18E46" transform="translate(22,29)"/>
<path d="M0 0 C0.598125 0.309375 1.19625 0.61875 1.8125 0.9375 C4.08956772 2.10209704 4.08956772 2.10209704 7 3 C6.34 2.01 5.68 1.02 5 0 C6.33333333 0.66666667 7.66666667 1.33333333 9 2 C9.721875 2.28875 10.44375 2.5775 11.1875 2.875 C13 4 13 4 13.75 6.125 C13.87375 7.053125 13.87375 7.053125 14 8 C12.02 8.33 10.04 8.66 8 9 C8 9.66 8 10.32 8 11 C2.72 11 -2.56 11 -8 11 C-7.67 10.34 -7.34 9.68 -7 9 C-8.98 7.68 -10.96 6.36 -13 5 C-12.34 4.67 -11.68 4.34 -11 4 C-9.26248404 4.9834996 -7.52728244 5.97220312 -5.8203125 7.0078125 C-3.59619686 8.22009871 -1.50491766 8.69637362 1 9 C1.33 8.34 1.66 7.68 2 7 C1.319375 6.731875 0.63875 6.46375 -0.0625 6.1875 C-3.39710809 4.83946694 -6.69743237 3.42463702 -10 2 C-10 1.67 -10 1.34 -10 1 C-4.49264207 1.34420987 -1.22781034 2.80075236 3.30078125 5.94140625 C4.94925653 7.17625689 4.94925653 7.17625689 7 7 C6.4946875 6.57847656 5.989375 6.15695313 5.46875 5.72265625 C4.8190625 5.17480469 4.169375 4.62695312 3.5 4.0625 C2.8503125 3.51722656 2.200625 2.97195312 1.53125 2.41015625 C1.0259375 1.94480469 0.520625 1.47945312 0 1 C0 0.67 0 0.34 0 0 Z " fill="#704B1A" transform="translate(32,11)"/>
<path d="M0 0 C3.03276029 2.69519156 5.28175043 5.30576342 7 9 C7.1875 12.8125 7.1875 12.8125 7 16 C6.67 16 6.34 16 6 16 C5.34 13.69 4.68 11.38 4 9 C1.53199953 10.15173355 -0.04783565 11.04783565 -2 13 C-2 12.34 -2 11.68 -2 11 C-2.99 11.66 -3.98 12.32 -5 13 C-7.6875 13.125 -7.6875 13.125 -10 13 C-8.68 12.67 -7.36 12.34 -6 12 C-6 11.34 -6 10.68 -6 10 C-3.69 9.01 -1.38 8.02 1 7 C0.73633633 5.04704677 0.73633633 5.04704677 0 3 C-7.59118116 -1.25106145 -17.39552427 -1.38716754 -25.74609375 0.6796875 C-28.11955159 1.52770847 -28.11955159 1.52770847 -31 3 C-31 2.34 -31 1.68 -31 1 C-22.17364219 -5.30454129 -9.60898986 -4.11375285 0 0 Z " fill="#0F1010" transform="translate(46,10)"/>
<path d="M0 0 C0.75 1.6875 0.75 1.6875 1 4 C-1.79355166 8.85835071 -5.86491472 11.14898089 -11 13 C-15.87016613 13.68182326 -18.84624228 12.56295689 -23 10 C-25.875 7.3125 -25.875 7.3125 -28 5 C-27.67 4.01 -27.34 3.02 -27 2 C-25.515 2.99 -25.515 2.99 -24 4 C-23.34 4 -22.68 4 -22 4 C-22 4.66 -22 5.32 -22 6 C-14.77967794 6.2993987 -14.77967794 6.2993987 -8 4 C-8.9375 5.9375 -8.9375 5.9375 -11 8 C-13.9858081 8.66174825 -16.94861869 8.87205948 -20 9 C-16.92805092 10.53597454 -14.39755707 10.2265038 -11 10 C-5.66260527 8.01155883 -2.54666176 5.09332352 0 0 Z " fill="#281A13" transform="translate(44,47)"/>
<path d="M0 0 C1.67542976 0.28604898 3.34385343 0.61781233 5 1 C5.33 1.99 5.66 2.98 6 4 C5.01 4.495 5.01 4.495 4 5 C4.33 5.66 4.66 6.32 5 7 C1.21812119 8.83691257 -0.94568308 9.15837626 -5 8 C-5 7.34 -5 6.68 -5 6 C-6.98 6.99 -6.98 6.99 -9 8 C-9 5.69 -9 3.38 -9 1 C-7.700625 1.020625 -6.40125 1.04125 -5.0625 1.0625 C-3.70834367 1.08399454 -2.35243917 1.07148199 -1 1 C-0.67 0.67 -0.34 0.34 0 0 Z " fill="#C97C3C" transform="translate(29,40)"/>
<path d="M0 0 C4.62 0 9.24 0 14 0 C13.67 2.97 13.34 5.94 13 9 C6.375 9.125 6.375 9.125 3 8 C2.67 7.01 2.34 6.02 2 5 C2.639375 4.71125 3.27875 4.4225 3.9375 4.125 C6.15206079 3.17176549 6.15206079 3.17176549 7 1 C4.69 1 2.38 1 0 1 C0 0.67 0 0.34 0 0 Z " fill="#DB7C39" transform="translate(27,24)"/>
<path d="M0 0 C5.78591511 -0.10477512 11.29309366 0.00749455 17 1 C16 4 16 4 13 6 C13.33 6.99 13.66 7.98 14 9 C11 9 11 9 9 8 C8.67 6.68 8.34 5.36 8 4 C5.03 3.67 2.06 3.34 -1 3 C-0.67 2.01 -0.34 1.02 0 0 Z " fill="#E88D43" transform="translate(17,24)"/>
<path d="M0 0 C0.99 0.33 1.98 0.66 3 1 C3 3.66666667 3 6.33333333 3 9 C2.01 9.33 1.02 9.66 0 10 C1.65 10.99 3.3 11.98 5 13 C4.67 13.66 4.34 14.32 4 15 C1.625 15.125 1.625 15.125 -1 15 C-3.51012963 12.48987037 -3.29721609 11.53194763 -3.3125 8.0625 C-3.32925781 7.18722656 -3.34601562 6.31195312 -3.36328125 5.41015625 C-2.93939398 2.59791488 -2.18325915 1.74545521 0 0 Z " fill="#E0922F" transform="translate(48,18)"/>
<path d="M0 0 C-0.33 0.99 -0.66 1.98 -1 3 C1.64 4.65 4.28 6.3 7 8 C6.67 8.99 6.34 9.98 6 11 C0.98491285 9.45941767 -3.6147081 7.97068161 -8 5 C-7.67 3.68 -7.34 2.36 -7 1 C-4.50935112 0.31292445 -2.62113708 0 0 0 Z " fill="#F2AF2F" transform="translate(27,10)"/>
<path d="M0 0 C2.625 0.375 2.625 0.375 5 1 C5.625 3.375 5.625 3.375 6 6 C5.34 6.66 4.68 7.32 4 8 C1.375 7.625 1.375 7.625 -1 7 C-1.625 4.625 -1.625 4.625 -2 2 C-1.34 1.34 -0.68 0.68 0 0 Z " fill="#EA0913" transform="translate(23,33)"/>
<path d="M0 0 C0.33 0.66 0.66 1.32 1 2 C1.639375 2.2475 2.27875 2.495 2.9375 2.75 C5.9127423 4.55317715 6.14907937 6.7381376 7 10 C4.13024831 11.95143115 2.87385237 11.98930952 -0.6875 11.6875 C-4 11 -4 11 -5 10 C-5.14115161 7.32941149 -5.04247107 4.67567762 -5 2 C-3.35 1.34 -1.7 0.68 0 0 Z M-2 3 C-2.66 3.66 -3.32 4.32 -4 5 C-3.67958603 7.60280568 -3.67958603 7.60280568 -3 10 C-0.60280568 10.67958603 -0.60280568 10.67958603 2 11 C2.66 10.34 3.32 9.68 4 9 C3.67958603 6.39719432 3.67958603 6.39719432 3 4 C0.60280568 3.32041397 0.60280568 3.32041397 -2 3 Z " fill="#401B13" transform="translate(25,30)"/>
<path d="M0 0 C0.75 1.6875 0.75 1.6875 1 4 C-1.77592406 8.82769401 -5.86687917 11.20045764 -11 13 C-14.5 13.25 -14.5 13.25 -17 13 C-17.33 12.34 -17.66 11.68 -18 11 C-17.34773438 10.91363281 -16.69546875 10.82726563 -16.0234375 10.73828125 C-9.85329334 9.74632592 -6.33651829 8.5533442 -2 4 C-0.62745412 1.85019503 -0.62745412 1.85019503 0 0 Z " fill="#101116" transform="translate(44,47)"/>
<path d="M0 0 C0.639375 0.268125 1.27875 0.53625 1.9375 0.8125 C4.51061021 1.81023661 7.08428329 2.77217541 9.6875 3.6875 C10.83798828 4.09548828 10.83798828 4.09548828 12.01171875 4.51171875 C14.05672173 5.24148232 14.05672173 5.24148232 16 4 C18.125 4.4375 18.125 4.4375 20 5 C20 5.66 20 6.32 20 7 C15.05 7 10.1 7 5 7 C5.33 6.34 5.66 5.68 6 5 C5.01 4.360625 4.02 3.72125 3 3.0625 C2.01 2.381875 1.02 1.70125 0 1 C0 0.67 0 0.34 0 0 Z " fill="#A87823" transform="translate(19,15)"/>
<path d="M0 0 C3.82825694 0.0274427 3.82825694 0.0274427 6.125 1.75 C6.62 2.4925 6.62 2.4925 7.125 3.25 C3.34312119 5.08691257 1.17931692 5.40837626 -2.875 4.25 C-2.875 3.59 -2.875 2.93 -2.875 2.25 C-3.535 1.92 -4.195 1.59 -4.875 1.25 C-3.875 0.25 -3.875 0.25 0 0 Z " fill="#754724" transform="translate(26.875,43.75)"/>
<path d="M0 0 C0.33 0 0.66 0 1 0 C1.66 4.29 2.32 8.58 3 13 C2.67 12.34 2.34 11.68 2 11 C0.35636866 10.27840576 -1.31050386 9.60648579 -3 9 C-3 8.01 -3 7.02 -3 6 C-2.34 6.33 -1.68 6.66 -1 7 C-1.20625 6.21625 -1.4125 5.4325 -1.625 4.625 C-1.74875 3.75875 -1.8725 2.8925 -2 2 C-1.34 1.34 -0.68 0.68 0 0 Z " fill="#3C2510" transform="translate(51,20)"/>
<path d="M0 0 C-0.33 0.66 -0.66 1.32 -1 2 C-1.99 2 -2.98 2 -4 2 C-3.01 2.99 -2.02 3.98 -1 5 C-4.28696233 5.79953138 -5.71023192 6.09658936 -9 5 C-9.33 4.01 -9.66 3.02 -10 2 C-6.5980513 -0.09350689 -3.94727588 -0.17942163 0 0 Z " fill="#2D1E13" transform="translate(39,27)"/>
<path d="M0 0 C0.99 1.32 1.98 2.64 3 4 C2.01 4.33 1.02 4.66 0 5 C1.65 5.99 3.3 6.98 5 8 C4.67 8.66 4.34 9.32 4 10 C2.35 10 0.7 10 -1 10 C-1.33 7.03 -1.66 4.06 -2 1 C-1.34 0.67 -0.68 0.34 0 0 Z " fill="#D38228" transform="translate(48,23)"/>
<path d="M0 0 C2.125 -0.3125 2.125 -0.3125 5 0 C7.9046165 2.16422406 10.44273523 4.44273523 13 7 C7.53228436 6.59992325 4.04064621 4.53855408 0 1 C0 0.67 0 0.34 0 0 Z " fill="#F6B12F" transform="translate(28,12)"/>
<path d="M0 0 C0.99 0 1.98 0 3 0 C2.74438677 2.3431213 2.40729228 4.67843403 2 7 C1.01 7.495 1.01 7.495 0 8 C0 7.34 0 6.68 0 6 C-0.99 6 -1.98 6 -3 6 C-2.67 5.34 -2.34 4.68 -2 4 C-1.01 4 -0.02 4 1 4 C0.67 2.68 0.34 1.36 0 0 Z " fill="#C26128" transform="translate(49,34)"/>
<path d="M0 0 C4.43090471 1.20842856 6.98112756 2.51668565 10 6 C5.16743695 5.58578031 3.17320782 3.53586014 0 0 Z " fill="#F0B333" transform="translate(16,15)"/>
<path d="M0 0 C2.475 0.495 2.475 0.495 5 1 C4.67 1.66 4.34 2.32 4 3 C4.33 3.99 4.66 4.98 5 6 C2 6 2 6 0 5 C0 3.35 0 1.7 0 0 Z " fill="#A65F2D" transform="translate(26,27)"/>
<path d="M0 0 C1.65 0.99 3.3 1.98 5 3 C4.67 4.32 4.34 5.64 4 7 C3.34 7 2.68 7 2 7 C0.5393715 4.35261084 0 3.10551666 0 0 Z " fill="#E3922A" transform="translate(43,11)"/>
<path d="M0 0 C0 1.65 0 3.3 0 5 C-0.66 5 -1.32 5 -2 5 C-2.33 4.34 -2.66 3.68 -3 3 C-5.01669827 1.86649466 -5.01669827 1.86649466 -7 1 C-4.53721199 -0.231394 -2.7204945 -0.07159196 0 0 Z " fill="#C4793B" transform="translate(40,28)"/>
</svg>
