<?xml version="1.0" encoding="UTF-8"?>
<svg version="1.1" xmlns="http://www.w3.org/2000/svg" width="16" height="16">
<path d="M0 0 C0.86625 -0.00773438 1.7325 -0.01546875 2.625 -0.0234375 C5 0.375 5 0.375 6.7890625 1.5859375 C8.39038277 3.95175906 8.40035579 5.53515158 8.375 8.375 C8.38273437 9.24125 8.39046875 10.1075 8.3984375 11 C8 13.375 8 13.375 6.7890625 15.1640625 C4.42324094 16.76538277 2.83984842 16.77535579 0 16.75 C-0.86625 16.75773437 -1.7325 16.76546875 -2.625 16.7734375 C-5 16.375 -5 16.375 -6.7890625 15.1640625 C-8.39038277 12.79824094 -8.40035579 11.21484842 -8.375 8.375 C-8.38273438 7.50875 -8.39046875 6.6425 -8.3984375 5.75 C-8 3.375 -8 3.375 -6.7890625 1.5859375 C-4.42324094 -0.01538277 -2.83984842 -0.02535579 0 0 Z " fill="#04337C" transform="translate(8,-0.375)"/>
<path d="M0 0 C0.36391205 7.39954511 0.36391205 7.39954511 -1.25 10.0625 C-3 11 -3 11 -5.125 10.75 C-7 10 -7 10 -8 9 C-8.23192865 7.48530552 -8.41215238 5.96245438 -8.5625 4.4375 C-8.64628906 3.61121094 -8.73007813 2.78492188 -8.81640625 1.93359375 C-8.87699219 1.29550781 -8.93757812 0.65742187 -9 0 C-5.93109813 -1.53445094 -3.29905734 -0.54984289 0 0 Z " fill="#945B2B" transform="translate(12,3)"/>
<path d="M0 0 C0.33 0.99 0.66 1.98 1 3 C1.66 3 2.32 3 3 3 C3 2.01 3 1.02 3 0 C3.66 0 4.32 0 5 0 C5 1.65 5 3.3 5 5 C3.0625 5.5625 3.0625 5.5625 1 6 C0 5 0 5 -0.0625 2.4375 C-0.041875 1.633125 -0.02125 0.82875 0 0 Z " fill="#B36C38" transform="translate(5,8)"/>
<path d="M0 0 C0.33 0.66 0.66 1.32 1 2 C-1.70879335 3.35439668 -4.00933268 3.06501451 -7 3 C-7 2.34 -7 1.68 -7 1 C-4.53721199 -0.231394 -2.7204945 -0.07159196 0 0 Z " fill="#A57A2C" transform="translate(10,2)"/>
</svg>
