<?xml version="1.0" encoding="UTF-8"?>
<svg version="1.1" xmlns="http://www.w3.org/2000/svg" width="256" height="256">
<path d="M0 0 C21.12 0 42.24 0 64 0 C64.33 0.99 64.66 1.98 65 3 C66.98 3 68.96 3 71 3 C71 3.66 71 4.32 71 5 C72.98 5 74.96 5 77 5 C77 5.66 77 6.32 77 7 C78.98 7 80.96 7 83 7 C83 7.66 83 8.32 83 9 C84.32 9 85.64 9 87 9 C87 9.66 87 10.32 87 11 C88.32 11 89.64 11 91 11 C91 11.66 91 12.32 91 13 C92.32 13 93.64 13 95 13 C95 13.66 95 14.32 95 15 C96.32 15 97.64 15 99 15 C99 15.66 99 16.32 99 17 C99.66 17 100.32 17 101 17 C101 17.66 101 18.32 101 19 C102.32 19 103.64 19 105 19 C105 19.66 105 20.32 105 21 C105.66 21 106.32 21 107 21 C107 21.66 107 22.32 107 23 C108.32 23 109.64 23 111 23 C111 23.66 111 24.32 111 25 C111.66 25 112.32 25 113 25 C113 25.66 113 26.32 113 27 C113.66 27 114.32 27 115 27 C115 27.66 115 28.32 115 29 C115.66 29 116.32 29 117 29 C117 29.66 117 30.32 117 31 C118.32 31 119.64 31 121 31 C121 31.66 121 32.32 121 33 C121.66 33 122.32 33 123 33 C123 33.66 123 34.32 123 35 C123.66 35 124.32 35 125 35 C125 35.66 125 36.32 125 37 C125.66 37 126.32 37 127 37 C127 37.66 127 38.32 127 39 C127.66 39 128.32 39 129 39 C129 40.32 129 41.64 129 43 C129.66 43 130.32 43 131 43 C131 43.66 131 44.32 131 45 C131.66 45 132.32 45 133 45 C133 45.66 133 46.32 133 47 C133.66 47 134.32 47 135 47 C135 47.66 135 48.32 135 49 C135.66 49 136.32 49 137 49 C137 50.32 137 51.64 137 53 C137.66 53 138.32 53 139 53 C139 53.66 139 54.32 139 55 C139.66 55 140.32 55 141 55 C141 56.32 141 57.64 141 59 C141.66 59 142.32 59 143 59 C143 59.66 143 60.32 143 61 C143.66 61 144.32 61 145 61 C145 62.32 145 63.64 145 65 C145.66 65 146.32 65 147 65 C147 66.32 147 67.64 147 69 C147.66 69 148.32 69 149 69 C149 70.32 149 71.64 149 73 C149.66 73 150.32 73 151 73 C151 74.32 151 75.64 151 77 C151.66 77 152.32 77 153 77 C153 78.98 153 80.96 153 83 C153.66 83 154.32 83 155 83 C155 84.98 155 86.96 155 89 C155.66 89 156.32 89 157 89 C157 90.98 157 92.96 157 95 C157.99 95 158.98 95 160 95 C160 116.78 160 138.56 160 161 C159.01 161 158.02 161 157 161 C157 163.64 157 166.28 157 169 C156.34 169 155.68 169 155 169 C155 170.98 155 172.96 155 175 C154.34 175 153.68 175 153 175 C153 176.32 153 177.64 153 179 C152.34 179 151.68 179 151 179 C151 180.32 151 181.64 151 183 C150.34 183 149.68 183 149 183 C149 184.98 149 186.96 149 189 C148.34 189 147.68 189 147 189 C147 189.66 147 190.32 147 191 C146.34 191 145.68 191 145 191 C145 192.32 145 193.64 145 195 C144.34 195 143.68 195 143 195 C143 196.32 143 197.64 143 199 C142.34 199 141.68 199 141 199 C141 199.66 141 200.32 141 201 C140.34 201 139.68 201 139 201 C139 202.32 139 203.64 139 205 C138.34 205 137.68 205 137 205 C137 205.66 137 206.32 137 207 C136.34 207 135.68 207 135 207 C135 207.66 135 208.32 135 209 C134.34 209 133.68 209 133 209 C133 210.32 133 211.64 133 213 C132.34 213 131.68 213 131 213 C131 213.66 131 214.32 131 215 C130.34 215 129.68 215 129 215 C129 215.66 129 216.32 129 217 C128.34 217 127.68 217 127 217 C127 217.66 127 218.32 127 219 C126.34 219 125.68 219 125 219 C125 219.66 125 220.32 125 221 C124.34 221 123.68 221 123 221 C123 221.66 123 222.32 123 223 C122.34 223 121.68 223 121 223 C121 223.66 121 224.32 121 225 C120.34 225 119.68 225 119 225 C119 225.66 119 226.32 119 227 C118.34 227 117.68 227 117 227 C117 227.66 117 228.32 117 229 C115.68 229 114.36 229 113 229 C113 229.66 113 230.32 113 231 C112.34 231 111.68 231 111 231 C111 231.66 111 232.32 111 233 C110.34 233 109.68 233 109 233 C109 233.66 109 234.32 109 235 C107.68 235 106.36 235 105 235 C105 235.66 105 236.32 105 237 C104.34 237 103.68 237 103 237 C103 237.66 103 238.32 103 239 C101.68 239 100.36 239 99 239 C99 239.66 99 240.32 99 241 C97.68 241 96.36 241 95 241 C95 241.66 95 242.32 95 243 C93.68 243 92.36 243 91 243 C91 243.66 91 244.32 91 245 C89.68 245 88.36 245 87 245 C87 245.66 87 246.32 87 247 C85.68 247 84.36 247 83 247 C83 247.66 83 248.32 83 249 C81.68 249 80.36 249 79 249 C79 249.66 79 250.32 79 251 C77.02 251 75.04 251 73 251 C73 251.66 73 252.32 73 253 C70.36 253 67.72 253 65 253 C64.67 253.99 64.34 254.98 64 256 C42.88 256 21.76 256 0 256 C-0.33 255.01 -0.66 254.02 -1 253 C-3.64 253 -6.28 253 -9 253 C-9 252.34 -9 251.68 -9 251 C-10.98 251 -12.96 251 -15 251 C-15 250.34 -15 249.68 -15 249 C-16.32 249 -17.64 249 -19 249 C-19 248.34 -19 247.68 -19 247 C-20.32 247 -21.64 247 -23 247 C-23 246.34 -23 245.68 -23 245 C-24.32 245 -25.64 245 -27 245 C-27 244.34 -27 243.68 -27 243 C-28.32 243 -29.64 243 -31 243 C-31 242.34 -31 241.68 -31 241 C-32.32 241 -33.64 241 -35 241 C-35 240.34 -35 239.68 -35 239 C-36.32 239 -37.64 239 -39 239 C-39 238.34 -39 237.68 -39 237 C-39.66 237 -40.32 237 -41 237 C-41 236.34 -41 235.68 -41 235 C-42.32 235 -43.64 235 -45 235 C-45 234.34 -45 233.68 -45 233 C-45.66 233 -46.32 233 -47 233 C-47 232.34 -47 231.68 -47 231 C-47.66 231 -48.32 231 -49 231 C-49 230.34 -49 229.68 -49 229 C-50.32 229 -51.64 229 -53 229 C-53 228.34 -53 227.68 -53 227 C-53.66 227 -54.32 227 -55 227 C-55 226.34 -55 225.68 -55 225 C-55.66 225 -56.32 225 -57 225 C-57 224.34 -57 223.68 -57 223 C-57.66 223 -58.32 223 -59 223 C-59 222.34 -59 221.68 -59 221 C-59.66 221 -60.32 221 -61 221 C-61 220.34 -61 219.68 -61 219 C-61.66 219 -62.32 219 -63 219 C-63 218.34 -63 217.68 -63 217 C-63.66 217 -64.32 217 -65 217 C-65 216.34 -65 215.68 -65 215 C-65.66 215 -66.32 215 -67 215 C-67 214.34 -67 213.68 -67 213 C-67.66 213 -68.32 213 -69 213 C-69 211.68 -69 210.36 -69 209 C-69.66 209 -70.32 209 -71 209 C-71 208.34 -71 207.68 -71 207 C-71.66 207 -72.32 207 -73 207 C-73 206.34 -73 205.68 -73 205 C-73.66 205 -74.32 205 -75 205 C-75 203.68 -75 202.36 -75 201 C-75.66 201 -76.32 201 -77 201 C-77 200.34 -77 199.68 -77 199 C-77.66 199 -78.32 199 -79 199 C-79 197.68 -79 196.36 -79 195 C-79.66 195 -80.32 195 -81 195 C-81 193.68 -81 192.36 -81 191 C-81.66 191 -82.32 191 -83 191 C-83 189.68 -83 188.36 -83 187 C-83.66 187 -84.32 187 -85 187 C-85 185.68 -85 184.36 -85 183 C-85.66 183 -86.32 183 -87 183 C-87 181.68 -87 180.36 -87 179 C-87.66 179 -88.32 179 -89 179 C-89 177.68 -89 176.36 -89 175 C-89.66 175 -90.32 175 -91 175 C-91 173.02 -91 171.04 -91 169 C-91.66 169 -92.32 169 -93 169 C-93 166.36 -93 163.72 -93 161 C-93.99 161 -94.98 161 -96 161 C-96 139.22 -96 117.44 -96 95 C-95.01 95 -94.02 95 -93 95 C-93 92.36 -93 89.72 -93 87 C-92.34 87 -91.68 87 -91 87 C-91 85.02 -91 83.04 -91 81 C-90.34 81 -89.68 81 -89 81 C-89 79.68 -89 78.36 -89 77 C-88.34 77 -87.68 77 -87 77 C-87 75.68 -87 74.36 -87 73 C-86.34 73 -85.68 73 -85 73 C-85 71.02 -85 69.04 -85 67 C-84.34 67 -83.68 67 -83 67 C-83 66.34 -83 65.68 -83 65 C-82.34 65 -81.68 65 -81 65 C-81 63.68 -81 62.36 -81 61 C-80.34 61 -79.68 61 -79 61 C-79 59.68 -79 58.36 -79 57 C-78.34 57 -77.68 57 -77 57 C-77 56.34 -77 55.68 -77 55 C-76.34 55 -75.68 55 -75 55 C-75 53.68 -75 52.36 -75 51 C-74.34 51 -73.68 51 -73 51 C-73 50.34 -73 49.68 -73 49 C-72.34 49 -71.68 49 -71 49 C-71 48.34 -71 47.68 -71 47 C-70.34 47 -69.68 47 -69 47 C-69 45.68 -69 44.36 -69 43 C-68.34 43 -67.68 43 -67 43 C-67 42.34 -67 41.68 -67 41 C-66.34 41 -65.68 41 -65 41 C-65 40.34 -65 39.68 -65 39 C-64.34 39 -63.68 39 -63 39 C-63 38.34 -63 37.68 -63 37 C-62.34 37 -61.68 37 -61 37 C-61 36.34 -61 35.68 -61 35 C-60.34 35 -59.68 35 -59 35 C-59 34.34 -59 33.68 -59 33 C-58.34 33 -57.68 33 -57 33 C-57 32.34 -57 31.68 -57 31 C-56.34 31 -55.68 31 -55 31 C-55 30.34 -55 29.68 -55 29 C-54.34 29 -53.68 29 -53 29 C-53 28.34 -53 27.68 -53 27 C-51.68 27 -50.36 27 -49 27 C-49 26.34 -49 25.68 -49 25 C-48.34 25 -47.68 25 -47 25 C-47 24.34 -47 23.68 -47 23 C-46.34 23 -45.68 23 -45 23 C-45 22.34 -45 21.68 -45 21 C-43.68 21 -42.36 21 -41 21 C-41 20.34 -41 19.68 -41 19 C-40.34 19 -39.68 19 -39 19 C-39 18.34 -39 17.68 -39 17 C-37.68 17 -36.36 17 -35 17 C-35 16.34 -35 15.68 -35 15 C-33.68 15 -32.36 15 -31 15 C-31 14.34 -31 13.68 -31 13 C-30.34 13 -29.68 13 -29 13 C-29 12.34 -29 11.68 -29 11 C-27.02 11 -25.04 11 -23 11 C-23 10.34 -23 9.68 -23 9 C-21.68 9 -20.36 9 -19 9 C-19 8.34 -19 7.68 -19 7 C-17.68 7 -16.36 7 -15 7 C-15 6.34 -15 5.68 -15 5 C-13.02 5 -11.04 5 -9 5 C-9 4.34 -9 3.68 -9 3 C-6.36 3 -3.72 3 -1 3 C-0.67 2.01 -0.34 1.02 0 0 Z " fill="#0C0C0C" transform="translate(96,0)"/>
<path d="M0 0 C21.12 0 42.24 0 64 0 C64.33 0.99 64.66 1.98 65 3 C66.98 3 68.96 3 71 3 C71 3.66 71 4.32 71 5 C72.98 5 74.96 5 77 5 C77 5.66 77 6.32 77 7 C78.98 7 80.96 7 83 7 C83 7.66 83 8.32 83 9 C84.32 9 85.64 9 87 9 C87 9.66 87 10.32 87 11 C88.32 11 89.64 11 91 11 C91 11.66 91 12.32 91 13 C92.32 13 93.64 13 95 13 C95 13.66 95 14.32 95 15 C96.32 15 97.64 15 99 15 C99 15.66 99 16.32 99 17 C99.66 17 100.32 17 101 17 C101 17.66 101 18.32 101 19 C102.32 19 103.64 19 105 19 C105 19.66 105 20.32 105 21 C105.66 21 106.32 21 107 21 C107 21.66 107 22.32 107 23 C108.32 23 109.64 23 111 23 C111 23.66 111 24.32 111 25 C111.66 25 112.32 25 113 25 C113 25.66 113 26.32 113 27 C113.66 27 114.32 27 115 27 C115 27.66 115 28.32 115 29 C115.66 29 116.32 29 117 29 C117 29.66 117 30.32 117 31 C118.32 31 119.64 31 121 31 C121 31.66 121 32.32 121 33 C121.66 33 122.32 33 123 33 C123 33.66 123 34.32 123 35 C123.66 35 124.32 35 125 35 C125 35.66 125 36.32 125 37 C125.66 37 126.32 37 127 37 C127 37.66 127 38.32 127 39 C127.66 39 128.32 39 129 39 C129 40.32 129 41.64 129 43 C129.66 43 130.32 43 131 43 C131 43.66 131 44.32 131 45 C131.66 45 132.32 45 133 45 C133 45.66 133 46.32 133 47 C133.66 47 134.32 47 135 47 C135 47.66 135 48.32 135 49 C135.66 49 136.32 49 137 49 C137 50.32 137 51.64 137 53 C137.66 53 138.32 53 139 53 C139 53.66 139 54.32 139 55 C139.66 55 140.32 55 141 55 C141 56.32 141 57.64 141 59 C141.66 59 142.32 59 143 59 C143 59.66 143 60.32 143 61 C143.66 61 144.32 61 145 61 C145 62.32 145 63.64 145 65 C145.66 65 146.32 65 147 65 C147 66.32 147 67.64 147 69 C147.66 69 148.32 69 149 69 C149 70.32 149 71.64 149 73 C149.66 73 150.32 73 151 73 C151 74.32 151 75.64 151 77 C151.66 77 152.32 77 153 77 C153 78.98 153 80.96 153 83 C153.66 83 154.32 83 155 83 C155 84.98 155 86.96 155 89 C155.66 89 156.32 89 157 89 C157 90.98 157 92.96 157 95 C157.99 95 158.98 95 160 95 C160 116.78 160 138.56 160 161 C159.01 161 158.02 161 157 161 C157 163.64 157 166.28 157 169 C156.34 169 155.68 169 155 169 C155 170.98 155 172.96 155 175 C154.34 175 153.68 175 153 175 C153 176.32 153 177.64 153 179 C152.34 179 151.68 179 151 179 C151 180.32 151 181.64 151 183 C150.34 183 149.68 183 149 183 C149 184.98 149 186.96 149 189 C148.34 189 147.68 189 147 189 C147 189.66 147 190.32 147 191 C146.34 191 145.68 191 145 191 C145 192.32 145 193.64 145 195 C144.34 195 143.68 195 143 195 C143 196.32 143 197.64 143 199 C142.34 199 141.68 199 141 199 C141 199.66 141 200.32 141 201 C140.34 201 139.68 201 139 201 C139 202.32 139 203.64 139 205 C138.34 205 137.68 205 137 205 C137 205.66 137 206.32 137 207 C136.34 207 135.68 207 135 207 C135 207.66 135 208.32 135 209 C134.34 209 133.68 209 133 209 C133 210.32 133 211.64 133 213 C132.34 213 131.68 213 131 213 C131 213.66 131 214.32 131 215 C130.34 215 129.68 215 129 215 C129 215.66 129 216.32 129 217 C128.34 217 127.68 217 127 217 C127 217.66 127 218.32 127 219 C126.34 219 125.68 219 125 219 C125 219.66 125 220.32 125 221 C124.34 221 123.68 221 123 221 C123 221.66 123 222.32 123 223 C122.34 223 121.68 223 121 223 C121 223.66 121 224.32 121 225 C120.34 225 119.68 225 119 225 C119 225.66 119 226.32 119 227 C118.34 227 117.68 227 117 227 C117 227.66 117 228.32 117 229 C115.68 229 114.36 229 113 229 C113 229.66 113 230.32 113 231 C112.34 231 111.68 231 111 231 C111 231.66 111 232.32 111 233 C110.34 233 109.68 233 109 233 C109 233.66 109 234.32 109 235 C107.68 235 106.36 235 105 235 C105 235.66 105 236.32 105 237 C104.34 237 103.68 237 103 237 C103 237.66 103 238.32 103 239 C101.68 239 100.36 239 99 239 C99 239.66 99 240.32 99 241 C97.68 241 96.36 241 95 241 C95 241.66 95 242.32 95 243 C93.68 243 92.36 243 91 243 C91 243.66 91 244.32 91 245 C89.68 245 88.36 245 87 245 C87 245.66 87 246.32 87 247 C85.68 247 84.36 247 83 247 C83 247.66 83 248.32 83 249 C81.68 249 80.36 249 79 249 C79 249.66 79 250.32 79 251 C77.02 251 75.04 251 73 251 C73 251.66 73 252.32 73 253 C70.36 253 67.72 253 65 253 C64.67 253.99 64.34 254.98 64 256 C42.88 256 21.76 256 0 256 C-0.33 255.01 -0.66 254.02 -1 253 C-3.64 253 -6.28 253 -9 253 C-9 252.34 -9 251.68 -9 251 C-10.98 251 -12.96 251 -15 251 C-15 250.34 -15 249.68 -15 249 C-16.32 249 -17.64 249 -19 249 C-19 248.34 -19 247.68 -19 247 C-20.32 247 -21.64 247 -23 247 C-23 246.34 -23 245.68 -23 245 C-24.32 245 -25.64 245 -27 245 C-27 244.34 -27 243.68 -27 243 C-28.32 243 -29.64 243 -31 243 C-31 242.34 -31 241.68 -31 241 C-32.32 241 -33.64 241 -35 241 C-35 240.34 -35 239.68 -35 239 C-36.32 239 -37.64 239 -39 239 C-39 238.34 -39 237.68 -39 237 C-39.66 237 -40.32 237 -41 237 C-41 236.34 -41 235.68 -41 235 C-42.32 235 -43.64 235 -45 235 C-45 234.34 -45 233.68 -45 233 C-45.66 233 -46.32 233 -47 233 C-47 232.34 -47 231.68 -47 231 C-47.66 231 -48.32 231 -49 231 C-49 230.34 -49 229.68 -49 229 C-50.32 229 -51.64 229 -53 229 C-53 228.34 -53 227.68 -53 227 C-53.66 227 -54.32 227 -55 227 C-55 226.34 -55 225.68 -55 225 C-55.66 225 -56.32 225 -57 225 C-57 224.34 -57 223.68 -57 223 C-57.66 223 -58.32 223 -59 223 C-59 222.34 -59 221.68 -59 221 C-59.66 221 -60.32 221 -61 221 C-61 220.34 -61 219.68 -61 219 C-61.66 219 -62.32 219 -63 219 C-63 218.34 -63 217.68 -63 217 C-63.66 217 -64.32 217 -65 217 C-65 216.34 -65 215.68 -65 215 C-65.66 215 -66.32 215 -67 215 C-67 214.34 -67 213.68 -67 213 C-67.66 213 -68.32 213 -69 213 C-69 211.68 -69 210.36 -69 209 C-69.66 209 -70.32 209 -71 209 C-71 208.34 -71 207.68 -71 207 C-71.66 207 -72.32 207 -73 207 C-73 206.34 -73 205.68 -73 205 C-73.66 205 -74.32 205 -75 205 C-75 203.68 -75 202.36 -75 201 C-75.66 201 -76.32 201 -77 201 C-77 200.34 -77 199.68 -77 199 C-77.66 199 -78.32 199 -79 199 C-79 197.68 -79 196.36 -79 195 C-79.66 195 -80.32 195 -81 195 C-81 193.68 -81 192.36 -81 191 C-81.66 191 -82.32 191 -83 191 C-83 189.68 -83 188.36 -83 187 C-83.66 187 -84.32 187 -85 187 C-85 185.68 -85 184.36 -85 183 C-85.66 183 -86.32 183 -87 183 C-87 181.68 -87 180.36 -87 179 C-87.66 179 -88.32 179 -89 179 C-89 177.68 -89 176.36 -89 175 C-89.66 175 -90.32 175 -91 175 C-91 173.02 -91 171.04 -91 169 C-91.66 169 -92.32 169 -93 169 C-93 166.36 -93 163.72 -93 161 C-93.99 161 -94.98 161 -96 161 C-96 139.22 -96 117.44 -96 95 C-95.01 95 -94.02 95 -93 95 C-93 92.36 -93 89.72 -93 87 C-92.34 87 -91.68 87 -91 87 C-91 85.02 -91 83.04 -91 81 C-90.34 81 -89.68 81 -89 81 C-89 79.68 -89 78.36 -89 77 C-88.34 77 -87.68 77 -87 77 C-87 75.68 -87 74.36 -87 73 C-86.34 73 -85.68 73 -85 73 C-85 71.02 -85 69.04 -85 67 C-84.34 67 -83.68 67 -83 67 C-83 66.34 -83 65.68 -83 65 C-82.34 65 -81.68 65 -81 65 C-81 63.68 -81 62.36 -81 61 C-80.34 61 -79.68 61 -79 61 C-79 59.68 -79 58.36 -79 57 C-78.34 57 -77.68 57 -77 57 C-77 56.34 -77 55.68 -77 55 C-76.34 55 -75.68 55 -75 55 C-75 53.68 -75 52.36 -75 51 C-74.34 51 -73.68 51 -73 51 C-73 50.34 -73 49.68 -73 49 C-72.34 49 -71.68 49 -71 49 C-71 48.34 -71 47.68 -71 47 C-70.34 47 -69.68 47 -69 47 C-69 45.68 -69 44.36 -69 43 C-68.34 43 -67.68 43 -67 43 C-67 42.34 -67 41.68 -67 41 C-66.34 41 -65.68 41 -65 41 C-65 40.34 -65 39.68 -65 39 C-64.34 39 -63.68 39 -63 39 C-63 38.34 -63 37.68 -63 37 C-62.34 37 -61.68 37 -61 37 C-61 36.34 -61 35.68 -61 35 C-60.34 35 -59.68 35 -59 35 C-59 34.34 -59 33.68 -59 33 C-58.34 33 -57.68 33 -57 33 C-57 32.34 -57 31.68 -57 31 C-56.34 31 -55.68 31 -55 31 C-55 30.34 -55 29.68 -55 29 C-54.34 29 -53.68 29 -53 29 C-53 28.34 -53 27.68 -53 27 C-51.68 27 -50.36 27 -49 27 C-49 26.34 -49 25.68 -49 25 C-48.34 25 -47.68 25 -47 25 C-47 24.34 -47 23.68 -47 23 C-46.34 23 -45.68 23 -45 23 C-45 22.34 -45 21.68 -45 21 C-43.68 21 -42.36 21 -41 21 C-41 20.34 -41 19.68 -41 19 C-40.34 19 -39.68 19 -39 19 C-39 18.34 -39 17.68 -39 17 C-37.68 17 -36.36 17 -35 17 C-35 16.34 -35 15.68 -35 15 C-33.68 15 -32.36 15 -31 15 C-31 14.34 -31 13.68 -31 13 C-30.34 13 -29.68 13 -29 13 C-29 12.34 -29 11.68 -29 11 C-27.02 11 -25.04 11 -23 11 C-23 10.34 -23 9.68 -23 9 C-21.68 9 -20.36 9 -19 9 C-19 8.34 -19 7.68 -19 7 C-17.68 7 -16.36 7 -15 7 C-15 6.34 -15 5.68 -15 5 C-13.02 5 -11.04 5 -9 5 C-9 4.34 -9 3.68 -9 3 C-6.36 3 -3.72 3 -1 3 C-0.67 2.01 -0.34 1.02 0 0 Z M-7 32 C-8.15757813 32.27714844 -9.31515625 32.55429687 -10.5078125 32.83984375 C-18.71620661 35.02807658 -25.8669731 38.87913484 -33.25 42.9765625 C-39.60626353 46.45964067 -44.71249247 47.95247059 -52 47 C-54.25544631 46.12667904 -56.23811965 45.11987795 -58.30859375 43.875 C-60.12670573 42.77026064 -60.12670573 42.77026064 -63 43 C-63.6509259 44.24735567 -64.29551669 45.49801832 -64.9375 46.75 C-65.29714844 47.44609375 -65.65679687 48.1421875 -66.02734375 48.859375 C-68.70993528 54.76323105 -69.1571724 61.40952114 -67.1640625 67.59375 C-63.81696253 74.87200765 -58.8582767 81.20865725 -51.5 84.625 C-49 87 -49 87 -48.66796875 90.140625 C-48.68079078 92.5921969 -48.75189944 95.04429188 -48.88671875 97.4921875 C-48.9952804 100.85385518 -48.61648924 103.70749082 -48 107 C-47.77072138 110.85053204 -47.76687237 114.3006171 -49 118 C-49.61995132 125.59440362 -47.65434887 133.8562595 -43 140 C-42.3196167 140.37705078 -41.6392334 140.75410156 -40.93823242 141.14257812 C-38.48653081 143.49206116 -38.49964718 145.23797382 -38.41999817 148.54650879 C-38.42190659 149.28397339 -38.423815 150.02143799 -38.42578125 150.78125 C-38.41161667 151.54997437 -38.39745209 152.31869873 -38.38285828 153.11071777 C-38.34093719 155.57395161 -38.32574743 158.0364601 -38.3125 160.5 C-38.27375331 163.71885767 -38.22544669 166.937544 -38.17578125 170.15625 C-38.16459259 170.93303604 -38.15340393 171.70982208 -38.14187622 172.51014709 C-37.8937314 187.46912081 -36.31593199 200.68028544 -25.33203125 211.828125 C-22.56848353 214.40188134 -19.78291942 216.92763031 -16.88671875 219.3515625 C-15.01178939 220.98969954 -13.371237 222.73078612 -11.6875 224.5625 C-7.45551776 228.85219108 -2.42749298 231.47888558 3 234 C4.09175537 234.51735718 4.09175537 234.51735718 5.20556641 235.04516602 C11.49654101 237.82621065 16.90072811 238.67399837 23.75 238.5625 C25.19234009 238.54606445 25.19234009 238.54606445 26.66381836 238.52929688 C44.67765618 237.98530043 60.10120014 228.11400549 73 216 C81.85534436 206.64743885 81.85534436 206.64743885 86 195 C86.58007812 194.90203125 87.16015625 194.8040625 87.7578125 194.703125 C94.26043322 193.45839892 98.65787347 191.60979813 103.1875 186.5625 C104.93866236 183.12056018 105.57989685 180.50569448 106.3125 176.75 C107.53616108 170.78718745 109.70309373 167.23035282 113.34765625 162.453125 C118.47956444 154.83412183 118.41787134 145.86815841 118 137 C118.639375 136.71125 119.27875 136.4225 119.9375 136.125 C122.15206079 135.17176549 122.15206079 135.17176549 123 133 C123.52522654 129.315911 123.9373944 125.54600121 121.953125 122.2734375 C121.51484375 121.75007813 121.0765625 121.22671875 120.625 120.6875 C114.22689853 112.64002959 115.8225422 100.63524377 116.07299805 90.91772461 C116.21628348 83.35184988 116.02604443 76.42345869 110.625 70.5625 C110.03976563 69.90378906 109.45453125 69.24507812 108.8515625 68.56640625 C106.87026928 66.89024891 105.53666413 66.39670298 103 66 C103.0825 65.01 103.165 64.02 103.25 63 C103.19246605 57.28112525 100.90267659 53.17741652 97.1875 48.92578125 C79.06099698 31.43237301 47.9300328 27.25465951 23.94433594 27.47265625 C13.27540415 27.75811262 3.28759647 29.23791211 -7 32 Z " fill="#003483" transform="translate(96,0)"/>
<path d="M0 0 C-0.16113281 0.97582031 -0.32226562 1.95164062 -0.48828125 2.95703125 C-2.71910831 18.67547822 -1.72357581 35.40937007 7 49 C8.91181976 51.11451872 10.59959161 52.39972774 13 54 C16 56 16 56 16.3984375 57.91796875 C16.34216863 63.36667126 15.48218747 67.13904953 13 72 C17.51135667 69.80528594 19.06273348 67.58826282 21 63 C21.66 63 22.32 63 23 63 C23.66 64.65 24.32 66.3 25 68 C25.24704591 64.45900869 25.31442109 62.51565058 23.4375 59.4375 C22 57 22 57 22.1875 54.25 C23 52 23 52 25 51 C27.69013339 50.81295596 30.29686177 50.91418609 33 51 C34.56662231 52.56662231 34.28356434 54.06961121 34.375 56.25 C34.28062165 65.64738729 30.11890406 74.96326033 24 82 C20.96538646 84.47560578 19.29057015 84.96493119 15.375 85.4375 C12 85 12 85 10.0625 83.125 C9 81 9 81 9 79 C8.34 79 7.68 79 7 79 C6.96261719 79.71542969 6.92523438 80.43085938 6.88671875 81.16796875 C5.59558047 100.7375745 0.59759733 116.05497585 -13.75 129.6875 C-28.50373485 142.47557646 -44.83033288 147.21350549 -64 146 C-73.44336995 144.63665255 -82.70730527 139.12684264 -89 132 C-89 131.34 -89 130.68 -89 130 C-84.28485657 131.82521681 -84.28485657 131.82521681 -82.33203125 133.0234375 C-76.79620944 136.13940906 -71.65093205 136.3738035 -65.4375 136.375 C-64.63425293 136.3764502 -63.83100586 136.37790039 -63.00341797 136.37939453 C-51.87003221 136.17630551 -43.62392677 132.70038081 -35.48046875 125.171875 C-34 124 -34 124 -32 124 C-31.01 122.02 -31.01 122.02 -30 120 C-36.1151409 120.82101429 -40.14678395 122.352364 -44.78515625 126.46484375 C-50.84109784 130.66234824 -57.14245113 131.55684591 -64.375 131.5 C-65.21063477 131.49500488 -66.04626953 131.49000977 -66.90722656 131.48486328 C-76.4916185 131.21417048 -82.76355554 127.68477993 -89.625 121.13671875 C-90.95957139 119.78761189 -90.95957139 119.78761189 -93 120 C-92.67 121.65 -92.34 123.3 -92 125 C-97.93183607 122.96622763 -102.13183386 119.92553954 -105.09538269 114.27468872 C-109.18677387 103.98675671 -109.41860594 93.0960376 -109.29296875 82.1953125 C-109.28735438 80.73559003 -109.28309303 79.2758618 -109.28010559 77.81613159 C-109.26880126 74.02512235 -109.23946379 70.23447316 -109.20599365 66.44360352 C-109.17497656 62.55489977 -109.16153358 58.66613627 -109.14648438 54.77734375 C-109.11457567 47.18473396 -109.06356081 39.59241794 -109 32 C-103.85665241 28.89178995 -100.19565328 26.85181471 -94 28 C-90.82347066 29.02873383 -87.80121535 30.16725735 -85 32 C-84.67 32.99 -84.34 33.98 -84 35 C-85.53720703 35.05607422 -85.53720703 35.05607422 -87.10546875 35.11328125 C-88.46618062 35.17897079 -89.82685611 35.24541709 -91.1875 35.3125 C-91.86103516 35.33505859 -92.53457031 35.35761719 -93.22851562 35.38085938 C-97.60985323 35.61595554 -100.44391376 36.42442686 -104 39 C-103.67 39.99 -103.34 40.98 -103 42 C-101.02 41.34 -99.04 40.68 -97 40 C-96.46375 40.680625 -95.9275 41.36125 -95.375 42.0625 C-93.11533764 44.32264802 -93.11533764 44.32264802 -89.9375 44 C-86.6619554 42.88492099 -85.70872156 41.94279824 -84 39 C-82.35 39.33 -80.7 39.66 -79 40 C-80.3607024 44.08210719 -82.22687686 44.11343843 -86 46 C-86.804375 46.886875 -87.60875 47.77375 -88.4375 48.6875 C-91 51 -91 51 -94.8125 51.3125 C-95.864375 51.209375 -96.91625 51.10625 -98 51 C-96.35 51.66 -94.7 52.32 -93 53 C-93.15855469 53.53882813 -93.31710938 54.07765625 -93.48046875 54.6328125 C-94.81089935 60.69477448 -95.20884973 67.02188225 -91.9375 72.375 C-91.298125 73.24125 -90.65875 74.1075 -90 75 C-90.1659181 79.06499342 -91.48672707 82.26726011 -93 86 C-93 86.99 -93 87.98 -93 89 C-92.75765625 88.44570312 -92.5153125 87.89140625 -92.265625 87.3203125 C-91.76289062 86.23363281 -91.76289062 86.23363281 -91.25 85.125 C-90.76273438 84.04605469 -90.76273438 84.04605469 -90.265625 82.9453125 C-88.73035262 80.58554199 -87.70000499 79.79000146 -85 79 C-83.64783304 79.62758804 -82.31665711 80.30097477 -81 81 C-77.9259478 81.31687088 -77.9259478 81.31687088 -74.625 81.25 C-72.97371094 81.25773437 -72.97371094 81.25773437 -71.2890625 81.265625 C-67.89208912 80.99128511 -65.20493815 80.11245787 -62 79 C-60.68 79 -59.36 79 -58 79 C-58 78.01 -58 77.02 -58 76 C-53.545 75.01 -53.545 75.01 -49 74 C-47.55524697 75.70220378 -46.1195136 77.41206507 -44.6875 79.125 C-43.48673828 80.55199219 -43.48673828 80.55199219 -42.26171875 82.0078125 C-40.07635278 84.89898751 -38.50678822 87.71334866 -37 91 C-38.9192052 82.73827856 -42.58400768 76.18205345 -47 69 C-51.72877171 61.0487494 -51.72877171 61.0487494 -52.9375 56.375 C-54.78560618 50.50454508 -58.11405058 47.01033005 -63.5 44.125 C-66.6884562 43.10013908 -69.67971542 42.40491275 -73 42 C-71.8905928 38.51329166 -70.73662334 35.22515763 -69 32 C-69.33 31.67 -69.66 31.34 -70 31 C-70.23192865 29.48530552 -70.41215238 27.96245438 -70.5625 26.4375 C-70.64628906 25.61121094 -70.73007813 24.78492187 -70.81640625 23.93359375 C-70.87699219 23.29550781 -70.93757813 22.65742187 -71 22 C-71.99 24.31 -72.98 26.62 -74 29 C-78.68565408 28.44502748 -82.13450714 27.09536444 -86.3125 24.9375 C-91.67877647 22.39203704 -96.07690602 20.70161823 -102 22 C-104.87146994 23.36997157 -104.87146994 23.36997157 -107 25 C-107.66 25 -108.32 25 -109 25 C-109.02721176 23.10424749 -109.04649136 21.20838021 -109.0625 19.3125 C-109.07410156 18.25675781 -109.08570312 17.20101562 -109.09765625 16.11328125 C-109.00839469 13.26762256 -108.59407565 10.77303823 -108 8 C-102.37648586 8.1183297 -96.75314552 8.24258395 -91.12988281 8.37231445 C-89.21715854 8.41560857 -87.304397 8.45728756 -85.39160156 8.49731445 C-82.64116182 8.5551508 -79.89090872 8.61880676 -77.140625 8.68359375 C-75.85916595 8.70866249 -75.85916595 8.70866249 -74.55181885 8.73423767 C-73.35102692 8.7641555 -73.35102692 8.7641555 -72.12597656 8.79467773 C-71.42426331 8.81022202 -70.72255005 8.8257663 -69.99957275 8.84178162 C-67.9055539 9.00747315 -66.03006317 9.47483025 -64 10 C-59.52401123 10.23072107 -55.04382238 10.18517687 -50.5625 10.1875 C-48.74975586 10.20586914 -48.74975586 10.20586914 -46.90039062 10.22460938 C-34.89471716 10.24390076 -23.9988442 8.87362178 -12.8125 4.4375 C-11.98169922 4.12103516 -11.15089844 3.80457031 -10.29492188 3.47851562 C-1.21828556 0 -1.21828556 0 0 0 Z " fill="#E98F44" transform="translate(174,85)"/>
<path d="M0 0 C2.93026537 3.13957004 4.55526744 5.60755642 4.9140625 9.95703125 C4.64988478 13.56336436 3.74731506 15.31840877 1.1015625 17.76953125 C-8.76450413 24.99397355 -21.12731166 25.54682519 -32.8984375 24.39453125 C-44.15327222 21.735815 -53.61698437 15.27507982 -62.2734375 7.83203125 C-73.01033069 -1.16914101 -85.05440349 -5.11610935 -98.8984375 -4.60546875 C-97.94324219 -4.38632812 -96.98804688 -4.1671875 -96.00390625 -3.94140625 C-83.39186411 -0.91130413 -74.05106636 4.44743065 -63.73754883 12.20727539 C-52.01930609 20.89102571 -39.5555183 27.03739414 -24.8984375 28.39453125 C-26.33777027 31.27319679 -28.00836376 31.36538608 -31.0234375 32.39453125 C-55.6562843 40.12474547 -81.16363056 38.21163786 -103.89892578 26.47509766 C-112.59403394 21.77612956 -120.32230759 15.69679861 -127.8984375 9.39453125 C-121.08079553 20.75726787 -110.67474819 27.73504213 -98.8984375 33.39453125 C-98.8984375 33.72453125 -98.8984375 34.05453125 -98.8984375 34.39453125 C-114.66529786 35.12347856 -129.92152212 32.91093586 -142.8984375 23.39453125 C-143.9296875 22.65203125 -144.9609375 21.90953125 -146.0234375 21.14453125 C-150.25676281 17.09526356 -152.60875041 13.41380514 -153.17578125 7.50390625 C-153.26272778 0.12311181 -153.26272778 0.12311181 -151.8984375 -2.60546875 C-149.67949618 -2.11237068 -147.81554383 -1.56402192 -145.7734375 -0.54296875 C-138.62293669 1.7887163 -132.14369827 0.63507286 -125.3828125 -2.3359375 C-122.8749699 -3.61746084 -120.52812492 -5.03816641 -118.1484375 -6.54296875 C-86.42702219 -26.17059447 -28.97555022 -24.50401469 0 0 Z " fill="#F4AE2F" transform="translate(187.8984375,53.60546875)"/>
<path d="M0 0 C-0.16113281 0.97582031 -0.32226562 1.95164062 -0.48828125 2.95703125 C-2.71910831 18.67547822 -1.72357581 35.40937007 7 49 C8.91181976 51.11451872 10.59959161 52.39972774 13 54 C16 56 16 56 16.3984375 57.91796875 C16.34216863 63.36667126 15.48218747 67.13904953 13 72 C17.51135667 69.80528594 19.06273348 67.58826282 21 63 C21.66 63 22.32 63 23 63 C23.66 64.65 24.32 66.3 25 68 C25.24704591 64.45900869 25.31442109 62.51565058 23.4375 59.4375 C22 57 22 57 22.1875 54.25 C23 52 23 52 25 51 C27.69013339 50.81295596 30.29686177 50.91418609 33 51 C34.56662231 52.56662231 34.28356434 54.06961121 34.375 56.25 C34.28062165 65.64738729 30.11890406 74.96326033 24 82 C20.96538646 84.47560578 19.29057015 84.96493119 15.375 85.4375 C12 85 12 85 10.0625 83.125 C9 81 9 81 9 79 C8.34 79 7.68 79 7 79 C6.96261719 79.71542969 6.92523438 80.43085938 6.88671875 81.16796875 C5.59558047 100.7375745 0.59759733 116.05497585 -13.75 129.6875 C-28.50373485 142.47557646 -44.83033288 147.21350549 -64 146 C-73.44336995 144.63665255 -82.70730527 139.12684264 -89 132 C-89 131.34 -89 130.68 -89 130 C-84.28485657 131.82521681 -84.28485657 131.82521681 -82.33203125 133.0234375 C-76.79620944 136.13940906 -71.65093205 136.3738035 -65.4375 136.375 C-64.63425293 136.3764502 -63.83100586 136.37790039 -63.00341797 136.37939453 C-51.87003221 136.17630551 -43.62392677 132.70038081 -35.48046875 125.171875 C-34 124 -34 124 -32 124 C-31.01 122.02 -31.01 122.02 -30 120 C-32.64 120.33 -35.28 120.66 -38 121 C-34.93900026 117.48907018 -32.32360344 116.20659941 -27.9375 114.75 C-23.73506539 113.16612498 -23.73506539 113.16612498 -20.5859375 110.1484375 C-19.7849044 108.05280545 -19.32664424 106.22118086 -19 104 C-18.74657837 102.42424194 -18.74657837 102.42424194 -18.48803711 100.81665039 C-18.00744719 97.05824008 -17.87417798 93.4626295 -17.859375 89.67578125 C-17.84107066 88.30401954 -17.8215026 86.93227421 -17.80078125 85.56054688 C-17.7717047 83.42736335 -17.74999609 81.29526078 -17.74951172 79.16186523 C-17.74617858 77.08222668 -17.71168973 75.00499999 -17.671875 72.92578125 C-17.6625293 71.69255127 -17.65318359 70.45932129 -17.64355469 69.1887207 C-17 66 -17 66 -14.54321289 63.67236328 C-13.70395264 63.1204834 -12.86469238 62.56860352 -12 62 C-7.03935013 55.87381062 -7.21886537 48.51505389 -8 41 C-8.45046371 39.27794157 -8.94976702 37.56782204 -9.5 35.875 C-12.04319661 27.86333369 -11.23236822 19.30501219 -11 11 C-11.57403564 11.15146484 -12.14807129 11.30292969 -12.73950195 11.45898438 C-41.4447499 18.75098678 -69.57226718 18.14180084 -98 10 C-98 9.67 -98 9.34 -98 9 C-93.80078534 8.97523149 -89.60160971 8.95710754 -85.40234375 8.94506836 C-83.97460184 8.94004794 -82.54686504 8.93323028 -81.11914062 8.92456055 C-79.06378921 8.91239447 -77.00850593 8.90674872 -74.953125 8.90234375 C-73.09929199 8.89448853 -73.09929199 8.89448853 -71.20800781 8.88647461 C-68.53198245 8.98117414 -66.5498298 9.33844677 -64 10 C-59.52401123 10.23072107 -55.04382238 10.18517687 -50.5625 10.1875 C-48.74975586 10.20586914 -48.74975586 10.20586914 -46.90039062 10.22460938 C-34.89471716 10.24390076 -23.9988442 8.87362178 -12.8125 4.4375 C-11.98169922 4.12103516 -11.15089844 3.80457031 -10.29492188 3.47851562 C-1.21828556 0 -1.21828556 0 0 0 Z " fill="#D96B2C" transform="translate(174,85)"/>
<path d="M0 0 C3.84493405 1.53797362 5.68490024 4.36980047 7.5 8 C7.58426094 9.6674606 7.60725143 11.33825187 7.59765625 13.0078125 C7.59443359 13.99394531 7.59121094 14.98007813 7.58789062 15.99609375 C7.57951172 17.02863281 7.57113281 18.06117187 7.5625 19.125 C7.55798828 20.16527344 7.55347656 21.20554687 7.54882812 22.27734375 C7.53701952 24.85161962 7.52055075 27.42578146 7.5 30 C6.84 30 6.18 30 5.5 30 C4.85089846 28.41800369 4.20585306 26.83434276 3.5625 25.25 C3.20285156 24.36828125 2.84320313 23.4865625 2.47265625 22.578125 C1.64643424 20.38813896 1.00630057 18.28101729 0.5 16 C-0.05648358 24.53274828 2.20557121 32.21651311 7.5 39 C8.0775 39.5775 8.655 40.155 9.25 40.75 C10.5 42 10.5 42 10.5 44 C1.77849352 41.81962338 -4.11469792 35.89481858 -9.5 29 C-9.5 33.90748437 -7.27504868 37.96930572 -4.0625 41.64453125 C0.1538791 45.48589586 4.98159976 48.0374591 10.046875 50.60546875 C12.32394429 51.89991737 13.90048819 52.93662977 15.5 55 C15.5 55.99 15.5 56.98 15.5 58 C7.47613274 57.59200675 0.87635358 55.08963187 -6.5 52 C-5.84 52.763125 -5.18 53.52625 -4.5 54.3125 C-2.5 57 -2.5 57 -2.5 60 C-5.125 60.9375 -5.125 60.9375 -8.5 61 C-14.50210082 56.40846484 -17.28032093 49.23386493 -18.5 42 C-18.73607639 38.41879269 -18.73086253 34.83827516 -18.75 31.25 C-18.770625 30.29867187 -18.79125 29.34734375 -18.8125 28.3671875 C-18.85282655 21.00759227 -18.25558611 14.27828476 -13.37890625 8.4765625 C-12.61449219 7.86554688 -11.85007813 7.25453125 -11.0625 6.625 C-10.30066406 5.99851562 -9.53882813 5.37203125 -8.75390625 4.7265625 C-8.01011719 4.15679687 -7.26632813 3.58703125 -6.5 3 C-5.79746094 2.43023437 -5.09492188 1.86046875 -4.37109375 1.2734375 C-2.5 0 -2.5 0 0 0 Z " fill="#E08629" transform="translate(197.5,72)"/>
<path d="M0 0 C7.74775275 -0.47130247 14.37296329 3.03577203 20.30859375 7.88671875 C21.60382462 9.09105622 22.89332421 10.30160035 24.17578125 11.51953125 C26.9563704 13.77615499 29.51528559 14.34661605 33 15 C33 15.66 33 16.32 33 17 C36.65079826 18.61064629 40.0507432 19.44894091 44 20 C43.50371094 19.5875 43.00742188 19.175 42.49609375 18.75 C36.2210502 13.41561763 30.88967238 7.62234907 26 1 C33.71489236 1.87103623 37.00069741 4.51341503 42.4921875 9.8671875 C46.11994932 12.95248026 49.41220559 13.89004974 54 15 C54 14.34 54 13.68 54 13 C53.44828125 12.74476562 52.8965625 12.48953125 52.328125 12.2265625 C49.63362942 10.80697926 47.23221272 9.13867746 44.75 7.375 C43.85796875 6.74335937 42.9659375 6.11171875 42.046875 5.4609375 C41.37140625 4.97882812 40.6959375 4.49671875 40 4 C42 3 42 3 45.484375 4.07421875 C46.90928323 4.60388969 48.33105835 5.14204663 49.75 5.6875 C50.45382813 5.94466797 51.15765625 6.20183594 51.8828125 6.46679688 C58.42136494 8.94002257 64.15162365 11.95255146 68 18 C68.87183397 20.66008432 69.44013219 23.2473166 70 26 C61.42698178 33.39961629 53.75332193 35.23477275 42.625 35.3125 C41.44671631 35.32095947 41.44671631 35.32095947 40.24462891 35.32958984 C36.37734056 35.2804682 33.27221095 35.19605601 30 33 C30 32.34 30 31.68 30 31 C32.31 30.67 34.62 30.34 37 30 C37 29.01 37 28.02 37 27 C36.43659912 26.72607422 35.87319824 26.45214844 35.29272461 26.16992188 C29.28875553 23.07191161 25.1073538 19.44432766 20.5625 14.5 C15.15858057 8.84111457 10.36585786 4.87268457 3 2 C2.01 1.34 1.02 0.68 0 0 Z " fill="#DF8629" transform="translate(121,43)"/>
<path d="M0 0 C4.8403289 2.37229307 7.72146993 6.54069995 9.77734375 11.37109375 C10.70696235 17.15538724 9.11667768 21.67355979 5.77734375 26.37109375 C0.51750595 30.55749526 -3.91149749 31.84893505 -10.515625 31.78125 C-15.3091307 31.05496126 -18.70313307 28.60103591 -22.22265625 25.37109375 C-25.22674922 21.27460334 -25.762092 17.51255929 -25.5703125 12.54296875 C-25.00957827 9.03995493 -23.51683437 7.02751053 -21.22265625 4.37109375 C-20.41828125 3.42234375 -19.61390625 2.47359375 -18.78515625 1.49609375 C-13.71689659 -2.4990395 -5.88666889 -1.66564796 0 0 Z " fill="#F7040E" transform="translate(108.22265625,131.62890625)"/>
<path d="M0 0 C1.41898766 2.64877696 2.31911019 5.08014819 3 8 C9.20730193 6.17088909 15.32360315 4.36733615 21.25 1.75 C27.21869743 -0.7014293 32.25119187 -1.03728609 38.3125 1.25 C40.97901994 2.98633857 43.02917224 4.49856477 45 7 C45 8.32 45 9.64 45 11 C44.236875 10.690625 43.47375 10.38125 42.6875 10.0625 C34.34979424 6.76619772 27.2037829 7.67579057 19 11 C18.34 11.66 17.68 12.32 17 13 C17.94101563 13.02578125 18.88203125 13.0515625 19.8515625 13.078125 C32.52772809 13.65550728 32.52772809 13.65550728 37 18 C37.495 19.485 37.495 19.485 38 21 C36.783125 20.7525 35.56625 20.505 34.3125 20.25 C30.82644258 19.78969312 30.31898483 19.77003419 27.3125 21.9375 C26.549375 22.618125 25.78625 23.29875 25 24 C22.375 24.4375 22.375 24.4375 20 24 C18.1875 22.625 18.1875 22.625 17 21 C17 20.34 17 19.68 17 19 C12.54448076 20.21514161 10.04256413 21.52278385 7 25 C6.34 25.66 5.68 26.32 5 27 C4.85714286 19.57142857 4.85714286 19.57142857 6 16 C5.401875 15.773125 4.80375 15.54625 4.1875 15.3125 C1.29284118 13.57570471 0.36964285 12.0816964 -1 9 C-1.41791045 2.8358209 -1.41791045 2.8358209 0 0 Z " fill="#0F0E0C" transform="translate(113,106)"/>
<path d="M0 0 C0.33 0 0.66 0 1 0 C1.09796875 0.76183594 1.1959375 1.52367188 1.296875 2.30859375 C2.68497715 11.89367844 4.89945883 20.03625503 12 27 C14.27216134 28.60810365 16.65661991 29.90654065 19.125 31.1875 C27.09553779 35.42133036 27.09553779 35.42133036 29 38 C29 38.99 29 39.98 29 41 C20.97613274 40.59200675 14.37635358 38.08963187 7 35 C7.66 35.763125 8.32 36.52625 9 37.3125 C11 40 11 40 11 43 C8.375 43.9375 8.375 43.9375 5 44 C-0.98755532 39.41959197 -3.80878862 32.22740063 -5 25 C-5.07747197 23.23447202 -5.10799073 21.46641544 -5.09765625 19.69921875 C-5.09443359 18.72275391 -5.09121094 17.74628906 -5.08789062 16.74023438 C-5.07951172 15.73283203 -5.07113281 14.72542969 -5.0625 13.6875 C-5.05798828 12.66076172 -5.05347656 11.63402344 -5.04882812 10.57617188 C-5.03708184 8.05072118 -5.02065565 5.52539095 -5 3 C-4.34 2.67 -3.68 2.34 -3 2 C-2.67 2.99 -2.34 3.98 -2 5 C-1.34 3.35 -0.68 1.7 0 0 Z " fill="#E08629" transform="translate(184,89)"/>
<path d="M0 0 C0.99 1.485 0.99 1.485 2 3 C12.51885249 16.74622769 26.51741064 22.71644233 43.23828125 25.12890625 C47.53882474 26.12477458 50.2928986 27.6548867 54 30 C54 30.33 54 30.66 54 31 C38.23313964 31.72894731 22.97691538 29.51640461 10 20 C8.96875 19.2575 7.9375 18.515 6.875 17.75 C3.08275362 14.1226339 0.38046442 10.25235715 -0.2421875 4.9296875 C-0.25 3 -0.25 3 0 0 Z " fill="#F4B947" transform="translate(35,57)"/>
<path d="M0 0 C0.99 0 1.98 0 3 0 C3.86912578 8.81399451 4.18631472 17.56458463 4.28125 26.41796875 C4.29935703 27.76931917 4.31796272 29.12066299 4.33703613 30.47200012 C4.40594427 35.4281416 4.46607048 40.38438111 4.52606201 45.34063721 C4.57735721 49.55318095 4.63225746 53.76564827 4.69187927 57.97808266 C4.71807848 59.93042788 4.73905185 61.88284103 4.7598877 63.83525085 C4.84976206 70.29659514 5.14707286 76.59311868 6 83 C1.03200497 79.03992131 0.77746886 71.95516255 0 66 C-0.3559221 60.72347492 -0.35386232 55.4786536 -0.29296875 50.1953125 C-0.28735438 48.73559003 -0.28309303 47.2758618 -0.28010559 45.81613159 C-0.26880126 42.02512235 -0.23946379 38.23447316 -0.20599365 34.44360352 C-0.17497656 30.55489977 -0.16153358 26.66613627 -0.14648438 22.77734375 C-0.11457567 15.18473396 -0.06356081 7.59241794 0 0 Z " fill="#F9BA70" transform="translate(65,117)"/>
<path d="M0 0 C0.33 0 0.66 0 1 0 C1.8595081 8.54903592 2.09096515 16.96484287 1.96289062 25.55004883 C1.95451172 26.32888428 1.94613281 27.10771973 1.9375 27.91015625 C1.92009766 28.94861694 1.92009766 28.94861694 1.90234375 30.00805664 C2.00583545 32.11902865 2.42304765 33.97129697 3 36 C3.66 36 4.32 36 5 36 C6.2890625 37.53125 6.2890625 37.53125 7.625 39.5 C8.07101563 40.1496875 8.51703125 40.799375 8.9765625 41.46875 C9.31429687 41.9740625 9.65203125 42.479375 10 43 C7.525 43.495 7.525 43.495 5 44 C-1.82421628 36.73408688 -5.1569805 29.84366474 -5.09765625 19.69921875 C-5.09443359 18.72275391 -5.09121094 17.74628906 -5.08789062 16.74023438 C-5.07951172 15.73283203 -5.07113281 14.72542969 -5.0625 13.6875 C-5.05798828 12.66076172 -5.05347656 11.63402344 -5.04882812 10.57617188 C-5.03708184 8.05072118 -5.02065565 5.52539095 -5 3 C-4.34 2.67 -3.68 2.34 -3 2 C-2.67 2.99 -2.34 3.98 -2 5 C-1.34 3.35 -0.68 1.7 0 0 Z " fill="#F3BA4C" transform="translate(184,89)"/>
<path d="M0 0 C0.92441895 0.01216553 1.84883789 0.02433105 2.80126953 0.03686523 C12.75787597 0.40785925 19.84917569 3.62365665 27 10.5625 C27.93337979 11.58921777 28.8573793 12.62515565 29.75 13.6875 C29.42 14.3475 29.09 15.0075 28.75 15.6875 C28.20472656 15.28917969 27.65945312 14.89085937 27.09765625 14.48046875 C26.34355469 13.95066406 25.58945313 13.42085937 24.8125 12.875 C24.08160156 12.35292969 23.35070312 11.83085937 22.59765625 11.29296875 C14.83643466 6.91730061 7.43585943 6.14141775 -1.375 6.125 C-2.94314453 6.06989258 -2.94314453 6.06989258 -4.54296875 6.01367188 C-9.71444456 5.98425134 -13.26304418 6.10771542 -17.3046875 9.53515625 C-18.31231391 10.56117 -19.2956543 11.61174934 -20.25 12.6875 C-21.24616571 13.69131964 -22.24507146 14.69245295 -23.25 15.6875 C-22.66201824 10.54265956 -20.63841036 7.61520903 -16.62231445 4.3737793 C-11.10479778 0.56792971 -6.62642871 -0.14384346 0 0 Z " fill="#0B0C0C" transform="translate(106.25,174.3125)"/>
<path d="M0 0 C6.83972494 1.23183106 12.1405514 3.31608122 18.1875 6.6875 C19.85233319 7.58822247 21.51770256 8.48795457 23.18359375 9.38671875 C23.99683105 9.82935059 24.81006836 10.27198242 25.64794922 10.72802734 C28.9904083 12.5356059 32.35993664 14.28367219 35.75 16 C37.32007812 16.804375 37.32007812 16.804375 38.921875 17.625 C44.16217606 19.96584514 49.22623871 21.20194361 54.9375 21.625 C55.89527344 21.69976562 56.85304687 21.77453125 57.83984375 21.8515625 C58.55269531 21.90054688 59.26554687 21.94953125 60 22 C59.67 22.66 59.34 23.32 59 24 C42.14051707 25.07613721 29.9968904 20.34234252 16 11 C14.71831242 10.18149327 13.43438102 9.36649141 12.1484375 8.5546875 C2.35593107 2.35593107 2.35593107 2.35593107 0 0 Z " fill="#12110D" transform="translate(73,60)"/>
<path d="M0 0 C8.19834392 -0.44740225 15.04159773 3.23713633 21.09375 8.63671875 C22.62201495 10.05932406 24.12780598 11.50270723 25.63037109 12.95239258 C34.31709106 21.26397176 44.09196897 25.93678294 56 27 C56 27.33 56 27.66 56 28 C45.40360689 28.72614877 36.85516045 28.67803183 28 22 C24.6868391 18.93096675 21.55999026 15.686125 18.4519043 12.41113281 C13.75865231 7.52727646 9.33593677 4.47101534 3 2 C2.01 1.34 1.02 0.68 0 0 Z " fill="#110F0C" transform="translate(121,43)"/>
<path d="M0 0 C0.33 0 0.66 0 1 0 C1.49193238 5.90318852 0.46793669 10.12155695 -3 15 C-8.26008889 19.18660136 -12.68615652 20.47215258 -19.2890625 20.4140625 C-23.96786167 19.69943323 -27.66905594 17.30940778 -31 14 C-32.25 11.29296875 -32.25 11.29296875 -33 9 C-30.71014398 10.14492801 -28.50704887 11.29806347 -26.3125 12.625 C-21.0007624 14.82987221 -16.73389068 15.09596499 -11.33984375 12.93359375 C-5.18982288 9.60950294 -2.46928288 6.50992758 0 0 Z " fill="#C10411" transform="translate(117,143)"/>
<path d="M0 0 C2.475 0.495 2.475 0.495 5 1 C5 14.86 5 28.72 5 43 C4.34 43 3.68 43 3 43 C0.28976095 37.5763959 -0.41702642 33.46108799 -0.29296875 27.44140625 C-0.28872391 26.65225327 -0.28447906 25.86310028 -0.28010559 25.05003357 C-0.26344452 22.55382739 -0.22581779 20.05845808 -0.1875 17.5625 C-0.17243683 15.86003778 -0.15875129 14.15756279 -0.14648438 12.45507812 C-0.1135825 8.3030678 -0.06188951 4.1516753 0 0 Z " fill="#AD842D" transform="translate(54,91)"/>
<path d="M0 0 C0.83265381 0.04713135 1.66530762 0.0942627 2.52319336 0.14282227 C3.871875 0.21533203 3.871875 0.21533203 5.24780273 0.28930664 C6.19333008 0.34538086 7.13885742 0.40145508 8.11303711 0.45922852 C9.53712891 0.53753906 9.53712891 0.53753906 10.98999023 0.61743164 C13.34380663 0.74754209 15.6972441 0.88251963 18.05053711 1.02172852 C18.05053711 2.01172852 18.05053711 3.00172852 18.05053711 4.02172852 C19.12780921 5.67675946 19.12780921 5.67675946 20.55053711 7.20922852 C21.37553711 8.13735352 22.20053711 9.06547852 23.05053711 10.02172852 C22.72053711 10.68172852 22.39053711 11.34172852 22.05053711 12.02172852 C21.16366211 11.54735352 20.27678711 11.07297852 19.36303711 10.58422852 C14.09022337 8.09705222 8.87608892 7.33771069 3.05053711 8.02172852 C-0.2504742 9.42097796 -0.2504742 9.42097796 -2.94946289 11.02172852 C-3.60946289 11.02172852 -4.26946289 11.02172852 -4.94946289 11.02172852 C-3.79772934 8.55372805 -2.90162724 6.97389286 -0.94946289 5.02172852 C-1.60946289 3.70172852 -2.26946289 2.38172852 -2.94946289 1.02172852 C-1.94946289 0.02172852 -1.94946289 0.02172852 0 0 Z " fill="#14100D" transform="translate(98.949462890625,183.978271484375)"/>
<path d="M0 0 C4.29 0.66 8.58 1.32 13 2 C11.56066723 4.87866554 9.89007374 4.97085483 6.875 6 C-1.76220022 8.77217923 -10.91525949 10.20686316 -20 10 C-15.21003071 5.52936199 -8.81855877 2.14849951 -2.1875 1.890625 C-1.465625 1.92671875 -0.74375 1.9628125 0 2 C0 1.34 0 0.68 0 0 Z " fill="#E28829" transform="translate(150,80)"/>
<path d="M0 0 C6.71637991 2.09886872 11.86758394 6.92876301 16.9375 11.625 C20.88503849 15.16444306 25.06147204 17.15948379 30 19 C30 19.33 30 19.66 30 20 C24.84849872 20.57004317 20.42278974 20.85024759 16.0625 17.75 C10.50905172 13.01591294 3.2798297 6.5596594 0 0 Z " fill="#16120D" transform="translate(147,44)"/>
<path d="M0 0 C4.22797927 2.73056995 4.22797927 2.73056995 6 5 C6.52268615 8.06437568 6.36208453 10.92228147 6 14 C6.33 14 6.66 14 7 14 C7 15.98 7 17.96 7 20 C6.34 19.2575 5.68 18.515 5 17.75 C1.82479426 14.53819246 -1.91316847 12.81524279 -6 11 C-5.34 10.67 -4.68 10.34 -4 10 C-4.0825 9.0925 -4.165 8.185 -4.25 7.25 C-4 4 -4 4 -2 1.625 C-1.34 1.08875 -0.68 0.5525 0 0 Z " fill="#D86C2D" transform="translate(113,117)"/>
<path d="M0 0 C0.33 0 0.66 0 1 0 C1.9767249 10.02887177 2.10849626 19.93395765 2 30 C1.34 30 0.68 30 0 30 C-2.89596317 21.24315898 -5.2498688 11.60683298 -1.5 2.75 C-1.005 1.8425 -0.51 0.935 0 0 Z " fill="#F7AC30" transform="translate(184,89)"/>
<path d="M0 0 C-1.03960396 6.23762376 -1.03960396 6.23762376 -3 9 C-8.81443299 13 -8.81443299 13 -11 13 C-11.17461992 8.54719212 -11.30238787 4.91405938 -9 1 C-6.09879049 -0.3005422 -3.14412969 -0.08733694 0 0 Z " fill="#D0682B" transform="translate(196,175)"/>
<path d="M0 0 C0.33 0 0.66 0 1 0 C1.01030746 0.75675522 1.02061493 1.51351044 1.03123474 2.29319763 C1.12958924 9.45722648 1.23215416 16.62117727 1.33933926 23.785079 C1.39428625 27.46728715 1.44765785 31.14950352 1.49731445 34.83178711 C1.54537842 38.39152804 1.59773038 41.95118338 1.65294075 45.51082039 C1.68296099 47.51632218 1.70864602 49.52188737 1.73423767 51.52745056 C1.83972563 58.08887595 2.13149288 64.49392355 3 71 C-0.28844111 68.01872097 -1.09711354 65.36395123 -2 61 C-1.68952531 59.32892419 -1.35376936 57.66244884 -1 56 C-0.88972802 54.09921483 -0.82475946 52.19549153 -0.79467773 50.29174805 C-0.77473251 49.17096359 -0.75478729 48.05017914 -0.73423767 46.89543152 C-0.70916893 45.0967437 -0.70916893 45.0967437 -0.68359375 43.26171875 C-0.66281265 42.02581497 -0.64203156 40.78991119 -0.62062073 39.51655579 C-0.56640069 36.24347874 -0.51612422 32.9703726 -0.46777344 29.69720459 C-0.4173843 26.3521174 -0.36171184 23.00712276 -0.30664062 19.66210938 C-0.19964057 13.10814229 -0.09784108 6.55410987 0 0 Z " fill="#F1A65D" transform="translate(68,129)"/>
<path d="M0 0 C0 0.33 0 0.66 0 1 C-3.07617188 1.29296875 -3.07617188 1.29296875 -6.15234375 1.5859375 C-6.76207031 1.72257813 -7.37179688 1.85921875 -8 2 C-8.33 2.66 -8.66 3.32 -9 4 C-3.06 4 2.88 4 9 4 C9 4.33 9 4.66 9 5 C8.3702124 4.99887207 7.7404248 4.99774414 7.09155273 4.99658203 C4.20581205 5.00877493 1.32265923 5.06652939 -1.5625 5.125 C-2.55314453 5.12242187 -3.54378906 5.11984375 -4.56445312 5.1171875 C-10.67451399 5.27958114 -14.20722255 6.03330095 -18.57788086 10.42529297 C-19.04718018 10.94494629 -19.51647949 11.46459961 -20 12 C-20.99703556 13.00295568 -21.99618449 14.00383012 -23 15 C-22.40307773 9.77693014 -20.29177274 6.93186386 -16.30859375 3.57421875 C-10.94567983 -0.27191144 -6.4718877 -0.59679292 0 0 Z " fill="#322316" transform="translate(106,175)"/>
<path d="M0 0 C6.45364939 -0.55848889 12.31348803 0.30190327 18.5625 1.8125 C19.63467773 2.0604834 19.63467773 2.0604834 20.72851562 2.31347656 C22.75390625 2.83203125 22.75390625 2.83203125 26 4 C26.33 4.99 26.66 5.98 27 7 C20.36897568 6.57455817 14.18044629 5.43269594 7.76171875 3.71875 C5.18585094 3.04836856 2.61449308 2.49527738 0 2 C0 1.34 0 0.68 0 0 Z " fill="#F1B53F" transform="translate(137,37)"/>
<path d="M0 0 C5.65923484 1.24503167 8.8337564 2.9353721 13 7 C13 7.66 13 8.32 13 9 C11.865625 9.12375 10.73125 9.2475 9.5625 9.375 C7.7990625 9.684375 7.7990625 9.684375 6 10 C5.67 10.66 5.34 11.32 5 12 C4.566875 11.2575 4.13375 10.515 3.6875 9.75 C2.1018859 7.0240513 2.1018859 7.0240513 0.25 4.875 C-0.36875 3.946875 -0.36875 3.946875 -1 3 C-0.67 2.01 -0.34 1.02 0 0 Z " fill="#D76D2D" transform="translate(117,185)"/>
<path d="M0 0 C3.97330881 1.18125397 7.63497114 2.73662061 11.375 4.5 C15.89282351 6.59513293 20.13144569 7.98954533 25 9 C24.34 10.32 23.68 11.64 23 13 C14.63532539 10.53173536 7.25755564 6.83837043 0 2 C0 1.34 0 0.68 0 0 Z " fill="#EFB644" transform="translate(76,73)"/>
<path d="M0 0 C0.33 0 0.66 0 1 0 C1.33 8.25 1.66 16.5 2 25 C-1.38438918 21.61561082 -1.87082356 20.26058777 -2.1328125 15.67578125 C-2.13023438 14.89589844 -2.12765625 14.11601563 -2.125 13.3125 C-2.12757812 12.52488281 -2.13015625 11.73726562 -2.1328125 10.92578125 C-2 9 -2 9 -1 8 C-0.76924918 6.65252916 -0.58846937 5.29622435 -0.4375 3.9375 C-0.293125 2.638125 -0.14875 1.33875 0 0 Z " fill="#F4B942" transform="translate(56,109)"/>
<path d="M0 0 C0.66 0 1.32 0 2 0 C2 4.62 2 9.24 2 14 C0.02 14.99 0.02 14.99 -2 16 C-2.05423638 14.08364783 -2.09289963 12.16685075 -2.125 10.25 C-2.14820312 9.18265625 -2.17140625 8.1153125 -2.1953125 7.015625 C-2.00487687 4.07529894 -1.52670104 2.47638122 0 0 Z " fill="#E5AE68" transform="translate(67,94)"/>
<path d="M0 0 C0.68191406 0.20882812 1.36382812 0.41765625 2.06640625 0.6328125 C6.43424244 1.76974515 10.94731018 1.93634703 15.4375 2.25 C15.1075 2.91 14.7775 3.57 14.4375 4.25 C12.08301325 4.30454409 9.72982125 4.3439279 7.375 4.375 C6.06402344 4.39820312 4.75304687 4.42140625 3.40234375 4.4453125 C-0.68074299 4.24417522 -3.71249053 3.52165462 -7.5625 2.25 C-4.8619665 -0.67557796 -3.97928784 -0.83774481 0 0 Z " fill="#342912" transform="translate(117.5625,79.75)"/>
<path d="M0 0 C2.475 0.495 2.475 0.495 5 1 C4.71935082 3.31386295 4.42518311 5.62609008 4.125 7.9375 C3.96257813 9.22527344 3.80015625 10.51304688 3.6328125 11.83984375 C3.42398438 12.88269531 3.21515625 13.92554687 3 15 C2.01 15.495 2.01 15.495 1 16 C-0.50156874 12.99686252 -0.09281204 10.20932478 -0.0625 6.875 C-0.05347656 5.59367187 -0.04445312 4.31234375 -0.03515625 2.9921875 C-0.02355469 2.00476563 -0.01195312 1.01734375 0 0 Z " fill="#E2AE46" transform="translate(54,91)"/>
<path d="M0 0 C3.41659491 -0.05816623 6.83306205 -0.09365195 10.25 -0.125 C11.21808594 -0.14175781 12.18617187 -0.15851563 13.18359375 -0.17578125 C14.11816406 -0.18222656 15.05273438 -0.18867187 16.015625 -0.1953125 C16.87446289 -0.20578613 17.73330078 -0.21625977 18.61816406 -0.22705078 C21.17903596 0.01706677 22.79511029 0.71009488 25 2 C25 2.33 25 2.66 25 3 C16.41922945 3.24911914 8.41826913 2.69882188 0 1 C0 0.67 0 0.34 0 0 Z " fill="#CE9A2E" transform="translate(64,85)"/>
<path d="M0 0 C4.41510774 0.48713098 6.30446645 1.85053197 9.3125 5.0625 C10.00988281 5.79597656 10.70726562 6.52945313 11.42578125 7.28515625 C11.94527344 7.85105469 12.46476563 8.41695312 13 9 C12.67 9.66 12.34 10.32 12 11 C11.40832031 10.59007812 10.81664062 10.18015625 10.20703125 9.7578125 C9.41683594 9.21898437 8.62664062 8.68015625 7.8125 8.125 C7.03519531 7.59132812 6.25789062 7.05765625 5.45703125 6.5078125 C3.0323391 5.01984561 0.6666501 3.97571922 -2 3 C-1.34 2.67 -0.68 2.34 0 2 C0 1.34 0 0.68 0 0 Z " fill="#18130F" transform="translate(123,179)"/>
<path d="M0 0 C2.125 0.375 2.125 0.375 4 1 C4.38218767 2.65614657 4.71395102 4.32457024 5 6 C4 7 4 7 1.4375 7.0625 C0.2309375 7.0315625 0.2309375 7.0315625 -1 7 C-1.625 4.625 -1.625 4.625 -2 2 C-1.34 1.34 -0.68 0.68 0 0 Z " fill="#FE6D68" transform="translate(104,139)"/>
<path d="M0 0 C4.99783437 -0.36020428 7.98018872 0.65610065 12.375 3 C13.43460938 3.556875 14.49421875 4.11375 15.5859375 4.6875 C16.38257813 5.120625 17.17921875 5.55375 18 6 C17.01 6.99 16.02 7.98 15 9 C14.12988281 8.38511719 14.12988281 8.38511719 13.2421875 7.7578125 C8.93915465 4.78971393 5.1313811 2.31573874 0 1 C0 0.67 0 0.34 0 0 Z " fill="#231D0F" transform="translate(121,43)"/>
<path d="M0 0 C-0.99 0.33 -1.98 0.66 -3 1 C-3 1.66 -3 2.32 -3 3 C-8.28 2.34 -13.56 1.68 -19 1 C-12.99271477 -2.00364261 -6.48664859 -1.72977296 0 0 Z " fill="#342911" transform="translate(104,49)"/>
<path d="M0 0 C1.32 0.66 2.64 1.32 4 2 C3.66226563 2.50789062 3.32453125 3.01578125 2.9765625 3.5390625 C0.34589186 7.59911488 -1.70414665 11.287806 -3 16 C-3.33 16 -3.66 16 -4 16 C-3.6083965 10.04492601 -2.62875405 5.37180176 0 0 Z " fill="#332314" transform="translate(84,161)"/>
<path d="M0 0 C-1.28913487 0.67154933 -2.58140204 1.33708859 -3.875 2 C-4.59429687 2.37125 -5.31359375 2.7425 -6.0546875 3.125 C-8 4 -8 4 -10 4 C-10 4.66 -10 5.32 -10 6 C-12.64 6.33 -15.28 6.66 -18 7 C-13.4766479 2.7782047 -6.24643632 -2.08214544 0 0 Z " fill="#E9972B" transform="translate(148,83)"/>
<path d="M0 0 C0.33 0 0.66 0 1 0 C1.07476562 0.58007812 1.14953125 1.16015625 1.2265625 1.7578125 C2.28969996 8.07409974 4.12464216 10.86654444 9 15 C8.67 15.99 8.34 16.98 8 18 C6.29115995 16.37660195 4.62553283 14.70680947 3 13 C3 12.34 3 11.68 3 11 C2.34 11 1.68 11 1 11 C-0.62950412 6.87831311 -1.26264601 4.29299643 0 0 Z " fill="#E4962B" transform="translate(186,114)"/>
<path d="M0 0 C0.721875 0.268125 1.44375 0.53625 2.1875 0.8125 C1.8575 1.8025 1.5275 2.7925 1.1875 3.8125 C-2.375 5.5 -2.375 5.5 -5.8125 6.8125 C-6.4725 6.1525 -7.1325 5.4925 -7.8125 4.8125 C-3.50480769 -0.23365385 -3.50480769 -0.23365385 0 0 Z " fill="#D48440" transform="translate(92.8125,124.1875)"/>
<path d="M0 0 C3.34373475 0.55728913 6.03312999 1.35173889 9 3 C8.67 3.66 8.34 4.32 8 5 C2.46153846 5.36923077 2.46153846 5.36923077 0.125 3.5 C-0.24625 3.005 -0.6175 2.51 -1 2 C-0.67 1.34 -0.34 0.68 0 0 Z " fill="#0D0D0C" transform="translate(105,76)"/>
<path d="M0 0 C0.99 0 1.98 0 3 0 C3 2.31 3 4.62 3 7 C2.67 7 2.34 7 2 7 C1.67 10.63 1.34 14.26 1 18 C0.67 18 0.34 18 0 18 C0 12.06 0 6.12 0 0 Z " fill="#E3A861" transform="translate(65,117)"/>
<path d="M0 0 C1.32 0.33 2.64 0.66 4 1 C1 4 -2 7 -5 10 C-4.49701212 5.59885603 -2.91227269 3.28804981 0 0 Z " fill="#261B12" transform="translate(88,180)"/>
<path d="M0 0 C-0.66 0 -1.32 0 -2 0 C-1.67 0.99 -1.34 1.98 -1 3 C-1.9075 3.144375 -2.815 3.28875 -3.75 3.4375 C-6.21476956 3.86409473 -8.58847107 4.35074221 -11 5 C-10.67 4.01 -10.34 3.02 -10 2 C-7.9375 1.3125 -7.9375 1.3125 -6 1 C-6.66 0.34 -7.32 -0.32 -8 -1 C-3.375 -2.25 -3.375 -2.25 0 0 Z " fill="#ED9D2C" transform="translate(160,71)"/>
<path d="M0 0 C2.31 0 4.62 0 7 0 C7 0.33 7 0.66 7 1 C9.97 1.33 12.94 1.66 16 2 C16 2.33 16 2.66 16 3 C10.39 3 4.78 3 -1 3 C-0.67 2.01 -0.34 1.02 0 0 Z " fill="#010308" transform="translate(98,176)"/>
<path d="M0 0 C2.3129482 2.3129482 2.49580975 3.47904875 3.125 6.625 C3.29257813 7.44226563 3.46015625 8.25953125 3.6328125 9.1015625 C3.81457031 10.04128906 3.81457031 10.04128906 4 11 C3.34 11 2.68 11 2 11 C1.67 11.99 1.34 12.98 1 14 C-0.20568053 9.32798795 -0.09382426 4.78503708 0 0 Z " fill="#3F2813" transform="translate(197,86)"/>
<path d="M0 0 C0.33 0 0.66 0 1 0 C1.66 4.62 2.32 9.24 3 14 C-0.24838604 10.75161396 -0.4233799 10.18387284 -0.75 5.875 C-0.82734375 4.98554688 -0.9046875 4.09609375 -0.984375 3.1796875 C-0.99210937 2.10074219 -0.99210937 2.10074219 -1 1 C-0.67 0.67 -0.34 0.34 0 0 Z " fill="#F3B46B" transform="translate(68,186)"/>
<path d="M0 0 C0.66 0 1.32 0 2 0 C2 2.97 2 5.94 2 9 C1.01 9.33 0.02 9.66 -1 10 C-1.02689216 8.52093108 -1.04634621 7.04172517 -1.0625 5.5625 C-1.07410156 4.73878906 -1.08570312 3.91507812 -1.09765625 3.06640625 C-1 1 -1 1 0 0 Z " fill="#FABA6E" transform="translate(67,94)"/>
<path d="M0 0 C2.91488977 2.6234008 4.88503898 5.71816394 7 9 C6.01 9 5.02 9 4 9 C3.67 9.66 3.34 10.32 3 11 C2.49384702 9.73160474 1.99530901 8.46016898 1.5 7.1875 C1.2215625 6.47980469 0.943125 5.77210937 0.65625 5.04296875 C0 3 0 3 0 0 Z " fill="#1E150E" transform="translate(186,98)"/>
<path d="M0 0 C1.45903258 0.30921884 2.91720722 0.62248799 4.375 0.9375 C5.18710938 1.11152344 5.99921875 1.28554688 6.8359375 1.46484375 C9 2 9 2 11 3 C10.67 4.32 10.34 5.64 10 7 C8.33073546 6.02526874 6.66464358 5.04510211 5 4.0625 C4.071875 3.51722656 3.14375 2.97195312 2.1875 2.41015625 C1.465625 1.94480469 0.74375 1.47945312 0 1 C0 0.67 0 0.34 0 0 Z " fill="#2A2110" transform="translate(73,60)"/>
<path d="M0 0 C3.99500618 1.3697164 6.80009492 3.25722422 10 6 C9.01 6.66 8.02 7.32 7 8 C5.83035398 6.8572081 4.66435444 5.71068285 3.5 4.5625 C2.8503125 3.92441406 2.200625 3.28632812 1.53125 2.62890625 C0 1 0 1 0 0 Z " fill="#251D0F" transform="translate(147,44)"/>
<path d="M0 0 C3.45925163 1.2491742 6.14693203 2.67527795 9 5 C7.02 5.99 7.02 5.99 5 7 C3.29115995 5.37660195 1.62553283 3.70680947 0 2 C0 1.34 0 0.68 0 0 Z " fill="#C26229" transform="translate(85,215)"/>
<path d="M0 0 C0 0.66 0 1.32 0 2 C2.31 2.33 4.62 2.66 7 3 C7 3.33 7 3.66 7 4 C3.37 4 -0.26 4 -4 4 C-4 3.01 -4 2.02 -4 1 C-2 0 -2 0 0 0 Z " fill="#BE7639" transform="translate(134,116)"/>
<path d="M0 0 C-2.6855594 2.6855594 -5.37621328 3.06049974 -9 4 C-9 3.34 -9 2.68 -9 2 C-10.65 2 -12.3 2 -14 2 C-14 1.67 -14 1.34 -14 1 C-12.04310963 0.63794536 -10.08442332 0.28558579 -8.125 -0.0625 C-7.03445312 -0.25972656 -5.94390625 -0.45695313 -4.8203125 -0.66015625 C-2 -1 -2 -1 0 0 Z " fill="#C57022" transform="translate(111,166)"/>
<path d="M0 0 C1.65 0 3.3 0 5 0 C5.33 0.99 5.66 1.98 6 3 C6.66 3 7.32 3 8 3 C7.67 3.99 7.34 4.98 7 6 C1.125 2.25 1.125 2.25 0 0 Z " fill="#E58F2B" transform="translate(148,57)"/>
<path d="M0 0 C0.66 0 1.32 0 2 0 C4 2 4 2 4.125 5.125 C4.08375 6.07375 4.0425 7.0225 4 8 C2.35 6.35 0.7 4.7 -1 3 C-0.67 2.01 -0.34 1.02 0 0 Z " fill="#C4652B" transform="translate(116,129)"/>
</svg>
