/* XPM */
static char *_fa503d4406c8d557cfe56803ebd1f97[] = {
/* columns rows colors chars-per-pixel */
"50 50 167 2 ",
"   c None",
".  c #7E5537",
"X  c #71513F",
"o  c #72513F",
"O  c #74523D",
"+  c #76533C",
"@  c #78533B",
"#  c #7A533A",
"$  c #7B5439",
"%  c #7D5438",
"&  c #7F663D",
"*  c #1F3A6D",
"=  c #1D3A6E",
"-  c #0E3576",
";  c #0D3677",
":  c #0F3676",
">  c #03337B",
",  c #06337B",
"<  c #07347A",
"1  c #07347B",
"2  c #03337C",
"3  c #05327C",
"4  c #04337C",
"5  c #05337C",
"6  c #04327D",
"7  c #04337D",
"8  c #05337D",
"9  c #06337C",
"0  c #04347C",
"q  c #05347C",
"w  c #04347D",
"e  c #0C3578",
"r  c #0D3578",
"t  c #0C3579",
"y  c #103675",
"u  c #113675",
"i  c #103676",
"p  c #163872",
"a  c #193970",
"s  c #1C3B72",
"d  c #1D3E70",
"f  c #2A3E66",
"g  c #2D3F65",
"h  c #253C69",
"j  c #203B6C",
"k  c #213C6C",
"l  c #3D435B",
"z  c #3E435B",
"x  c #3A425D",
"c  c #3B425D",
"v  c #3A435D",
"b  c #2C4266",
"n  c #334062",
"m  c #344061",
"M  c #364060",
"N  c #394A62",
"B  c #344369",
"V  c #53494F",
"C  c #574A4E",
"Z  c #5F4D48",
"A  c #5E4C49",
"S  c #594B4C",
"D  c #5C594F",
"F  c #464657",
"G  c #4F4751",
"H  c #4C4753",
"J  c #424559",
"K  c #404D5E",
"L  c #4E4B5F",
"P  c #504851",
"I  c #514951",
"U  c #524C5E",
"Y  c #4E5055",
"T  c #47505A",
"R  c #654E45",
"E  c #664E44",
"W  c #674F44",
"Q  c #6B4F42",
"!  c #604C48",
"~  c #6E5041",
"^  c #745C42",
"/  c #745E42",
"(  c #6A5454",
")  c #756343",
"_  c #706146",
"`  c #7B6440",
"'  c #444763",
"]  c #8B592F",
"[  c #8E592E",
"{  c #925B2B",
"}  c #945B2B",
"|  c #955C2B",
" . c #965D2B",
".. c #965F2B",
"X. c #90592D",
"o. c #915A2C",
"O. c #935A2C",
"+. c #945B2F",
"@. c #975D2C",
"#. c #985D2C",
"$. c #995E2D",
"%. c #9B5F2E",
"&. c #9C5F2E",
"*. c #855733",
"=. c #875732",
"-. c #835734",
";. c #825635",
":. c #815636",
">. c #855734",
",. c #875832",
"<. c #8B5830",
"1. c #8A5931",
"2. c #97602B",
"3. c #9A652B",
"4. c #9D602E",
"5. c #9A642C",
"6. c #9A672C",
"7. c #9C692B",
"8. c #9F6F2B",
"9. c #9B682C",
"0. c #9E6D2C",
"q. c #83653A",
"w. c #85673A",
"e. c #84683B",
"r. c #826A3D",
"t. c #806A3E",
"y. c #856C3C",
"u. c #896E3A",
"i. c #8F7038",
"p. c #937335",
"a. c #907136",
"s. c #917136",
"d. c #907137",
"f. c #A0712B",
"g. c #A1732B",
"h. c #A0702C",
"j. c #A0712C",
"k. c #A0722C",
"l. c #A2742C",
"z. c #A2752C",
"x. c #A3752C",
"c. c #A3762C",
"v. c #A0762E",
"b. c #A4782C",
"n. c #A4782D",
"m. c #A57A2C",
"M. c #A06130",
"N. c #A06230",
"B. c #A16331",
"V. c #A26331",
"C. c #A36331",
"Z. c #A36332",
"A. c #A46431",
"S. c #A46432",
"D. c #A56432",
"F. c #A56533",
"G. c #A66533",
"H. c #A96734",
"J. c #AA6634",
"K. c #AD6935",
"L. c #AE6936",
"P. c #AF6A36",
"I. c #A86739",
"U. c #B06A37",
"Y. c #B16B37",
"T. c #B26B39",
"R. c #B36C38",
/* pixels */
"                    4 4 4 4 4 4 4 4 4 4 4 4 4 4 4 4 4 4 4 4 4 4 4 4 4 4 4 4 4 4 2                   ",
"                2 4 4 4 4 4 4 4 4 4 4 4 4 4 4 4 4 4 4 4 4 4 4 4 4 4 4 4 4 4 4 4 4 4 >               ",
"            > 4 4 4 4 4 4 4 4 4 4 4 4 4 4 4 4 4 4 4 4 4 4 4 4 4 4 4 4 4 4 4 4 4 4 4 4 4             ",
"        q 4 4 4 4 4 4 4 4 4 4 4 4 4 4 4 4 4 4 4 4 4 4 4 4 4 4 4 4 4 4 4 4 4 4 4 4 4 4 4 4 4         ",
"      q 4 4 4 4 4 4 4 4 4 4 4 4 4 4 4 4 4 4 4 4 4 4 4 4 4 4 4 4 4 4 4 4 4 4 4 4 4 4 4 4 4 4 4       ",
"      4 4 4 4 4 4 4 4 4 4 4 4 4 4 4 4 4 4 4 4 4 4 4 4 4 4 4 4 4 4 4 4 4 4 4 4 4 4 4 4 4 4 4 4       ",
"    4 4 4 4 4 4 4 4 4 4 4 4 4 4 d K D ) r.u.s.s.s.s.s.s.y.y.r.N 4 4 4 4 4 4 4 4 4 4 4 4 4 4 4 >     ",
"  2 4 4 4 4 4 4 4 4 4 4 t Y e.l.m.m.m.m.m.m.m.m.m.m.m.m.m.m.m.i.1 4 4 4 4 4 4 4 4 4 4 4 4 4 4 4     ",
"  4 4 4 4 4 4 4 4 4 b q.m.m.m.m.m.m.m.m.m.m.m.m.m.m.m.m.m.m.m.m./ c j 1 4 4 4 4 4 4 4 4 4 4 4 4 2   ",
"2 4 4 4 4 4 4 4 4 / m.m.m.m.m.m.m.m.m.m.m.m.m.m.m.m.m.m.m.m.m.m.l. .} O.@ m 4 4 4 4 4 4 4 4 4 4 4   ",
"4 4 4 4 4 4 4 4 4 w.m.m.m.m.m.m.m.m.m.m.m.m.m.m.m.m.m.m.m.m.m.m.m.5.} } } V 4 4 4 4 4 4 4 4 4 4 4 4 ",
"4 4 4 4 4 4 4 4 4 & m.m.m.m.m.m.m.m.m.m.m.m.m.m.m.m.m.m.m.m.m.m.m.l. .} } S 4 4 4 4 4 4 4 4 4 4 4 4 ",
"4 4 4 4 4 4 4 4 4 ` m.m.m.m.m.m.m.m.m.m.m.m.m.m.m.m.m.m.m.m.m.m.m.l.2.} } Z 4 4 4 4 4 4 4 4 4 4 4 4 ",
"4 4 4 4 4 4 4 4 4 ) m.m.m.m.m.m.m.m.m.m.m.m.m.m.m.m.m.m.m.m.m.k.5.} } } } E 4 4 4 4 4 4 4 4 4 4 4 4 ",
"4 4 4 4 4 4 4 4 4 _ m.m.m.m.m.m.m.m.m.m.m.m.m.m.m.m.m.m.k.9. .} } } } } } Q 4 4 4 4 4 4 4 4 4 4 4 4 ",
"4 4 4 4 4 4 4 4 4 T 8.8.f.f.f.l.l.l.l.l.l.k.k.0.7.3. .} } } } } } } } } } X 4 4 4 4 4 4 4 4 4 4 4 4 ",
"4 4 4 4 4 4 4 4 4 4 ] } } } } } } } } } } } } } } } } } } } } } } } } } } @ 4 4 4 4 4 4 4 4 4 4 4 4 ",
"4 4 4 4 4 4 4 4 4 4 % } } } } } } } } } } } } } } } } } } } } } } } } } } . 4 4 4 4 4 4 4 4 4 4 4 4 ",
"4 4 4 4 4 4 4 4 4 4 ~ } } } } } } } } } } } } } } } } } } } } } } } } } } ;.4 4 4 4 4 4 4 4 4 4 4 4 ",
"4 4 4 4 4 4 4 4 4 4 Z } } } } } } } } } } } } } } } } } } } } } } } } } } <.4 4 4 4 4 4 4 4 4 4 4 4 ",
"4 4 4 4 4 4 4 4 4 4 I } } } } } } } } } } } } } } } } } } } } } } } } } } O.4 4 4 4 4 4 4 4 4 4 4 4 ",
"4 4 4 4 4 4 4 4 4 4 J } } } } } } } } } } } } } } } } } } } } } } } } } } } , 4 4 4 4 4 4 4 4 4 4 4 ",
"4 4 4 4 4 4 4 4 4 4 m } } } } } } } } } } } } } } } } } } } } } } } } } } } t 4 4 4 4 4 4 4 4 4 4 4 ",
"4 4 4 4 4 4 4 4 4 4 h } } } } } } } } } } } } } } } } } } } } } } } } } } } : 4 4 4 4 4 4 4 4 4 4 4 ",
"4 4 4 4 4 4 4 4 4 4 p } } } } } } } } } } } } } } } } } } } } } } } } } } } : 4 4 4 4 4 4 4 4 4 4 4 ",
"4 4 4 4 4 4 4 4 4 4 1 { } } } $.} } } } } } } } } R.R.R.R.R.R.&.} } } } } } u 4 4 4 4 4 4 4 4 4 4 4 ",
"4 4 4 4 4 4 4 4 4 4 4 *.} } } V.$.} } } } } } } } R.R.R.R.R.R.&.} } } } } } u 4 4 4 4 4 4 4 4 4 4 4 ",
"4 4 4 4 4 4 4 4 4 4 4 + } } } V.V.} } } } } } } } R.R.R.R.R.R.&.} } } } } } : 4 4 4 4 4 4 4 4 4 4 4 ",
"4 4 4 4 4 4 4 4 4 4 4 E } } } V.K.} } } } } } } } R.R.R.R.R.R.&.} } } } } O.4 4 4 4 4 4 4 4 4 4 4 4 ",
"4 4 4 4 4 4 4 4 4 4 4 C } } } V.R.$.} } } } } } } R.R.R.R.R.R.&.} } } } } <.4 4 4 4 4 4 4 4 4 4 4 4 ",
"4 4 4 4 4 4 4 4 4 4 4 F } } } D.R.V.} } } } } } } R.R.R.R.R.R.&.} } } } } ;.4 4 4 4 4 4 4 4 4 4 4 4 ",
"4 4 4 4 4 4 4 4 4 4 4 n } } } D.R.K.} } } } } } } R.R.R.R.R.R.&.} } } } } E 4 4 4 4 4 4 4 4 4 4 4 4 ",
"4 4 4 4 4 4 4 4 4 4 4 * } } } D.R.R.$.} } } } } } R.R.R.R.R.R.&.} } } } } G 4 4 4 4 4 4 4 4 4 4 4 4 ",
"4 4 4 4 4 4 4 4 4 4 4 t } } } D.R.R.V.} } } } } } R.R.R.R.R.R.&.} } } } } f 4 4 4 4 4 4 4 4 4 4 4 4 ",
"4 4 4 4 4 4 4 4 4 4 4 4 *.} } D.R.R.K.D.D.D.D.D.D.R.R.R.R.R.R.&.} } } } >.4 4 4 4 4 4 4 4 4 4 4 4 4 ",
"4 4 4 4 4 4 4 4 4 4 4 4 + } } V.R.R.R.R.R.R.R.R.R.R.R.R.R.R.R.&.} } } } I 4 4 4 4 4 4 4 4 4 4 4 4 4 ",
"4 4 4 4 4 4 4 4 4 4 4 4 ! } } V.R.R.R.R.R.R.R.R.R.R.R.R.R.R.R.&.} } } [ u 4 4 4 4 4 4 4 4 4 4 4 4 4 ",
"4 4 4 4 4 4 4 4 4 4 4 4 c } } V.R.R.R.R.R.R.R.R.R.R.R.R.R.R.R.&.} } } G 4 4 4 4 4 4 4 4 4 4 4 4 4 4 ",
"4 4 4 4 4 4 4 4 4 4 4 4 4 F } 4.R.R.R.R.R.R.R.R.R.R.R.R.R.R.R.&.} } ,.: 4 4 4 4 4 4 4 4 4 4 4 4 4 4 ",
"4 4 4 4 4 4 4 4 4 4 4 4 4 4 z +.R.R.R.R.R.R.R.R.R.R.R.R.R.R.R.&.} } c 4 4 4 4 4 4 4 4 4 4 4 4 4 4 4 ",
"  4 4 4 4 4 4 4 4 4 4 4 4 4 4 k I.R.R.R.R.R.R.R.R.R.R.R.R.R.K.$.} X 4 4 4 4 4 4 4 4 4 4 4 4 4 4 4 > ",
"  4 4 4 4 4 4 4 4 4 4 4 4 4 4 4 B T.R.R.R.R.R.R.R.R.Y.H.V.@.} ;.c , 4 4 4 4 4 4 4 4 4 4 4 4 4 4 4   ",
"    4 4 4 4 4 4 4 4 4 4 4 4 4 4 4 L R.R.R.R.Y.H.V.$. .} } $ z 1 4 4 4 4 4 4 4 4 4 4 4 4 4 4 4 4 2   ",
"    2 4 4 4 4 4 4 4 4 4 4 4 4 4 4 4 U ( ' s : * g c z m a 4 4 4 4 4 4 4 4 4 4 4 4 4 4 4 4 4 4 4     ",
"      4 4 4 4 4 4 4 4 4 4 4 4 4 4 4 4 4 4 4 4 4 4 4 4 4 4 4 4 4 4 4 4 4 4 4 4 4 4 4 4 4 4 4 4       ",
"      4 4 4 4 4 4 4 4 4 4 4 4 4 4 4 4 4 4 4 4 4 4 4 4 4 4 4 4 4 4 4 4 4 4 4 4 4 4 4 4 4 4 4 q       ",
"        4 4 4 4 4 4 4 4 4 4 4 4 4 4 4 4 4 4 4 4 4 4 4 4 4 4 4 4 4 4 4 4 4 4 4 4 4 4 4 4 4 4         ",
"            4 4 4 4 4 4 4 4 4 4 4 4 4 4 4 4 4 4 4 4 4 4 4 4 4 4 4 4 4 4 4 4 4 4 4 4 4 4             ",
"              > 4 4 4 4 4 4 4 4 4 4 4 4 4 4 4 4 4 4 4 4 4 4 4 4 4 4 4 4 4 4 4 4 4 >                 ",
"                  2 4 4 4 4 4 4 4 4 4 4 4 4 4 4 4 4 4 4 4 4 4 4 4 4 4 4 4 4 4 4                     "
};
