<?xml version="1.0" encoding="UTF-8"?>
<svg version="1.1" xmlns="http://www.w3.org/2000/svg" width="32" height="32">
<path d="M0 0 C3.92061103 2.19278684 6.97809862 4.95619724 9 9 C10.34009135 20.6039728 10.34009135 20.6039728 7.5078125 25.66796875 C4.31531972 29.30423128 1.94759708 31.77508065 -2.9765625 32.34375 C-14.03729021 32.81744284 -14.03729021 32.81744284 -18.8125 28.625 C-23.61624433 23.64713274 -23.50615879 19.37124985 -23.4921875 12.57421875 C-22.75174943 7.19722801 -20.18398445 4.28471177 -16 1 C-11.26503433 -1.36748284 -5.10642777 -0.70318022 0 0 Z " fill="#043178" transform="translate(23,0)"/>
<path d="M0 0 C2.5625 1.375 2.5625 1.375 4 3 C4 3.66 4 4.32 4 5 C4.66 5 5.32 5 6 5 C6.33 8.63 6.66 12.26 7 16 C5.35 16.33 3.7 16.66 2 17 C1.87625 18.1446875 1.87625 18.1446875 1.75 19.3125 C1 22 1 22 -0.8125 23.875 C-3 25 -3 25 -5 24.8125 C-10.76470588 22.47058824 -10.76470588 22.47058824 -12 20 C-12.04022391 17.6670134 -12.04320247 15.33293334 -12 13 C-12.66 13 -13.32 13 -14 13 C-14.33 9.7 -14.66 6.4 -15 3 C-9.99755954 -0.0784249 -5.74240803 -0.82812715 0 0 Z " fill="#462F17" transform="translate(20,4)"/>
<path d="M0 0 C4.29 0 8.58 0 13 0 C13.99 1.98 14.98 3.96 16 6 C16.66 5.67 17.32 5.34 18 5 C17.67 6.32 17.34 7.64 17 9 C16.01 9 15.02 9 14 9 C13.9175 9.763125 13.835 10.52625 13.75 11.3125 C13 14 13 14 11.1875 15.875 C9 17 9 17 7 16.8125 C1.23529412 14.47058824 1.23529412 14.47058824 0 12 C-0.06950541 10.45976004 -0.08452357 8.91665012 -0.0625 7.375 C-0.05347656 6.55773437 -0.04445313 5.74046875 -0.03515625 4.8984375 C-0.02355469 4.27195312 -0.01195312 3.64546875 0 3 C0.99 3.495 0.99 3.495 2 4 C2 5.65 2 7.3 2 9 C3.98 8.67 5.96 8.34 8 8 C7.67 6.68 7.34 5.36 7 4 C7.66 3.67 8.32 3.34 9 3 C8.01 2.67 7.02 2.34 6 2 C5.67 2.66 5.34 3.32 5 4 C5 3.34 5 2.68 5 2 C3.35 1.67 1.7 1.34 0 1 C0 0.67 0 0.34 0 0 Z " fill="#E48941" transform="translate(8,12)"/>
<path d="M0 0 C2.5625 1.375 2.5625 1.375 4 3 C4 3.66 4 4.32 4 5 C0.07142246 6.85131483 -2.98775112 7.22004943 -7.3125 7.125 C-8.38113281 7.10695313 -9.44976562 7.08890625 -10.55078125 7.0703125 C-11.35902344 7.04710937 -12.16726562 7.02390625 -13 7 C-13.66 5.68 -14.32 4.36 -15 3 C-9.99755954 -0.0784249 -5.74240803 -0.82812715 0 0 Z " fill="#A06C20" transform="translate(20,4)"/>
<path d="M0 0 C0.99 0.99 1.98 1.98 3 3 C3.66 2.67 4.32 2.34 5 2 C4.67 3.32 4.34 4.64 4 6 C3.01 6 2.02 6 1 6 C0.9175 6.763125 0.835 7.52625 0.75 8.3125 C0 11 0 11 -1.8125 12.875 C-4 14 -4 14 -6.25 13.6875 C-6.8275 13.460625 -7.405 13.23375 -8 13 C-7.01 13 -6.02 13 -5 13 C-4.67 12.01 -4.34 11.02 -4 10 C-3.34 9.67 -2.68 9.34 -2 9 C-1.31270746 6.88153715 -1.31270746 6.88153715 -0.875 4.4375 C-0.70742188 3.61121094 -0.53984375 2.78492188 -0.3671875 1.93359375 C-0.24601562 1.29550781 -0.12484375 0.65742188 0 0 Z " fill="#D26729" transform="translate(21,15)"/>
<path d="M0 0 C0.33 3.63 0.66 7.26 1 11 C-2.53647504 9.32482761 -3.7911563 8.50719183 -5.3125 4.8125 C-5.539375 3.884375 -5.76625 2.95625 -6 2 C-2.25 0 -2.25 0 0 0 Z " fill="#7F4F1F" transform="translate(26,9)"/>
<path d="M0 0 C1.4540625 0.0309375 1.4540625 0.0309375 2.9375 0.0625 C3.2675 0.7225 3.5975 1.3825 3.9375 2.0625 C2.9475 2.0625 1.9575 2.0625 0.9375 2.0625 C1.2675 3.3825 1.5975 4.7025 1.9375 6.0625 C-0.0425 6.3925 -2.0225 6.7225 -4.0625 7.0625 C-4.10504356 5.06295254 -4.10330783 3.06208364 -4.0625 1.0625 C-3.0625 0.0625 -3.0625 0.0625 0 0 Z " fill="#801D15" transform="translate(14.0625,13.9375)"/>
<path d="M0 0 C0.89203125 0.01804687 1.7840625 0.03609375 2.703125 0.0546875 C3.71632813 0.08949219 3.71632813 0.08949219 4.75 0.125 C4.75 1.115 4.75 2.105 4.75 3.125 C3.41666667 3.125 2.08333333 3.125 0.75 3.125 C-0.24 3.455 -1.23 3.785 -2.25 4.125 C-4.24673484 4.47736497 -6.24650739 4.81334559 -8.25 5.125 C-8.58 4.135 -8.91 3.145 -9.25 2.125 C-6.03817851 0.21891902 -3.71117397 -0.09766247 0 0 Z " fill="#E6AB2E" transform="translate(14.25,4.875)"/>
<path d="M0 0 C0.99 0.495 0.99 0.495 2 1 C2 2.65 2 4.3 2 6 C2.66 6.33 3.32 6.66 4 7 C4 8.32 4 9.64 4 11 C3.01 11 2.02 11 1 11 C-0.20272819 8.59454362 -0.10071472 7.05003047 -0.0625 4.375 C-0.05347656 3.55773437 -0.04445313 2.74046875 -0.03515625 1.8984375 C-0.02355469 1.27195312 -0.01195312 0.64546875 0 0 Z " fill="#D98A44" transform="translate(8,15)"/>
<path d="M0 0 C1.875 0.25 1.875 0.25 4 1 C4.66 2.32 5.32 3.64 6 5 C2.37 5 -1.26 5 -5 5 C-4.34 4.01 -3.68 3.02 -3 2 C-0.375 1.8125 -0.375 1.8125 2 2 C1.34 1.34 0.68 0.68 0 0 Z " fill="#A97F26" transform="translate(12,6)"/>
<path d="M0 0 C0.598125 0.20625 1.19625 0.4125 1.8125 0.625 C1.1525 1.945 0.4925 3.265 -0.1875 4.625 C-1.5075 4.625 -2.8275 4.625 -4.1875 4.625 C-4.5175 3.635 -4.8475 2.645 -5.1875 1.625 C-2.1875 -0.375 -2.1875 -0.375 0 0 Z " fill="#AA6933" transform="translate(16.1875,20.375)"/>
<path d="M0 0 C1.45823212 -0.0270043 2.91660675 -0.04639787 4.375 -0.0625 C5.18710938 -0.07410156 5.99921875 -0.08570313 6.8359375 -0.09765625 C9 0 9 0 11 1 C10.67 1.99 10.34 2.98 10 4 C8.68 3.34 7.36 2.68 6 2 C5.67 2.66 5.34 3.32 5 4 C5 3.34 5 2.68 5 2 C3.35 1.67 1.7 1.34 0 1 C0 0.67 0 0.34 0 0 Z " fill="#C57639" transform="translate(8,12)"/>
<path d="M0 0 C3.46941546 0.45822468 6.67395049 0.89131683 10 2 C10 2.66 10 3.32 10 4 C6.6875 4.25 6.6875 4.25 3 4 C1.0625 2 1.0625 2 0 0 Z " fill="#2E2327" transform="translate(9,26)"/>
<path d="M0 0 C-0.625 1.9375 -0.625 1.9375 -2 4 C-5.125 4.75 -5.125 4.75 -8 5 C-7.01 4.67 -6.02 4.34 -5 4 C-4.67 3.01 -4.34 2.02 -4 1 C-2 0 -2 0 0 0 Z " fill="#C56227" transform="translate(21,24)"/>
<path d="M0 0 C2.475 0.495 2.475 0.495 5 1 C4.67 1.99 4.34 2.98 4 4 C1.9375 4.6875 1.9375 4.6875 0 5 C0 3.35 0 1.7 0 0 Z " fill="#583F21" transform="translate(6,12)"/>
</svg>
