/* XPM */
static char *bcc8a579209f45148b3839566394a223xWk2y91lCzHDgXvH[] = {
/* columns rows colors chars-per-pixel */
"32 32 206 2 ",
"   c None",
".  c #110F0B",
"X  c #19110E",
"o  c #060D16",
"O  c #0D121B",
"+  c #13151B",
"@  c #14191C",
"#  c #181912",
"$  c #22150C",
"%  c #2C160C",
"&  c #3A1E0F",
"*  c #241812",
"=  c #391C10",
"-  c #3D240B",
";  c #3A2D0F",
":  c #2F2614",
">  c #27251A",
",  c #332214",
"<  c #3C2415",
"1  c #322B1B",
"2  c #382A15",
"3  c #04132A",
"4  c #0D1C2E",
"5  c #141A27",
"6  c #021431",
"7  c #0A1B33",
"8  c #021738",
"9  c #1F2120",
"0  c #342F23",
"q  c #5F1D16",
"w  c #46030D",
"e  c #7A1713",
"r  c #76060C",
"t  c #42210C",
"y  c #492C0D",
"u  c #5B2C0E",
"i  c #59390D",
"p  c #482814",
"a  c #5D2E19",
"s  c #562C13",
"d  c #4C3D1D",
"f  c #49331B",
"g  c #5B391E",
"h  c #523316",
"j  c #4C360B",
"k  c #612D0E",
"l  c #633218",
"z  c #693219",
"x  c #6B3918",
"c  c #6A2A18",
"v  c #663D20",
"b  c #5E4316",
"n  c #55431A",
"m  c #5D481B",
"M  c #694D1D",
"N  c #694A17",
"B  c #7F411E",
"V  c #6E541D",
"C  c #72551F",
"Z  c #775A1B",
"A  c #7C5D1C",
"S  c #795516",
"D  c #5C4F23",
"F  c #644223",
"G  c #684823",
"H  c #754927",
"J  c #784926",
"K  c #7D512A",
"L  c #775925",
"P  c #684D30",
"I  c #6D5A24",
"U  c #001642",
"Y  c #001A44",
"T  c #001748",
"R  c #011E4D",
"E  c #001B54",
"W  c #001E59",
"Q  c #00225B",
"!  c #022254",
"~  c #002463",
"^  c #00276D",
"/  c #002671",
"(  c #002D76",
")  c #002D7B",
"_  c #01327E",
"`  c #840E0D",
"'  c #9E000A",
"]  c #821C15",
"[  c #A4050E",
"{  c #873F1D",
"}  c #CE000B",
"|  c #D7000B",
" . c #FB000C",
".. c #FC0E16",
"X. c #FF151C",
"o. c #FF1C22",
"O. c #FF282F",
"+. c #884819",
"@. c #90481F",
"#. c #8D541C",
"$. c #995C1C",
"%. c #AE531D",
"&. c #8E671C",
"*. c #91651F",
"=. c #956A19",
"-. c #84532B",
";. c #89592D",
":. c #915B2E",
">. c #A65526",
",. c #BD5B23",
"<. c #BE5F28",
"1. c #8D6A20",
"2. c #876829",
"3. c #8D7129",
"4. c #9B7526",
"5. c #9F6632",
"6. c #AC6922",
"7. c #BE632E",
"8. c #A57C24",
"9. c #B77524",
"0. c #A96B35",
"q. c #A56835",
"w. c #B17236",
"e. c #BF7639",
"r. c #BD783A",
"t. c #B97638",
"y. c #B66F36",
"u. c #C15F24",
"i. c #C3632C",
"p. c #CB6428",
"a. c #DC6B2B",
"s. c #D56929",
"d. c #CB7826",
"f. c #C17523",
"g. c #CE6E33",
"h. c #C57A3C",
"j. c #CA7D3D",
"k. c #DC7C39",
"l. c #D97332",
"z. c #E06F2D",
"x. c #E5702D",
"c. c #EA732E",
"v. c #E37A36",
"b. c #FA7B31",
"n. c #A67241",
"m. c #B87F48",
"M. c #AA8229",
"N. c #BC8D27",
"B. c #B38627",
"V. c #BB952F",
"C. c #BB9432",
"Z. c #C48E22",
"A. c #D38B29",
"S. c #C49429",
"D. c #CC9529",
"F. c #D1972A",
"G. c #D39B2B",
"H. c #D89626",
"J. c #C2803E",
"K. c #D1813E",
"L. c #E09124",
"P. c #FF9C2F",
"I. c #F3902C",
"U. c #E7843C",
"Y. c #E9843D",
"T. c #F6873C",
"R. c #E28729",
"E. c #CEA02E",
"W. c #D9A32D",
"Q. c #D7A02B",
"!. c #D0A333",
"~. c #EDAE2F",
"^. c #E1A42C",
"/. c #F4AD2F",
"(. c #F4B02E",
"). c #E4A736",
"_. c #FEA832",
"`. c #FDB531",
"'. c #FFBB31",
"]. c #F6B830",
"[. c #FFC233",
"{. c #FFC83B",
"}. c #CC8643",
"|. c #C38A4F",
" X c #D58741",
".X c #D98641",
"XX c #D78D48",
"oX c #D4914C",
"OX c #E38B43",
"+X c #EB8C42",
"@X c #F48D41",
"#X c #ED9246",
"$X c #EA9347",
"%X c #F19347",
"&X c #F99647",
"*X c #F49648",
"=X c #FA9748",
"-X c #FD9B4A",
";X c #FF9847",
":X c #FFA04C",
">X c #F5BD43",
",X c #FFC642",
"<X c #003484",
"1X c #00368A",
"2X c #00388E",
"3X c #003991",
/* pixels */
"                    <X<X<X<X<X<X<X<X<X<X<X                      ",
"                <X<X<X<X<X<X<X<X<X<X<X<X<X<X<X<X                ",
"              <X<X<X<X<X1X1X2X2X2X1X1X<X<X<X<X<X<X              ",
"          <X<X<X<X2X1X) ~ E T U T E ~ ) 1X2X<X<X<X<X            ",
"        1X1X1X2X<XE 3 1 b S &.=.=.Z n > 3 E ) 2X<X<X<X<X        ",
"      _ Y / ) E @ S Z.^.~.[.[.^.D.'.).G.S.N @ E 1X<X<X<X        ",
"      Q i n : N H.[.'.F.4.Z B.'.D.A G.*.A.`.H.j R 1X<X<X<X      ",
"    1XU B.[.(.(.'.F.D.'.'.W.V V ].Q.M 9.S 6.I.L.@ <X<X<X<X<X    ",
"  <X1XW m ,X'.D.4.~.8.A G.[.[.8.M S.W.*.$.6.I.9.. R 1X<X<X<X<X  ",
"  <X<X<X6 L >X{.B.C !.E.A 1.F.`.W.1.&.9.6.$.N h f.y ~ 1X<X<X<X  ",
"  <X<X<X<X8 : 2.C.M.n I V.N.8.N.~./.9.x X % * R.P.$.U 2X<X<X<X  ",
"<X<X<X<X1X) > : 2 g f % = h b b h p p x <.+.C P.d.+.Y 2X<X<X<X<X",
"<X<X<X<X1X/ d G |.:X=X@XY.l.i.7.g.k.T.;XT.z 3.A.d.- R 2X<X<X<X<X",
"<X<X<X<X<X) 0 d P g J .X X X.X=X0.g g r.T.z 4.9.#.i U 2X<X<X<X<X",
"<X<X<X<X<X) 1 ; G 0.H * , h.F $ , :.w.q.T.{ L _.+.- 3 1X<X<X<X<X",
"<X<X<X<X1X^ n M n.G , 1 # K.>., < < 5.h.Y.,.f ).9.6.y Q 1X<X<X<X",
"<X<X<X<X<X<X9 ; m.OXK ] [ ` x OXe.e.+Xj.OXc.l D 2 , - ! 1X<X<X<X",
"<X<X<X<X<X1X~ o oX Xe  .X.O.r J..XK.%X&X+Xa.z.s p u.O <X<X<X<X<X",
"<X<X<X<X<X<X2X7 oX}.[  ...o.' F -X%X#X#Xz.a.c.>.p ,.4 1X<X<X<X<X",
"<X<X<X<X<X<X<X7 oX$Xq }  .| w # j.&X%XY.a.a.x.>.p.+.Y 2X<X<X<X<X",
"<X<X<X<X<X<X<X4 oX-X;.a e c 5.j.-.%X*XU.a.a.p.z.p.* ( 1X<X<X<X<X",
"  <X<X<X<X<X<X4 XX+XK.#Xw.r.K.-Xj.j.&XU.a.c.B < % Y 2X<X<X<X<X<X",
"  <X<X<X<X<X1X7 }.&X.X;.-.-.J K K.#X%XU.a.c.a @.s ~ 1X<X<X<X<X  ",
"  <X<X<X<X<X2X8 t.-Xh.K.v f J l.y.$X*Xv.a.z.& t 7 <X<X<X<X<X<X  ",
"    <X<X<X<X2XE K -X-XOXh..Xe.k.&X=X+Xl.x.,.o ~ <X<X<X<X<X<X    ",
"      <X<X<X<X_ @ e.j.&X-X&X=X-XOX>.s.x.x.t ~ 3X<X<X<X<X<X      ",
"      <X<X<X<X1X^ + $ H j.OX.Xq.p @.c.x.u U 1X<X<X<X<X<X<X      ",
"        <X<X<X<X2X( + k l h h l i.b.u.t U 1X<X<X<X<X<X<X        ",
"          <X<X<X<X1X( 5 z %.p.s.%.u O Q 2X<X<X<X<X<X<X          ",
"              <X<X<X1X<XQ 6 5 5 6 ! <X2X<X<X<X<X<X              ",
"                <X<X<X<X1X1X<X<X1X2X<X<X<X<X<X<X                ",
"                    <X<X<X<X<X<X<X<X<X<X<X<X                    "
};
